<?xml version="1.0" standalone="no"?>
<!DOCTYPE svg PUBLIC "-//W3C//DTD SVG 1.1//EN" "http://www.w3.org/Graphics/SVG/1.1/DTD/svg11.dtd" >
<svg xmlns="http://www.w3.org/2000/svg">
<metadata></metadata>
<defs>
<font id="tau_elango_abiramiregular" horiz-adv-x="556" >
<font-face units-per-em="1000" ascent="800" descent="-200" />
<missing-glyph horiz-adv-x="500" />
<glyph unicode="&#xd;" horiz-adv-x="500" />
<glyph unicode=" "  horiz-adv-x="500" />
<glyph unicode="&#x09;" horiz-adv-x="500" />
<glyph unicode="&#xa0;" horiz-adv-x="500" />
<glyph unicode="!" horiz-adv-x="347" d="M333 586l-3 -33l-24 -217l-24 -178h-14l-10 97q0 26 -10 83l-12 68l-14 100l-4 79q-2 32 13 52.5t46 20.5q56 0 56 -72zM336 37q0 -15 -18 -33q-10 -8 -42 -14q-22 0 -41 13q-11 7 -17 34q0 20 19 34.5t40 14.5q23 0 41 -13.5t18 -35.5z" />
<glyph unicode="&#x22;" horiz-adv-x="355" d="M308 599l-23 -137h-53l-24 137v117h100v-117zM146 599l-22 -137h-54l-24 137v117h100v-117z" />
<glyph unicode="#" horiz-adv-x="359" d="M358 325l-7 -26h-76l-33 -122h77l-7 -26h-76l-40 -151h-44l42 151h-77l-40 -151h-43l41 151h-75l6 26h76l33 122h-76l6 26h76l42 151h43l-42 -151h76l40 151h43l-41 -151h76zM233 299h-76l-32 -122h75z" />
<glyph unicode="$" horiz-adv-x="439" d="M401 154q0 -28 -8 -49q-33 -87 -161 -105v-78h-30v78q-57 0 -92.5 13t-70.5 32l-1 114h13q29 -135 151 -135v249q-86 51 -113 77q-44 42 -44 102q0 43 42 90q52 43 115 43v55h29v-55q91 0 142 -47v-98h-12q-8 49 -43 84q-38 37 -86 37v-217q86 -44 116 -71 q53 -48 53 -119zM201 359v202q-39 -4 -64.5 -28.5t-25.5 -63.5q0 -59 90 -110zM332 134q0 40 -30 73q-9 10 -70 50v-233q100 17 100 110z" />
<glyph unicode="%" horiz-adv-x="730" d="M677 220q0 -77 -49 -146q-54 -75 -128 -75q-107 0 -107 121q0 76 57 141t132 65q95 0 95 -106zM555 594l-337 -607h-42l305 549l-48 -20l-42 -4q-44 0 -61 9l5 -21l1 -22q3 -71 -52 -150q-52 -74 -125 -74q-50 0 -78 34t-28 85q0 75 57.5 141.5t130.5 66.5q27 0 44 -7 q8 -2 18 -11l16 -14q8 -7 28 -13l36 -3q41 -3 89 24q23 13 49 37h34zM653 221q0 77 -63 77q-51 0 -93 -84q-37 -74 -37 -130q0 -28 16.5 -43t40.5 -15q54 0 98 72q38 62 38 123zM314 487q0 34 -14 41q-19 8 -37 17l-17 10q-48 0 -90 -84q-36 -72 -36 -127q0 -60 54 -60 q60 0 103 74q37 64 37 129z" />
<glyph unicode="&#x26;" horiz-adv-x="702" d="M657 87q-45 -100 -133 -100q-70 0 -148 81q-84 -81 -191 -81q-68 0 -108 34q-43 37 -43 104q0 75 68 137q35 32 106 70q-11 18 -21.5 58.5t-10.5 63.5q0 60 37.5 100t97.5 40q51 0 85 -27.5t34 -77.5q0 -54 -50 -100q-8 -8 -86 -52q34 -64 55 -97q25 -39 61 -83 q80 100 80 162q0 36 -56 36v19h189v-18q-58 -6 -83 -52l-22 -41q-45 -84 -89 -131q71 -81 139 -81q28 0 48 16l28 31zM383 491q0 31 -19 52.5t-50 21.5q-68 0 -68 -76q0 -47 21 -94q4 -11 14 -30q46 26 68 48q34 34 34 78zM353 91l-36 48l-27 39l-69 122q-104 -56 -104 -145 q0 -52 31.5 -86.5t82.5 -34.5q29 0 65 17t57 40z" />
<glyph unicode="'" horiz-adv-x="191" d="M144 596l-23 -134h-55l-22 134v120h100v-120z" />
<glyph unicode="(" horiz-adv-x="369" d="M314 -146l-13 -15q-60 26 -134 102q-119 123 -119 285q0 155 104 268q67 73 152 114l10 -14q-84 -61 -116 -110q-61 -92 -61 -247q0 -118 23 -188q43 -129 154 -195z" />
<glyph unicode=")" horiz-adv-x="369" d="M325 222q0 -206 -184 -338q-49 -35 -73 -45l-9 15q75 49 113 105q63 92 63 251q0 133 -34 218q-42 103 -142 166l13 14q77 -36 148 -117q105 -119 105 -269z" />
<glyph unicode="*" horiz-adv-x="429" d="M381 275q0 -13 -10 -23l-25 -10q-13 0 -57 43q-47 46 -63 54l-6 3l-1 -6q0 -50 13 -91l14 -44q0 -10 -11 -26q-6 -9 -26 -12q-13 0 -24 11q-6 11 -9 27l24 91l3 28l-1 16l-1 6q-8 -5 -65 -57q-45 -41 -62 -41q-13 0 -25 9q-7 8 -7 20q-1 32 46 44q79 21 109 39 q-50 23 -110 41q-45 13 -45 39q0 15 10 25l22 8q7 0 61 -44q60 -50 68 -55v12q0 22 -12 65t-12 65q0 36 33 36t33 -37q0 -24 -12.5 -71.5t-12.5 -72.5l46 34l60 63q12 6 22 6q27 0 33 -34q0 -26 -42 -37q-72 -18 -112 -43l8 -5q34 -21 106 -36q40 -8 40 -40z" />
<glyph unicode="+" horiz-adv-x="456" d="M432 297h-176v-177h-55l-1 177h-176v56h176v176h56v-176h176v-56z" />
<glyph unicode="," horiz-adv-x="277" d="M219 12q0 -49 -35 -95q-33 -42 -81 -63l-11 19q86 48 86 113q0 6 -5 10l-4 1l-4 2l-35 -5q-22 0 -39.5 16t-17.5 38q0 18 16 41q12 18 47 18q24 0 46 -17q37 -28 37 -78z" />
<glyph unicode="-" horiz-adv-x="241" d="M216 188h-187v65h187v-65z" />
<glyph unicode="." horiz-adv-x="248" d="M186 53q0 -24 -18 -42t-42 -18q-26 0 -43 17t-17 43q0 25 17.5 42.5t42.5 17.5t42.5 -17.5t17.5 -42.5z" />
<glyph unicode="/" horiz-adv-x="440" d="M448 716l-416 -901h-76l415 901h77z" />
<glyph unicode="0" horiz-adv-x="435" d="M416 293q0 -80 -27 -160q-48 -141 -172 -141q-99 0 -153 105q-42 81 -42 192q0 109 39 189q53 108 160 108q94 0 152 -103q43 -77 43 -190zM323 282q0 258 -104 258t-104 -262q0 -241 107 -241q83 0 98 157q3 32 3 88z" />
<glyph unicode="1" horiz-adv-x="435" d="M364 0h-276l-1 13h16l24 2l27 7q28 12 28 54v395q0 41 -31 41q-17 0 -32 -5l-40 -13v11l181 80h6l2 -8v-513q0 -33 33 -46q15 -6 63 -6v-12z" />
<glyph unicode="2" horiz-adv-x="435" d="M412 119l-47 -119h-340v30q156 159 205 227q52 72 52 136q0 52 -27.5 85t-78.5 33q-53 0 -87 -40q-12 -14 -35 -65l-27 7q14 77 58 124q49 51 122 51q67 0 114 -44.5t47 -111.5q0 -94 -94 -194l-152 -161h185q39 0 54 6.5t35 38.5z" />
<glyph unicode="3" horiz-adv-x="435" d="M376 198q0 -95 -76 -152q-69 -52 -167 -52q-96 0 -96 48q0 13 6 25q12 14 35 14q19 0 56.5 -22.5t59.5 -22.5q75 0 100 72q8 23 8 46q0 39 -22 74q-33 53 -122 53h-11l-15 -1v33q137 45 137 129q0 39 -27 63.5t-66 24.5q-42 0 -76 -32q-12 -11 -38 -53l-24 3 q18 64 62.5 103t108.5 39q55 0 95.5 -32t40.5 -86q0 -62 -80 -120q111 -50 111 -154z" />
<glyph unicode="4" horiz-adv-x="435" d="M411 145h-80v-145h-86v145h-236v56l272 384h49v-384h81v-56zM244 201v273l-191 -273h191z" />
<glyph unicode="5" horiz-adv-x="435" d="M380 593l-34 -79q0 -6 -25 -6h-158l-36 -75q47 -6 95 -22q99 -33 135 -121l12 -40l4 -40q0 -98 -68.5 -158.5t-167.5 -60.5h-20q-12 0 -21 2l-26 6q-43 10 -43 47q3 20 15 34q12 9 29 9t56.5 -25.5t57.5 -25.5q53 0 85 44q28 39 28 94q0 90 -109 146q-48 25 -122 25 l-12 19l95 211h183q13 0 21 5l19 17z" />
<glyph unicode="6" horiz-adv-x="435" d="M407 194q0 -82 -48 -141q-52 -62 -132 -62q-92 0 -148 85q-49 75 -49 172q0 152 119 258q101 90 238 90l10 -21q-44 -7 -91 -27q-72 -31 -128 -125q-11 -18 -31 -78l31 16q42 13 69 13q74 0 117 -52.5t43 -127.5zM321 163q0 49 -17 92q-26 67 -93 67q-60 0 -81 -36 q-11 -19 -11 -70q0 -68 23 -119q30 -67 90 -67q89 0 89 133z" />
<glyph unicode="7" horiz-adv-x="435" d="M390 563l-184 -571h-70l169 510h-169q-42 0 -60 -13q-12 -8 -39 -48l-20 8l51 128h322v-14z" />
<glyph unicode="8" horiz-adv-x="435" d="M384 135q0 -66 -53 -107q-48 -37 -116 -37q-69 0 -116 35q-53 39 -53 105q0 50 35 95q21 27 78 64q-55 45 -77 73q-31 40 -31 90q0 64 53 101q47 33 114 33q62 0 103 -30q46 -34 46 -93q0 -54 -41 -90q-11 -9 -76 -52q63 -45 91 -78q43 -51 43 -109zM294 462 q0 41 -26 64.5t-67 23.5q-34 0 -58 -22t-24 -56q0 -62 100 -128l31 25l20 19q24 30 24 74zM315 116q0 41 -25 69q-22 24 -99 81q-65 -42 -65 -121q0 -55 26.5 -85.5t71.5 -30.5q91 0 91 87z" />
<glyph unicode="9" horiz-adv-x="435" d="M402 330q0 -154 -119 -258q-103 -90 -238 -90l-10 21q44 7 91 27q72 31 128 125q10 17 31 78l-31 -16l-35 -11l-34 -3q-74 0 -119 54q-41 51 -41 127q0 82 49.5 142.5t130.5 60.5q92 0 148 -85q49 -75 49 -172zM313 362q0 68 -23 119q-30 67 -90 67q-89 0 -89 -133 q0 -49 17 -92q26 -67 93 -67q60 0 81 36q11 19 11 70z" />
<glyph unicode=":" horiz-adv-x="201" d="M159 291q0 -22 -16 -38.5t-38 -16.5q-21 0 -37.5 17t-16.5 38q0 22 16 38t38 16t38 -16t16 -38zM159 44q0 -22 -16 -38t-38 -16t-38 16t-16 38q0 23 15.5 39t38.5 16t38.5 -16t15.5 -39z" />
<glyph unicode=";" horiz-adv-x="201" d="M159 291q0 -22 -16 -38.5t-38 -16.5q-21 0 -37.5 17t-16.5 38q0 22 16 38t38 16t38 -16t16 -38zM196 14q0 -48 -37 -94q-33 -42 -80 -65l-11 20q52 25 67 59l14 31q6 13 6 23l-5 9l-9 3l-35 -5q-23 0 -39.5 15.5t-16.5 38.5q0 21 16 41q11 18 46 18t57 -25q27 -24 27 -69 z" />
<glyph unicode="&#x3c;" horiz-adv-x="456" d="M324 219l-38 -41l-168 167l164 164l40 -40l-125 -124z" />
<glyph unicode="=" horiz-adv-x="456" d="M428 306h-409l1 56h407zM428 143h-409v56h409v-56z" />
<glyph unicode="&#x3e;" horiz-adv-x="456" d="M390 345l-168 -167l-38 41l127 126l-125 124l40 40z" />
<glyph unicode="?" horiz-adv-x="396" d="M401 502q0 -45 -73 -158q-80 -123 -92 -184h-20l1 28q1 15 7 40l3 23q2 13 8 29q3 21 39 100q30 65 30 113q0 53 -23 84q-26 36 -77 36q-26 0 -52 -15q-30 -17 -30 -41q0 -8 17.5 -30t17.5 -37q0 -37 -44 -37q-25 0 -38 22q-11 18 -11 44q0 63 54 103q47 35 115 35 q72 0 120 -42t48 -113zM287 42q0 -44 -58 -56q-24 0 -41 16t-17 40q0 21 17 41q19 16 40 16q23 0 41 -17t18 -40z" />
<glyph unicode="@" horiz-adv-x="1015" d="M979 9q-45 -113 -229 -188l-92 -23l-50 -6l-60 -2q-94 -3 -185 24q-99 29 -166 85q-139 117 -143 330q-2 122 56 241q126 258 428 259q71 0 114 -12l52 -15q8 -2 24 -10q110 -46 173 -150q53 -89 54 -194q1 -136 -100 -251q-87 -99 -194 -99h-13l-19 2q-30 3 -53 38 q-6 9 -9 42q-61 -79 -150 -81q-96 -2 -150 103q-27 53 -27 116q0 76 37.5 150.5t99 117t117.5 43.5q89 1 147 -90l17 76h87l-85 -403q0 -26 34 -32q48 0 109 66q79 86 80 204q1 85 -46 156q-43 66 -121 109q-25 14 -86 32l-45 8l-51 3q-102 6 -209 -52q-94 -51 -148 -157 q-50 -98 -51 -212q-1 -113 47 -198q52 -91 153.5 -133.5t220.5 -43.5q232 -2 344 147h88zM613 317q0 56 -28 95q-31 45 -85 45q-57 0 -104 -57q-35 -42 -55 -111q-9 -32 -10 -77q-1 -55 24 -94q28 -46 80 -47q53 -2 100 48q39 41 60 99q18 50 18 99z" />
<glyph unicode="A" horiz-adv-x="667" d="M279 716h91l293 -716h-88l-86 223h-323l-81 -223h-82zM466 282l-82 218q-34 91 -64 192q-24 -120 -47 -180l-87 -230h280z" />
<glyph unicode="B" horiz-adv-x="667" d="M73 716h269q153 0 208 -87q28 -44 28 -91q1 -99 -122 -159q157 -45 158 -176q1 -203 -268 -203h-273v716zM322 406q66 0 97 9q82 24 83 111q1 90 -76 113q-33 10 -116 10h-159v-243h171zM346 66q47 0 69 4q117 21 118 133q1 96 -88 124q-41 13 -112 13h-182v-274h195z " />
<glyph unicode="C" horiz-adv-x="722" d="M680 216q-63 -227 -293 -228q-220 -1 -299 182q-38 87 -38 193q-1 231 164 322q77 43 174 43q216 1 279 -197l-76 -17q-53 150 -205 151q-83 1 -143 -39q-63 -41 -89 -118q-24 -70 -24 -144q0 -213 126 -282q56 -31 123 -31q176 -1 224 184z" />
<glyph unicode="D" horiz-adv-x="722" d="M77 716h245q87 0 130 -10q136 -32 189 -173q27 -72 28 -171q1 -125 -47 -216q-55 -106 -167 -133q-53 -13 -121 -13h-257v716zM323 66q133 0 189 55q77 76 77 242q0 218 -138 271q-39 15 -131 15h-166v-583h169z" />
<glyph unicode="E" horiz-adv-x="667" d="M79 716h517v-67h-439v-246h411v-65h-411v-272h456v-66h-534v716z" />
<glyph unicode="F" horiz-adv-x="611" d="M82 716h483v-67h-405v-248h350v-66h-350v-335h-78v716z" />
<glyph unicode="G" horiz-adv-x="778" d="M423 355h292v-258q-140 -108 -295 -109q-103 -1 -187 42q-91 46 -136 132q-43 83 -44 192q-1 101 41 189q88 185 318 185q163 0 239 -94q33 -41 51 -107l-69 -19q-48 156 -220 157q-137 1 -211 -85q-68 -81 -69 -220q-1 -202 139 -272q66 -33 142 -33q59 0 120 22 q65 22 106 60v152h-217v66z" />
<glyph unicode="H" horiz-adv-x="722" d="M80 716h78v-303h406v303h78v-716h-78v347h-406v-347h-78v716z" />
<glyph unicode="I" horiz-adv-x="278" d="M103 716h75v-716h-75v716z" />
<glyph unicode="J" horiz-adv-x="500" d="M98 199q11 -144 122 -145q87 -1 113 69q11 29 11 96v497h78v-491q0 -164 -90 -212q-46 -25 -111 -25q-192 -1 -192 202z" />
<glyph unicode="K" horiz-adv-x="667" d="M73 716h78v-380l382 380h103l-299 -287l318 -429h-104l-267 378l-133 -129v-249h-78v716z" />
<glyph unicode="L" d="M73 716h78v-650h370v-66h-448v716z" />
<glyph unicode="M" horiz-adv-x="833" d="M74 716h129l173 -515q12 -39 44 -140l50 149l174 506h113v-716h-73v667l-232 -667h-73l-231 679v-679h-74v716z" />
<glyph unicode="N" horiz-adv-x="722" d="M76 716h85l406 -602v602h73v-716h-85l-405 602v-602h-74v716z" />
<glyph unicode="O" horiz-adv-x="778" d="M391 729q100 0 178.5 -45.5t121 -132.5t42.5 -194q0 -103 -39 -186q-43 -93 -126.5 -138t-176.5 -45q-98 0 -177 46q-82 47 -124 132.5t-42 181.5q0 167 87 270q92 111 256 111zM390 51q128 -1 199 91q63 82 64 215q1 192 -124 270q-60 37 -137 38q-134 1 -203 -95 q-60 -83 -61 -223q-1 -126 66 -208q72 -87 196 -88z" />
<glyph unicode="P" horiz-adv-x="667" d="M77 716h270q72 0 111 -7q103 -18 144 -100q22 -43 22 -96q1 -214 -268 -214h-201v-299h-78v716zM357 366q186 0 186 144q0 47 -25 84t-68 49q-23 6 -95 6h-200v-283h202z" />
<glyph unicode="Q" horiz-adv-x="778" d="M738 -4l-21 -49q-70 26 -152 90q-84 -48 -181 -48q-98 0 -176 46t-122 132q-42 82 -43 191q-1 102 39 186q43 91 126 139q78 45 178 46q101 1 187 -53q154 -97 154 -317q0 -177 -117 -290q73 -51 128 -73zM551 110q96 87 96 249q0 189 -124 268q-59 37 -137 38 q-130 1 -200 -91q-63 -82 -63 -216q0 -133 64 -215q69 -90 199 -91q53 0 120 27q-56 37 -105 52l17 51q74 -22 133 -72z" />
<glyph unicode="R" horiz-adv-x="722" d="M79 716h317q83 0 126 -12q60 -17 93 -66t34 -113q1 -95 -72 -144q-53 -36 -161 -51q67 -31 87 -50q48 -45 80 -95l118 -185h-99l-94 148q-18 28 -57 82t-67 72q-39 25 -104 25h-124v-327h-77v716zM376 391q193 0 193 134q0 68 -53 102q-44 28 -116 28h-244v-264h220z" />
<glyph unicode="S" horiz-adv-x="667" d="M118 223q15 -105 110 -146q50 -21 118 -22q122 -1 172 66q22 30 23 69q1 77 -94 113q-32 12 -139 37q-88 20 -135 45q-99 52 -100 151q-1 57 32 101.5t87 66.5q58 24 132 24q112 0 180 -45q77 -51 88 -155l-74 -6q-21 141 -190 141q-71 0 -119 -25q-61 -31 -62 -96 q-1 -60 66 -93q31 -15 119 -35q121 -27 162 -46q120 -55 121 -170q1 -60 -35 -110q-34 -46 -91 -72q-61 -28 -138 -28q-192 -1 -267 112q-34 52 -39 117z" />
<glyph unicode="T" horiz-adv-x="611" d="M268 649h-245v67h568v-67h-246v-649h-77v649z" />
<glyph unicode="U" horiz-adv-x="722" d="M642 716v-415q0 -97 -19 -155q-51 -157 -261 -158q-200 0 -256 132q-27 64 -27 181v415h77v-415q0 -82 12 -124q34 -121 185 -122q122 -1 170 64q41 55 41 182v415h78z" />
<glyph unicode="V" horiz-adv-x="667" d="M9 716h84q13 -38 124 -322q74 -189 113 -332q35 125 118 332l129 322h77l-281 -716h-86z" />
<glyph unicode="W" horiz-adv-x="944" d="M15 716h78l79 -326q38 -157 70 -328q25 105 72 275l14 50l95 329h102l91 -333q37 -142 77 -331q25 129 77 333l84 331h75l-195 -716h-77q-22 74 -96 325q-58 195 -89 339q-29 -129 -88 -332l-97 -332h-83z" />
<glyph unicode="X" horiz-adv-x="667" d="M292 373l-244 343h91l131 -185q38 -53 67 -105q33 53 67 98l146 192h80l-251 -337l272 -379h-96l-182 258q-6 8 -41 63q-32 -52 -44 -69l-182 -252h-91z" />
<glyph unicode="Y" horiz-adv-x="667" d="M287 305l-275 411h94l142 -218q33 -51 84 -139q45 78 89 145l140 212h89l-285 -411v-305h-78v305z" />
<glyph unicode="Z" horiz-adv-x="611" d="M20 77l378 468q31 38 93 104h-428v67h511v-73l-474 -577h486v-66h-566v77z" />
<glyph unicode="[" horiz-adv-x="278" d="M262 -199h-194v915h194v-73h-106v-769h106v-73z" />
<glyph unicode="\" horiz-adv-x="278" d="M278 -12h-70l-208 740h71z" />
<glyph unicode="]" horiz-adv-x="278" d="M213 -199h-194v73h106v769h-106v73h194v-915z" />
<glyph unicode="^" horiz-adv-x="469" d="M443 337h-89l-120 291l-117 -291h-91l173 391h71z" />
<glyph unicode="_" d="M567 -199h-582v64h582v-64z" />
<glyph unicode="`" horiz-adv-x="336" d="M313 480l-88 158q-3 8 -3 16t2 15q6 15 22 25q6 3 18 5q29 0 41 -31l40 -173z" />
<glyph unicode="a" d="M211 -12q-75 -1 -122 33q-52 39 -53 111q-1 75 61 116q26 17 63 29q19 6 80 13q115 13 173 34v32q0 118 -141 119q-63 0 -96 -20q-36 -23 -52 -81l-70 10q36 146 232 146q144 0 181 -73q18 -36 18 -120v-121q0 -126 6 -163q4 -27 16 -53h-72q-9 21 -17 77 q-54 -47 -95 -66q-49 -22 -112 -23zM251 236q-51 -7 -68 -13q-69 -23 -70 -88q-1 -49 37 -74q32 -22 83 -22q120 -1 164 92q16 34 16 96v49q-63 -26 -162 -40z" />
<glyph unicode="b" d="M65 0v716h71v-282q74 90 160 91q107 1 166 -79q52 -70 53 -181t-54 -190q-61 -87 -170 -87q-89 0 -161 102v-90h-65zM157 117q46 -75 126 -75t123 71q36 59 36 144q0 88 -33 144q-40 69 -122 70q-80 1 -122 -68q-36 -58 -36 -142q0 -98 28 -144z" />
<glyph unicode="c" horiz-adv-x="500" d="M489 167q-15 -83 -72.5 -131t-141.5 -48q-117 0 -179 78q-57 71 -57 191q0 181 112 242q56 31 125 31q168 1 204 -151l-69 -11q-30 108 -132 108q-165 0 -166 -216t161 -217q121 -1 145 133z" />
<glyph unicode="d" d="M419 93q-66 -105 -162 -105q-132 0 -194 129q-29 59 -29 139q-1 168 104 236q51 33 115 33q55 0 93 -25q31 -20 67 -70v286h71v-716h-65v93zM266 42q80 -1 121 67q33 55 34 140q1 91 -33 149q-41 72 -126 73q-82 1 -122 -70q-31 -56 -32 -145q-1 -86 35 -144 q42 -69 123 -70z" />
<glyph unicode="e" d="M509 143q-48 -154 -225 -155q-122 -1 -186 74q-60 69 -61 193q-1 122 59 195q64 79 183 80q116 1 178 -79q57 -72 58 -191q0 -6 -1 -14h-404q5 -89 44 -142q46 -60 131 -61q104 -1 149 109zM440 301q-8 83 -38 119q-46 55 -122 56q-75 1 -119 -51q-40 -47 -46 -124h325z " />
<glyph unicode="f" horiz-adv-x="278" d="M92 463h-83v50h83v67q0 50 10 76q27 72 133 72q37 0 76 -7l-11 -59q-29 4 -46 4q-89 2 -89 -94v-59h108v-50h-108v-463h-73v463z" />
<glyph unicode="g" d="M120 -71q17 -84 134 -85q128 -1 156 103q5 20 7 146q-75 -87 -161 -87q-107 0 -168 78q-55 71 -56 181q-1 161 105 232q49 33 120 33q91 0 168 -95v83h64v-450q0 -98 -14 -143q-42 -135 -220 -135q-198 0 -204 149zM265 60q83 -1 124 66q34 55 35 143q1 85 -37 141 q-43 66 -124 66q-79 0 -121 -65q-36 -55 -36 -139q0 -90 34 -145q40 -66 125 -67z" />
<glyph unicode="h" d="M66 716h71v-282q80 90 174 91q120 1 159 -82q18 -38 18 -115v-328h-71v328q0 139 -125 140q-42 0 -83 -23q-72 -41 -72 -163v-282h-71v716z" />
<glyph unicode="i" horiz-adv-x="222" d="M76 716h68v-84h-68v84zM76 513h68v-513h-68v513z" />
<glyph unicode="j" horiz-adv-x="222" d="M78 716h75v-84h-75v84zM-30 -147q14 -3 38 -5q46 0 61 39q9 23 9 80v547h75v-549q0 -93 -26 -130q-32 -45 -107 -45q-33 0 -64 6z" />
<glyph unicode="k" horiz-adv-x="500" d="M66 716h72v-435l233 232h89l-196 -186l223 -327h-88l-184 279l-77 -73v-206h-72v716z" />
<glyph unicode="l" horiz-adv-x="222" d="M74 716h68v-716h-68v716z" />
<glyph unicode="m" horiz-adv-x="833" d="M66 518h60v-101q36 57 70 82q42 30 102 31q59 1 93.5 -24.5t54.5 -82.5q72 106 168 107q155 1 155 -170v-360h-70v319q0 47 -6 71q-18 72 -99 72q-73 0 -109 -50q-32 -44 -32 -119v-293h-70v330q0 132 -105 132q-95 0 -127 -86q-15 -40 -15 -117v-259h-70v518z" />
<glyph unicode="n" d="M66 518h62v-100q75 111 184 112q145 1 170 -122q5 -25 5 -87v-321h-71v317q0 52 -8 77q-25 78 -116 78q-155 0 -155 -188v-284h-71v518z" />
<glyph unicode="o" d="M276 530q116 0 181 -75q61 -70 62 -188q1 -182 -117 -247q-57 -31 -126 -32q-118 -1 -183 78q-60 72 -60 193t60 193q64 78 183 78zM276 43q87 -1 132 69q37 58 38 150q1 90 -39 147q-45 66 -131 66q-87 0 -131 -67q-37 -57 -38 -149q-1 -91 37 -149q45 -66 132 -67z" />
<glyph unicode="p" d="M66 518h63v-91q38 54 70 76q40 27 98 27q139 0 193 -128q26 -60 26 -136q1 -170 -112 -239q-54 -33 -114 -33q-82 0 -153 86v-279h-71v717zM284 47q83 0 125 72q33 57 34 147q1 86 -33 144q-42 69 -122 70q-79 1 -123 -74q-36 -62 -37 -147q-1 -86 34 -143 q41 -69 122 -69z" />
<glyph unicode="q" d="M413 84q-64 -90 -152 -90q-107 0 -170 85q-55 75 -56 188q-1 167 106 232q50 30 113 31q94 1 169 -106v94h61v-717h-71v283zM268 47q79 -1 120 68q34 56 35 140q1 87 -36 149q-44 75 -125 76t-121 -72q-31 -57 -32 -145q-1 -87 35 -145q42 -70 124 -71z" />
<glyph unicode="r" horiz-adv-x="333" d="M65 518h64l-1 -88q32 54 77 84q23 15 55 16q41 1 84 -23l-25 -66q-33 16 -64 16q-75 1 -101 -76q-16 -47 -16 -109v-272h-73v518z" />
<glyph unicode="s" horiz-adv-x="500" d="M103 153q21 -109 149 -110q55 0 91 20q45 25 45 76q0 36 -32 57q-19 12 -98 32q-75 19 -105 30q-106 40 -107 128q-1 73 61 111q52 33 129 33q127 0 175 -63q17 -23 28 -69l-69 -9q-19 87 -127 87q-129 0 -129 -80q0 -45 54 -66q7 -3 82 -23q46 -12 103 -29 q54 -21 78 -47q30 -33 30 -83q0 -96 -98 -139q-48 -21 -110 -21q-186 0 -220 154z" />
<glyph unicode="t" horiz-adv-x="278" d="M269 -1q-33 -6 -60 -6q-88 0 -111 51q-10 22 -10 102v318h-70v49h70v137l73 42v-179h96v-49h-96v-323q0 -35 2 -43q10 -40 63 -41q16 0 33 2z" />
<glyph unicode="u" d="M423 103q-79 -114 -183 -115q-39 0 -78 15q-45 16 -65 43.5t-28 65.5q-5 23 -5 83v324h71v-289q0 -73 6 -99q20 -84 117 -85q45 0 84 22t55 62t16 110v279h71v-519h-61v103z" />
<glyph unicode="v" horiz-adv-x="500" d="M17 519h68q15 -37 87 -224q50 -131 78 -226q26 95 80 227q38 94 90 223h64l-197 -519h-72z" />
<glyph unicode="w" horiz-adv-x="722" d="M7 519h71l125 -449q5 21 120 449h77l114 -435q7 22 130 435h67l-161 -519l-73 -1q-36 132 -115 448l-120 -447h-78z" />
<glyph unicode="x" horiz-adv-x="500" d="M211 269l-179 250h89l80 -122l49 -76q8 13 139 197h79l-179 -243l194 -275h-87l-146 221l-148 -221l-81 -1z" />
<glyph unicode="y" horiz-adv-x="500" d="M56 -138q22 -5 40 -5q59 -1 88 43q7 10 29 69q1 3 9 26l-201 524l66 1q107 -271 170 -465q73 232 164 465l66 -1l-201 -529q-32 -84 -51 -119q-44 -81 -122 -81q-25 0 -50 8z" />
<glyph unicode="z" horiz-adv-x="500" d="M20 60l358 405h-338v54h422v-47l-365 -421l191 1h96q75 0 95 -1v-51h-459v60z" />
<glyph unicode="{" horiz-adv-x="334" d="M311 -210h-28q-53 0 -70 8q-23 6 -49 35q-9 10 -29 64q-6 39 -6 127q0 99 -8 122q-12 67 -93 73v80q74 0 93 73l5 55l3 60q0 30 3 113q2 58 42 98q12 12 49 25l35 4l25 1h28v-77h-16q-48 0 -68 -19q-16 -19 -16 -81l-1 -139q0 -16 -4 -22q-9 -49 -32 -78q-19 -25 -65 -53 q66 -24 87 -90q13 -41 15 -130l2 -113q1 -30 20 -47l20 -8q25 -5 42 -5h16v-76z" />
<glyph unicode="|" horiz-adv-x="260" d="M168 -210h-76v938h76v-938z" />
<glyph unicode="}" horiz-adv-x="334" d="M306 219q-75 0 -94 -74l-5 -45l-2 -117q0 -26 -3 -60q-2 -40 -15.5 -64t-30.5 -41l-18 -11l-27 -12l-23 -4l-38 -1h-27v76h15q53 0 70 25q13 19 14 76l1 95l3 60q2 47 32 86q25 34 66 51q-64 28 -87 90q-15 41 -15 130v60l-3 61q-3 51 -81 51h-15v77h27q52 0 75 -10 q48 -15 73 -98l5 -51l2 -75q1 -46 7 -125q7 -43 60 -65l16 -4l18 -1v-80z" />
<glyph unicode="~" horiz-adv-x="584" d="M542 329q-30 -27 -62 -43q-49 -14 -73 -13l-28 1h-16l-11 4q-19 5 -90 36q-54 24 -92 24q-32 0 -59 -13l-30 -19l-13 -10l-26 -24v100q51 56 136 59q12 0 62 -9q13 -6 92 -34l50 -18l21 -5h13q58 0 126 67v-103z" />
<glyph unicode="&#xad;" horiz-adv-x="0" d="M350 700l-8 -40h-170l-191 -955h-40l199 995h210z" />
<glyph unicode="&#xba;" horiz-adv-x="508" d="M378 690l-233 -687h-37l234 687h36zM155 298h-36v254h-85v25h25q29 0 50.5 17.5t21.5 42.5v12h24v-351zM481 94h-49v-88h-36v88h-157v45l157 206h36v-218h49v-33zM396 127v175l-121 -163v-12h121z" />
<glyph unicode="&#xbd;" horiz-adv-x="568" d="M378 690l-233 -687h-37l234 687h36zM523 1h-242q0 64 53 111l99 62q54 34 54 69q0 30 -27.5 56t-57.5 26q-29 0 -51.5 -23.5t-22.5 -52.5q0 -16 2 -18h-36l-2 19q0 42 34 72t76 30q50 0 85.5 -30t35.5 -79q0 -51 -50 -79l-95 -53q-55 -31 -55 -74h200v-36zM155 298h-36 v254h-85v25h25q29 0 50.5 17.5t21.5 42.5v12h24v-351z" />
<glyph unicode="&#xbe;" horiz-adv-x="592" d="M448 690l-233 -687h-37l234 687h36zM271 416q0 -44 -38 -75.5t-83 -31.5q-48 0 -83 33t-35 77h27l1 -17q1 -9 8 -21q6 -15 22 -25q26 -21 60 -21q31 0 56.5 23.5t25.5 54.5q0 27 -18 51q-15 20 -42 25h-43v26h46q48 20 48 62q0 28 -22.5 48t-50.5 20q-59 0 -82 -85h-30 q0 20 9 44l11 20l15 16q32 34 77 34t77 -28t32 -67q0 -42 -48 -75q12 -3 23 -14l20 -21q17 -25 17 -53zM551 94h-49v-88h-36v88h-157v45l157 206h36v-218h49v-33zM466 127v175l-121 -163v-12h121z" />
<glyph unicode="&#xd7;" horiz-adv-x="667" d="M512 385q0 -13 -9.5 -23t-22.5 -10q-33 0 -33 33q0 11 9 22q8 8 24 10q13 0 22.5 -9.5t9.5 -22.5zM588 307q0 -12 -10 -22t-22 -10q-11 0 -21.5 9t-10.5 23q0 12 9 22t23 11q12 0 22 -10t10 -23zM407 413q0 -14 -9.5 -23.5t-23.5 -9.5q-11 0 -21.5 9t-10.5 24 q0 11 9.5 21.5t22.5 10.5t23 -9.5t10 -22.5zM617 202q0 -12 -10 -22t-22 -10q-33 0 -33 32q0 11 9 22q8 8 24 10q31 0 32 -32zM301 385q0 -13 -9.5 -23t-22.5 -10q-11 0 -21.5 9t-10.5 24q0 11 9 21t23 11q13 0 22.5 -9.5t9.5 -22.5zM588 97q0 -13 -9.5 -23t-22.5 -10 q-11 0 -21.5 9t-10.5 24q0 11 9 21t23 11q13 0 22.5 -9.5t9.5 -22.5zM512 19q0 -13 -9.5 -22.5t-22.5 -9.5t-23 9.5t-10 22.5t9 24q8 8 24 10q28 0 32 -34zM224 307q0 -12 -10 -22t-22 -10q-33 0 -33 32q0 12 9 23q8 8 24 10q13 0 22.5 -10t9.5 -23zM407 -9q0 -12 -10 -22 t-23 -10q-12 0 -22 10t-10 22t9.5 22.5t22.5 10.5t22.5 -10t10.5 -23zM196 202q0 -12 -10 -22t-22 -10q-33 0 -33 32q0 11 9 22q8 8 24 10q31 0 32 -32zM301 19q0 -31 -32 -32q-12 0 -22 10t-10 22q0 13 9 23t23 11q28 1 32 -34zM224 97q0 -13 -9.5 -23t-22.5 -10 q-33 0 -33 33q0 11 9 22q8 8 24 10q13 0 22.5 -9.5t9.5 -22.5z" />
<glyph unicode="&#xd8;" horiz-adv-x="621" d="M539 42l-43 -43l-148 147l-148 -147l-43 43l147 148l-147 147l44 44l147 -147l147 147l44 -44l-147 -147z" />
<glyph unicode="&#xf7;" horiz-adv-x="611" d="M370 493q0 -22 -14.5 -38.5t-35.5 -16.5q-24 0 -42 13.5t-18 36.5t16 39t39 16q22 0 38.5 -14.5t16.5 -35.5zM526 315h-419v62h419v-62zM370 204q0 -22 -14.5 -38.5t-35.5 -16.5q-24 0 -42 13.5t-18 36.5t16 39t39 16q22 0 38.5 -14.5t16.5 -35.5z" />
<glyph unicode="&#xb82;" horiz-adv-x="247" d="M216 437q0 -37 -26.5 -63t-63.5 -26q-38 0 -64.5 25.5t-26.5 63.5t26.5 63.5t64.5 25.5q37 0 63.5 -26t26.5 -63zM184 437q0 25 -17 41.5t-42 16.5q-24 0 -41 -17t-17 -41t17 -41t41 -17q25 0 42 16.5t17 41.5z" />
<glyph unicode="&#xb83;" horiz-adv-x="644" d="M388 407q0 -39 -27.5 -67t-66.5 -28q-40 0 -67 27.5t-27 67.5q0 39 27.5 66.5t66.5 27.5t66.5 -27.5t27.5 -66.5zM598 107q0 -39 -27.5 -67t-66.5 -28q-40 0 -67 27.5t-27 67.5q0 39 27.5 66.5t66.5 27.5t66.5 -27.5t27.5 -66.5zM198 107q0 -39 -27.5 -67t-66.5 -28 q-40 0 -67 27.5t-27 67.5q0 39 27.5 66.5t66.5 27.5t66.5 -27.5t27.5 -66.5zM354 407q0 25 -17.5 42.5t-42.5 17.5q-24 0 -42 -18t-18 -42q0 -25 17.5 -43t42.5 -18t42.5 18t17.5 43zM564 107q0 25 -17.5 42.5t-42.5 17.5q-24 0 -42 -18t-18 -42q0 -25 17.5 -43t42.5 -18 t42.5 18t17.5 43zM164 107q0 25 -17.5 42.5t-42.5 17.5q-24 0 -42 -18t-18 -42q0 -25 17.5 -43t42.5 -18t42.5 18t17.5 43z" />
<glyph unicode="&#xb85;" horiz-adv-x="958" d="M917 -116h-86v194h-97q-42 -101 -155 -152q-94 -43 -217 -43q-141 0 -239 74q-87 65 -87 137q0 35 58 35h567l5 31l2 38q4 79 -47.5 139.5t-137.5 58.5l-41 -1q35 0 61 -29.5t26 -64.5q0 -51 -33.5 -80.5t-85.5 -29.5q-51 0 -82 31t-31 82q0 65 61 106q54 37 122 37 q120 0 196 -64q81 -68 81 -186q0 -34 -7 -68h81v312h86v-557zM457 296q0 24 -15.5 40.5t-39.5 16.5q-34 0 -50 -34l-4 -23q0 -23 15.5 -40t38.5 -17q21 0 38 18t17 39zM645 78h-516q-22 0 -22 -16q-1 -60 96 -99q74 -30 147 -30q228 0 295 145z" />
<glyph unicode="&#xb86;" horiz-adv-x="1135" d="M1117 -66q0 -102 -84 -154q-71 -44 -179 -44q-74 0 -140 32q-82 40 -82 106q0 23 18.5 36.5t40.5 13.5h86v-50h-70q-6 -4 -8 -7q0 -41 58 -64q43 -17 92 -17q190 0 190 147q0 27 -18.5 44.5t-45.5 17.5q-26 0 -42 -19t-16 -45v-47h-86v194h-97q-42 -101 -155 -152 q-94 -43 -217 -43q-141 0 -239 74q-87 65 -87 137q0 35 58 35h567l5 31l2 38q4 79 -47.5 139.5t-137.5 58.5l-41 -1q35 0 61 -29.5t26 -64.5q0 -51 -33.5 -80.5t-85.5 -29.5q-51 0 -82 31t-31 82q0 65 61 106q54 37 122 37q120 0 196 -64q81 -68 81 -186q0 -34 -7 -68h81 v312h86v-419q18 24 62 24q56 0 94 -28q44 -31 44 -84zM457 296q0 24 -15.5 40.5t-39.5 16.5q-34 0 -50 -34l-4 -23q0 -23 15.5 -40t38.5 -17q21 0 38 18t17 39zM645 78h-516q-22 0 -22 -16q-1 -60 96 -99q74 -30 147 -30q228 0 295 145z" />
<glyph unicode="&#xb87;" horiz-adv-x="856" d="M813 -124h-50v300q0 396 -325 396q-143 0 -233 -100q-80 -89 -80 -232q0 -81 27 -144q111 57 256 57h35q12 0 27 -2l46 -6l5 32l2 36q2 33 -7 73q-9 34 -26 61q-32 50 -99 50q-15 0 -32 -6q40 0 65 -27.5t25 -67.5q0 -47 -31 -73.5t-79 -26.5t-76 28t-28 76q0 61 51 104 q47 39 112 39q99 0 157 -67q55 -63 55 -163q0 -54 -11 -87q117 -42 117 -127t-80 -124q-63 -31 -155 -31q-88 0 -161 29q-80 -20 -155 -20q-143 0 -143 88q0 73 89 132q-33 78 -33 172q0 170 97 284q102 120 269 120q178 0 278 -127q91 -115 91 -299v-347zM360 300 q0 51 -41 51q-18 0 -28.5 -17t-10.5 -37q0 -51 39 -51q41 0 41 54zM634 -2q0 47 -52 80q-54 -118 -197 -182q47 -12 96 -12q62 0 103 25q50 30 50 89zM505 103l-43 5l-54 2q-58 2 -123 -11q-56 -12 -115 -41q51 -93 151 -139q138 51 184 184zM262 -98q-84 48 -132 132 q-63 -42 -63 -89q0 -52 100 -52q45 0 95 9z" />
<glyph unicode="&#xb88;" horiz-adv-x="505" d="M472 219q0 -19 -12.5 -34t-31.5 -15q-17 0 -31 15.5t-14 33.5q0 20 12.5 34t32.5 14q17 0 30.5 -15.5t13.5 -32.5zM466 391h-126v-391h-86v391h-154v-391h-50v441h416v-50zM228 219q0 -19 -12.5 -34t-31.5 -15q-17 0 -31 15.5t-14 33.5q0 20 12.5 34t32.5 14 q17 0 30.5 -15.5t13.5 -32.5z" />
<glyph unicode="&#xb89;" horiz-adv-x="1038" d="M998 0h-879q-90 0 -90 72q0 71 73 71h134q165 0 165 129q0 134 -158 134q-28 0 -42 -7q38 -6 63.5 -33.5t25.5 -65.5q0 -50 -32 -77.5t-83 -27.5q-114 0 -114 111q0 70 61 112q54 37 127 37q102 0 163 -35q77 -45 77 -140q0 -82 -55 -132t-137 -50h-151q-30 0 -30 -24 q0 -23 27 -23h855v-51zM211 300q0 22 -13 38t-35 16q-20 0 -34.5 -16.5t-14.5 -37.5q0 -20 15.5 -37t33.5 -17q20 0 34 17t14 37z" />
<glyph unicode="&#xb8a;" horiz-adv-x="1153" d="M1111 391h-62v-307h-75v307h-80v-307h-75v160q0 151 -123 151q-46 0 -77 -37q-27 -32 -33 -81q31 29 64 29q61 0 90 -57q9 -18 9 -46q0 -49 -24 -84q-27 -40 -74 -40q-56 0 -84 60q-21 45 -21 109q0 78 44 136q48 64 123 64q99 0 133 -67v60h265v-50zM1100 0h-981 q-90 0 -90 72q0 71 73 71h134q165 0 165 129q0 134 -158 134q-28 0 -42 -7q38 -6 63.5 -33.5t25.5 -65.5q0 -50 -32 -77.5t-83 -27.5q-114 0 -114 111q0 70 61 112q54 37 127 37q102 0 163 -35q77 -45 77 -140q0 -82 -55 -132t-137 -50h-151q-30 0 -30 -24q0 -23 27 -23h957 v-51zM685 192q0 23 -10 42q-12 23 -33 23q-17 0 -30 -19l-7 -14q-6 -12 -6 -32q0 -23 10 -41q12 -23 33 -23q20 0 32 23q11 20 11 41zM211 300q0 22 -13 38t-35 16q-20 0 -34.5 -16.5t-14.5 -37.5q0 -20 15.5 -37t33.5 -17q20 0 34 17t14 37z" />
<glyph unicode="&#xb8e;" horiz-adv-x="623" d="M591 391h-89v-391h-86v391h-152q-67 0 -112 -43t-54 -110q5 9 26 22q30 18 70 18q53 0 91.5 -39.5t38.5 -93.5q0 -65 -33 -106q-37 -44 -100 -44q-77 0 -117 67q-33 55 -33 138q0 103 64 172t166 69h320v-50zM243 137q0 33 -18 58q-20 29 -51 29t-50 -27.5t-19 -59.5 q0 -33 18 -58q20 -29 51 -29t51 29q18 25 18 58z" />
<glyph unicode="&#xb8f;" horiz-adv-x="630" d="M591 391h-89v-425l-260 -173v37l174 170v391h-152q-67 0 -112 -43t-54 -110q5 9 26 22q30 18 70 18q53 0 91.5 -39.5t38.5 -93.5q0 -65 -33 -106q-37 -44 -100 -44q-77 0 -117 67q-33 55 -33 138q0 103 64 172t166 69h320v-50zM243 137q0 33 -18 58q-20 29 -51 29 t-50 -27.5t-19 -59.5q0 -33 18 -58q20 -29 51 -29t51 29q18 25 18 58z" />
<glyph unicode="&#xb90;" horiz-adv-x="790" d="M750 267q0 -104 -61.5 -158t-166.5 -54l-264 -1q-125 0 -125 -112q0 -48 32 -75q29 -25 78 -25q60 0 96 39q27 30 27 60v85h94v-82q0 -100 104 -100q95 0 95 78q0 66 -57 66v41h13q55 0 88 -24q38 -28 38 -81q0 -61 -49 -98q-44 -33 -107 -33q-139 0 -176 101 q-30 -101 -179 -101q-79 0 -128 37q-55 41 -55 118q0 80 53 120q47 36 129 36h292q80 0 114 44q29 38 29 120q0 124 -102 124q-51 0 -77 -47q-22 -38 -22 -93v-96h-92v111q0 65 -57 104q-42 22 -87 22q-48 0 -76 -14q-8 -4 -31 -27q33 9 41 9q51 0 80.5 -31t29.5 -82 q0 -57 -39 -92q-29 -26 -77 -26q-52 0 -83 45q-27 40 -27 94q0 79 51.5 127t130.5 48q167 0 210 -92q38 92 152 92q78 0 121 -50q40 -47 40 -127zM194 247q0 24 -12.5 44t-35.5 20q-22 0 -35 -20.5t-13 -43.5q0 -25 11 -43q14 -21 37 -21q22 0 36 22q12 19 12 42z" />
<glyph unicode="&#xb92;" horiz-adv-x="686" d="M653 194q0 -77 -28 -129q-36 -65 -106 -65q-45 0 -75 35q-33 38 -31 86l1 20q-12 -33 -12 -66q0 -56 29.5 -88.5t84.5 -32.5h37v-51h-16q-39 0 -47 -42q0 -59 -56 -94q-48 -31 -110 -31q-65 0 -108 30q-49 34 -49 96q0 48 30 72l38 -32q-15 -18 -15 -50t30 -51 q26 -16 60 -16q52 0 76 23q12 11 26 56q11 36 40 51q-47 12 -75 62q-26 45 -26 97q0 120 98 178l26 -35q-24 -32 -24 -93q0 -63 54 -63q66 0 66 127q0 95 -73 152q-67 53 -164 53h-23q-116 0 -179 -72q-47 -53 -47 -130q0 -47 12 -65v4l-1 4q0 49 24 79q25 34 73 34 q53 0 79 -43q19 -31 19 -75q0 -56 -30 -91t-85 -35q-66 0 -106 60q-35 52 -35 122q0 122 85 197q79 70 206 70h33q117 0 202 -70q92 -74 92 -188zM229 129q0 24 -10 42q-12 22 -34 22q-14 0 -32 -18l-7 -14q-6 -12 -6 -32q0 -23 11 -42q12 -22 34 -22q20 0 33 23 q11 19 11 41z" />
<glyph unicode="&#xb93;" horiz-adv-x="686" d="M653 194q0 -77 -28 -129q-36 -65 -106 -65q-45 0 -75 35q-33 38 -31 86l1 20q-12 -33 -12 -66q0 -56 29.5 -88.5t84.5 -32.5h37v-51h-16q-39 0 -47 -42q0 -60 -59 -95q-50 -30 -113 -30t-106 26q-52 31 -52 90q0 48 33 76.5t81 28.5q60 0 94 -39q25 -29 25 -66h-48 q-18 52 -70 52q-62 0 -62 -57q0 -29 27 -47q24 -15 55 -15q67 0 92 22q11 9 23 50q6 40 42 58q-47 12 -75 62q-26 45 -26 97q0 120 98 178l26 -35q-24 -32 -24 -93q0 -63 54 -63q66 0 66 127q0 95 -73 152q-67 53 -164 53h-23q-116 0 -179 -72q-47 -53 -47 -130 q0 -47 12 -65v4l-1 4q0 49 24 79q25 34 73 34q53 0 79 -43q19 -31 19 -75q0 -56 -30 -91t-85 -35q-66 0 -106 60q-35 52 -35 122q0 122 85 197q79 70 206 70h33q117 0 202 -70q92 -74 92 -188zM229 129q0 24 -10 42q-12 22 -34 22q-14 0 -32 -18l-7 -14q-6 -12 -6 -32 q0 -23 11 -42q12 -22 34 -22q20 0 33 23q11 19 11 41z" />
<glyph unicode="&#xb94;" horiz-adv-x="1497" d="M653 194q0 -77 -28 -129q-36 -65 -106 -65q-45 0 -75 35q-33 38 -31 86l1 20q-12 -33 -12 -66q0 -56 29.5 -88.5t84.5 -32.5h37v-51h-16q-39 0 -47 -42q0 -59 -56 -94q-48 -31 -110 -31q-65 0 -108 30q-49 34 -49 96q0 48 30 72l38 -32q-15 -18 -15 -50t30 -51 q26 -16 60 -16q52 0 76 23q12 11 26 56q11 36 40 51q-47 12 -75 62q-26 45 -26 97q0 120 98 178l26 -35q-24 -32 -24 -93q0 -63 54 -63q66 0 66 127q0 95 -73 152q-67 53 -164 53h-23q-116 0 -179 -72q-47 -53 -47 -130q0 -47 12 -65v4l-1 4q0 49 24 79q25 34 73 34 q53 0 79 -43q19 -31 19 -75q0 -56 -30 -91t-85 -35q-66 0 -106 60q-35 52 -35 122q0 122 85 197q79 70 206 70h33q117 0 202 -70q92 -74 92 -188zM229 129q0 24 -10 42q-12 22 -34 22q-14 0 -32 -18l-7 -14q-6 -12 -6 -32q0 -23 11 -42q12 -22 34 -22q20 0 33 23 q11 19 11 41zM1459 391h-94v-391h-85v391h-129v-391h-85v198q0 193 -165 193q-61 0 -106 -48q-41 -45 -49 -108l26 23q32 20 70 20q56 0 94 -40t38 -96q0 -62 -34 -103q-37 -44 -97 -44q-62 0 -103 45q-49 54 -49 162q0 91 60 165q66 82 170 82q122 0 182 -79v71h356v-50z M892 137q0 33 -18 58q-20 29 -51 29t-50 -27.5t-19 -59.5q0 -33 18 -58q20 -29 51 -29t51 29q18 25 18 58z" />
<glyph unicode="&#xb95;" horiz-adv-x="640" d="M605 140q0 -69 -52 -107q-45 -33 -117 -33q-69 0 -110 37q-52 -37 -136 -37q-64 0 -109 36q-48 39 -48 101q0 99 91 124v180h414v-50h-155v-125h84q63 0 100.5 -33t37.5 -93zM519 146q0 32 -19.5 50.5t-51.5 18.5h-65v-63q0 -43 -23 -78q22 -22 67 -22q39 0 65.5 27.5 t26.5 66.5zM297 266v125h-123v-125h123zM297 167v48h-131q-82 0 -82 -80q0 -36 29 -59t66 -23q52 0 85 31t33 83z" />
<glyph unicode="&#xb99;" horiz-adv-x="767" d="M723 0h-489v51h141q93 0 93 109q0 82 -87 82q-56 0 -73 -63v-71h-74v283h-134v-391h-50v441h414v-50h-156v-128q40 31 92 31q64 0 105 -36t41 -99q0 -31 -14 -62q-17 -35 -42 -46h147v390h86v-441z" />
<glyph unicode="&#xb9a;" horiz-adv-x="590" d="M557 215h-174v-63q0 -57 -42 -101q-49 -51 -151 -51q-64 0 -109 36q-48 39 -48 101q0 99 91 124v180h414v-50h-155v-125h174v-51zM297 266v125h-123v-125h123zM297 167v48h-131q-82 0 -82 -80q0 -36 29 -59t66 -23q52 0 85 31t33 83z" />
<glyph unicode="&#xb9c;" horiz-adv-x="794" d="M750 267q0 -104 -61.5 -158t-166.5 -54l-264 -1q-125 0 -125 -112q0 -48 32 -75q29 -25 78 -25q54 0 78 17q31 21 56 80q43 99 187 99q177 0 177 -131q0 -54 -37 -83.5t-92 -29.5q-71 0 -95 68q-7 28 -7 46q0 60 28 82q-100 0 -126 -90q-17 -59 -74 -85q-48 -22 -108 -22 q-77 0 -127 38q-56 42 -56 117q0 80 53 120q47 36 129 36h292q80 0 114 44q29 38 29 120q0 124 -102 124q-51 0 -77 -47q-22 -38 -22 -93v-96h-92v111q0 65 -57 104q-42 22 -87 22q-48 0 -76 -14q-8 -4 -31 -27q33 9 41 9q51 0 80.5 -31t29.5 -82q0 -57 -39 -92 q-29 -26 -77 -26q-52 0 -83 45q-27 40 -27 94q0 79 51.5 127t130.5 48q167 0 210 -92q38 92 152 92q78 0 121 -50q40 -47 40 -127zM656 -86q0 25 -11 45q-14 23 -37 23q-20 0 -34 -20q-13 -24 -13 -48q0 -25 11 -45q13 -24 36 -24q24 0 37 24q11 20 11 45zM194 247 q0 24 -12.5 44t-35.5 20q-22 0 -35 -20.5t-13 -43.5q0 -25 11 -43q14 -21 37 -21q22 0 36 22q12 19 12 42z" />
<glyph unicode="&#xb9e;" horiz-adv-x="907" d="M863 115q0 -166 -125 -250q-107 -72 -283 -72q-191 0 -301 106q-113 108 -113 297q0 68 17 127q21 72 57 113l36 -36q-18 -15 -37 -70l-16 -65q-6 -24 -6 -66q0 -163 95 -257.5t259 -94.5q327 0 327 268q0 115 -64 115q-15 0 -38 -21q-17 -22 -17 -52v-157h-86v391h-156 q-66 0 -110 -43t-53 -110l25 19q28 17 63 17q120 0 135 -127q0 -64 -34 -107q-37 -46 -100 -46q-75 0 -113 70q-31 57 -31 138q0 103 63 171t166 68h300v-50h-69v-129q32 19 61 19q35 0 61 -8q23 -8 41 -25q46 -42 46 -133zM392 134q0 32 -18 60.5t-48 28.5t-49 -31 q-16 -26 -16 -58t16 -59q19 -30 49 -30q29 0 50 30q16 29 16 59z" />
<glyph unicode="&#xb9f;" horiz-adv-x="612" d="M568 0h-518v441h86v-390h432v-51z" />
<glyph unicode="&#xba3;" horiz-adv-x="1233" d="M1198 390h-82v-390h-86v390h-69q-54 0 -105 -24q78 -75 78 -181q0 -69 -25 -120q-31 -64 -95 -64q-63 0 -94 64q-24 49 -24 120q0 102 66 174q-62 37 -118 37q-47 0 -109 -30q79 -73 79 -181q0 -70 -25 -120q-32 -64 -95 -64q-86 0 -112 119q-7 31 -7 65q0 95 66 173 q-62 39 -139 39q-75 0 -130.5 -43.5t-74.5 -116.5q36 41 97 41q57 0 94 -41t37 -98q0 -60 -36 -102t-95 -42q-79 0 -119 63q-34 53 -34 137q0 116 86 188q81 68 200 68q91 0 165 -50q71 47 157 47q91 0 164 -47q66 40 138 40h247v-51zM851 185q0 78 -51 140 q-53 -56 -53 -140q0 -38 9 -71q13 -49 44 -49q16 0 34 27q17 34 17 93zM531 185q0 77 -51 139q-53 -53 -53 -139q0 -38 9 -71q13 -49 44 -49q16 0 34 27q17 34 17 93zM243 137q0 33 -18 58q-20 29 -51 29t-50 -27.5t-19 -59.5q0 -33 18 -58q20 -29 51 -29t51 29q18 25 18 58 z" />
<glyph unicode="&#xba4;" horiz-adv-x="652" d="M609 96q0 -99 -80 -152q-43 -28 -114 -37q-24 -3 -47 -3h-194q-85 0 -85 -47q0 -29 34 -29q20 0 34 -12.5t14 -32.5q0 -19 -14.5 -33t-33.5 -14q-44 0 -67.5 28.5t-23.5 72.5q0 58 48 89q39 25 102 25h185q71 0 113.5 38t42.5 108q0 118 -106 118h-34v-63q0 -57 -42 -101 q-49 -51 -151 -51q-64 0 -109 36q-48 39 -48 101q0 99 91 124v180h414v-50h-155v-125h43q85 0 134 -43t49 -127zM297 266v125h-123v-125h123zM297 167v48h-131q-82 0 -82 -80q0 -36 29 -59t66 -23q52 0 85 31t33 83z" />
<glyph unicode="&#xba8;" horiz-adv-x="621" d="M571 96q0 -99 -80 -152q-61 -40 -160 -40h-174q-86 0 -86 -47q0 -29 34 -29q19 0 34 -13t15 -32q0 -20 -14.5 -33.5t-34.5 -13.5q-44 0 -67.5 28.5t-23.5 72.5q0 58 48 89q39 25 103 25h164q115 0 147 87q10 28 10 59q0 115 -95 115q-70 0 -70 -69v-143h-87v391h-134 v-391h-50v441h438v-50h-167v-158q25 37 100 37t114 -51q36 -45 36 -123z" />
<glyph unicode="&#xba9;" horiz-adv-x="914" d="M878 390h-82v-390h-86v390h-70q-50 0 -104 -24q78 -75 78 -181q0 -70 -25 -120q-32 -64 -95 -64q-86 0 -112 119q-7 31 -7 65q0 95 66 173q-62 39 -139 39q-75 0 -130.5 -43.5t-74.5 -116.5q36 41 97 41q57 0 94 -41t37 -98q0 -60 -36 -102t-95 -42q-79 0 -119 63 q-34 53 -34 137q0 116 86 188q81 68 200 68q87 0 165 -51q62 41 139 41h247v-51zM531 185q0 77 -51 139q-53 -53 -53 -139q0 -38 9 -71q13 -49 44 -49q16 0 34 27q17 34 17 93zM243 137q0 33 -18 58q-20 29 -51 29t-50 -27.5t-19 -59.5q0 -33 18 -58q20 -29 51 -29t51 29 q18 25 18 58z" />
<glyph unicode="&#xbaa;" horiz-adv-x="621" d="M566 0h-516v441h86v-390h344v390h86v-441z" />
<glyph unicode="&#xbae;" horiz-adv-x="713" d="M672 189q0 -88 -56 -138.5t-145 -50.5h-421v441h86v-390h166v271q0 122 130 122q97 0 170 -79q70 -78 70 -176zM621 190q0 72 -53 134q-55 66 -125 66q-54 0 -54 -60v-279h67q165 0 165 139z" />
<glyph unicode="&#xbaf;" horiz-adv-x="725" d="M683 0h-418v62q-29 -64 -101 -64q-114 0 -114 143v300h50v-301q0 -45 11 -65q15 -27 56 -27q48 0 76 70q22 56 22 111v212h86v-390h246v390h86v-441z" />
<glyph unicode="&#xbb0;" horiz-adv-x="470" d="M427 391h-106v-425l-261 -173v37l174 170v391h-134v-391h-50v441h377v-50z" />
<glyph unicode="&#xbb1;" horiz-adv-x="623" d="M584 190q0 -139 -76 -212.5t-216 -73.5h-135q-86 0 -86 -47q0 -29 34 -29q19 0 34 -13t15 -32q0 -20 -14.5 -33.5t-34.5 -13.5q-44 0 -67.5 28.5t-23.5 72.5q0 58 48 89q39 25 103 25h125q209 0 209 238q0 203 -106 203q-70 0 -70 -110v-282h-86v287q0 105 -70 105 q-67 0 -67 -105v-287h-50v294q0 76 37 115q33 34 84 34q102 0 120 -79q30 78 114 78q179 0 179 -252z" />
<glyph unicode="&#xbb2;" horiz-adv-x="794" d="M753 244q0 -95 -47 -166q-54 -82 -144 -82q-152 0 -152 165v73q0 73 -37 116q-40 44 -112 44q-67 0 -111 -47q-39 -41 -53 -110q36 41 97 41q57 0 94 -41t37 -98q0 -60 -36 -102t-95 -42q-79 0 -119 63q-34 53 -34 137q0 105 63 177q66 77 169 77q99 0 161.5 -58.5 t62.5 -157.5v-59q0 -63 10 -87q15 -36 64 -36q63 0 100 68q31 57 31 125q0 94 -47 143q-10 10 -65 34q-33 14 -33 49q0 21 30 21q13 0 22 -5q144 -78 144 -242zM243 137q0 33 -18 58q-20 29 -51 29t-50 -27.5t-19 -59.5q0 -33 18 -58q20 -29 51 -29t51 29q18 25 18 58z" />
<glyph unicode="&#xbb3;" horiz-adv-x="839" d="M810 391h-94v-391h-85v391h-129v-391h-85v198q0 193 -165 193q-61 0 -106 -48q-41 -45 -49 -108l26 23q32 20 70 20q56 0 94 -40t38 -96q0 -62 -34 -103q-37 -44 -97 -44q-62 0 -103 45q-49 54 -49 162q0 91 60 165q66 82 170 82q122 0 182 -79v71h356v-50zM243 137 q0 33 -18 58q-20 29 -51 29t-50 -27.5t-19 -59.5q0 -33 18 -58q20 -29 51 -29t51 29q18 25 18 58z" />
<glyph unicode="&#xbb4;" horiz-adv-x="703" d="M672 189q0 -88 -56 -138.5t-145 -50.5h-82v-32q0 -38 52 -38h65v-51h-77q-31 0 -49 -21l-16 -42q-30 -80 -157 -80q-62 0 -102 26q-47 31 -47 90q0 42 26 68t71 26q25 0 49 -14t24 -39q0 -29 -25 -29q-17 0 -24.5 15t-28.5 15q-40 0 -40 -41q0 -66 89 -66q84 0 103 51 l15 40q12 20 37 20q-52 8 -52 65v37h-252v441h86v-390h166v271q0 122 130 122q97 0 170 -79q70 -78 70 -176zM621 190q0 72 -53 134q-55 66 -125 66q-54 0 -54 -60v-279h67q165 0 165 139z" />
<glyph unicode="&#xbb5;" horiz-adv-x="774" d="M741 0h-360v36q49 64 49 173q0 81 -48 131.5t-129 50.5q-61 0 -104 -45.5t-52 -107.5l27 21q36 19 70 19q56 0 93.5 -40.5t37.5 -97.5q0 -60 -36 -102.5t-95 -42.5q-73 0 -116 63q-37 54 -37 132q0 108 63 181q66 78 172 78q103 0 171.5 -69.5t68.5 -173.5 q0 -95 -39 -155h178v390h86v-441zM243 137q0 33 -18 58q-20 29 -51 29t-50 -27.5t-19 -59.5q0 -33 18 -58q20 -29 51 -29t51 29q18 25 18 58z" />
<glyph unicode="&#xbb6;" horiz-adv-x="707" d="M700 107q-40 -96 -119 -94q-77 1 -116 94v300h-187v-344q-31 -66 -143 -62q-121 5 -121 79v385h54v-363q0 -51 70 -55q72 -4 89 55v361h473v-356zM646 107v302h-129v-302q23 -46 64 -48q39 -1 65 48z" />
<glyph unicode="&#xbb7;" horiz-adv-x="991" d="M953 0h-152l-76 -187h-77l76 187h-343v36q49 64 49 173q0 81 -48 131.5t-129 50.5q-61 0 -104 -45.5t-52 -107.5l27 21q36 19 70 19q56 0 93.5 -40.5t37.5 -97.5q0 -60 -36 -102.5t-95 -42.5q-73 0 -116 63q-37 54 -37 132q0 108 63 181q66 78 172 78q103 0 171.5 -69.5 t68.5 -173.5q0 -95 -39 -155h268l23 56l-21 -3q-56 0 -103 38q-61 49 -61 136q0 81 54 128q40 35 99 35q81 0 131 -45q43 -39 43 -95q0 -30 -8 -58q-6 -19 -27 -64l78 50v-229zM830 289q0 91 -107 91q-62 0 -81 -66q-5 -18 -5 -42q0 -55 38 -89q33 -29 77 -29q22 0 38 8 l33 87q7 18 7 40zM900 51v92l-50 -23l-28 -69h78zM243 137q0 33 -18 58q-20 29 -51 29t-50 -27.5t-19 -59.5q0 -33 18 -58q20 -29 51 -29t51 29q18 25 18 58z" />
<glyph unicode="&#xbb8;" horiz-adv-x="1021" d="M986 244q0 -95 -47 -166q-54 -82 -144 -82q-152 0 -152 165v79q0 75 -11 104q-15 40 -56 40q-54 0 -69 -65q-6 -25 -6 -77v-243h-86v238q0 73 -42 113.5t-115 40.5q-61 0 -104 -48q-38 -42 -49 -106q33 41 96 41q54 0 92.5 -42t38.5 -97q0 -60 -36 -102t-95 -42 q-77 0 -117 64q-35 55 -35 136q0 103 60 176q64 78 165 78q147 0 200 -98q24 92 115 92q95 0 124 -65q16 -36 16 -136v-68q0 -62 11 -87q16 -36 64 -36q63 0 100 68q31 57 31 125q0 94 -47 143q-10 10 -65 34q-33 14 -33 49q0 21 30 21q13 0 22 -5q144 -78 144 -242z M251 137q0 33 -18 58q-20 29 -51 29t-50 -27.5t-19 -59.5q0 -33 18 -58q20 -29 51 -29t51 29q18 25 18 58z" />
<glyph unicode="&#xbb9;" horiz-adv-x="1163" d="M1122 190q0 -139 -76 -212.5t-216 -73.5h-636q-85 0 -85 -47q0 -29 33 -29q19 0 34 -13t15 -32q0 -20 -14.5 -33.5t-34.5 -13.5q-44 0 -67.5 28.5t-23.5 72.5q0 59 48 89q40 25 103 25h626q208 0 208 238q0 203 -105 203q-70 0 -70 -110v-282h-86v287q0 105 -70 105 q-67 0 -67 -105v-287h-262v36q49 64 49 173q0 81 -48 131.5t-129 50.5q-61 0 -104 -45.5t-52 -107.5l27 21q36 19 70 19q56 0 93.5 -40.5t37.5 -97.5q0 -60 -36 -102.5t-95 -42.5q-73 0 -116 63q-37 54 -37 132q0 107 63 181q67 78 172 78q103 0 171.5 -69.5t68.5 -173.5 q0 -95 -39 -155h116v243q0 76 37 115q33 34 84 34q102 0 120 -79q30 78 114 78q179 0 179 -252zM238 137q0 33 -18 58q-20 29 -51 29t-50 -27.5t-19 -59.5q0 -34 17 -59q20 -28 52 -28q31 0 51 29q18 25 18 58z" />
<glyph unicode="&#xbbe;" horiz-adv-x="464" d="M446 391h-125v-391h-87v391h-134v-391h-50v441h396v-50z" />
<glyph unicode="&#xbbf;" horiz-adv-x="55" d="M48 0h-50v529q0 68 -39.5 113t-106.5 45q-59 0 -94.5 -37t-35.5 -96q0 -88 76 -113l-77 1q-54 45 -54 133q0 82 53 137t135 55q92 0 145 -70q48 -63 48 -158v-539z" />
<glyph unicode="&#xbc0;" horiz-adv-x="78" d="M60 658q0 -43 -29.5 -68.5t-72.5 -25.5q-41 0 -70 20q-33 23 -33 62q0 26 10 35q-37 -6 -58 -43q-17 -32 -17 -73q0 -40 30 -78.5t68 -47.5h-84q-68 48 -68 135q0 85 50.5 139t134.5 54q56 0 94 -26q45 -30 45 -83zM-2 646q0 11 -15 28q-15 12 -34 12q-16 0 -32.5 -12 t-16.5 -28q-1 -17 15.5 -28t33.5 -11q22 0 36 11q8 10 13 28z" />
<glyph unicode="&#xbc1;" horiz-adv-x="380" d="M344 221h-284v193h-256v57h540v-250zM266 277v137h-125v-137h125z" />
<glyph unicode="&#xbc2;" horiz-adv-x="605" d="M574 290q0 -295 -342 -295q-70 0 -148 49q-72 46 -113 109l35 33q81 -125 226 -125q159 0 219 71q29 34 40 99l3 47v125q0 81 -50 146q-53 71 -132 71q-66 0 -113 -42t-47 -108h205v-250h-283v193h-268v57h268q0 106 74 163q68 53 176 53q107 0 178.5 -75.5t71.5 -183.5 v-137zM277 276v137h-125v-137h125z" />
<glyph unicode="&#xbc6;" horiz-adv-x="687" d="M656 0h-51v298q0 128 -56 207q-64 91 -186 91q-115 0 -184 -81q-64 -75 -64 -194q0 -147 71 -221q53 -55 121 -55q30 0 47 7q-66 26 -66 116q0 57 36.5 97.5t92.5 40.5q67 0 102 -46q28 -36 28 -79q0 -89 -77 -139q-67 -43 -160 -43q-131 0 -209 95q-72 88 -72 223 q0 165 107 260q91 80 209 80q145 0 231 -103q80 -97 80 -245v-309zM470 167q0 31 -18 59.5t-47 28.5q-30 0 -49 -30q-17 -26 -17 -58q0 -33 16 -59q19 -30 50 -30q30 0 49 31q16 26 16 58z" />
<glyph unicode="&#xbc7;" horiz-adv-x="600" d="M567 181q0 -90 -71 -139q-62 -43 -155 -43q-155 0 -233.5 86t-78.5 244t77 242q79 88 235 88q94 0 156 -44q70 -49 70 -139q0 -41 -29 -78q-37 -47 -102 -47q-57 0 -93 40.5t-36 98.5q0 93 70 114l-27 4q-118 0 -180 -83q-55 -74 -55 -196q0 -121 55 -196q63 -83 180 -83 q19 0 27 4q-70 20 -70 114q0 57 36.5 97.5t92.5 40.5q54 0 92.5 -35.5t38.5 -89.5zM490 491q0 32 -18 60.5t-48 28.5t-49 -31q-16 -26 -16 -58t16 -59q19 -30 49 -30q29 0 50 30q16 29 16 59zM490 167q0 31 -17 58q-20 30 -49 30t-47 -28.5t-18 -59.5q0 -32 16 -59 q19 -30 49 -30q29 0 50 30q16 29 16 59z" />
<glyph unicode="&#xbc8;" horiz-adv-x="891" d="M855 221q0 -85 -41 -144q-43 -63 -122 -82l-29 56q107 25 107 174q0 69 -44 117t-113 48q-42 0 -78 -23q79 -74 79 -182q0 -70 -25 -120q-32 -64 -95 -64q-86 0 -112 119q-7 31 -7 65q0 95 66 173q-62 39 -139 39q-75 0 -130.5 -43.5t-74.5 -116.5q36 41 97 41 q57 0 94 -41t37 -98q0 -60 -36 -102t-95 -42q-79 0 -119 63q-34 53 -34 137q0 116 86 188q81 68 200 68q90 0 164 -50q65 45 136 45q99 0 163.5 -63t64.5 -162zM531 185q0 77 -51 139q-53 -53 -53 -139q0 -38 9 -71q13 -49 44 -49q16 0 34 27q17 34 17 93zM243 137 q0 33 -18 58q-20 29 -51 29t-50 -27.5t-19 -59.5q0 -33 18 -58q20 -29 51 -29t51 29q18 25 18 58z" />
<glyph unicode="&#xbca;" horiz-adv-x="1225" d="M656 0h-51v298q0 128 -56 207q-64 91 -186 91q-115 0 -184 -81q-64 -75 -64 -194q0 -147 71 -221q53 -55 121 -55q30 0 47 7q-66 26 -66 116q0 57 36.5 97.5t92.5 40.5q67 0 102 -46q28 -36 28 -79q0 -89 -77 -139q-67 -43 -160 -43q-131 0 -209 95q-72 88 -72 223 q0 165 107 260q91 80 209 80q145 0 231 -103q80 -97 80 -245v-309zM470 167q0 31 -18 59.5t-47 28.5q-30 0 -49 -30q-17 -26 -17 -58q0 -33 16 -59q19 -30 50 -30q30 0 49 31q16 26 16 58zM1176 391h-125v-391h-87v391h-134v-391h-50v441h396v-50z" />
<glyph unicode="&#xbcb;" horiz-adv-x="1088" d="M567 181q0 -90 -71 -139q-62 -43 -155 -43q-155 0 -233.5 86t-78.5 244t77 242q79 88 235 88q94 0 156 -44q70 -49 70 -139q0 -41 -29 -78q-37 -47 -102 -47q-57 0 -93 40.5t-36 98.5q0 93 70 114l-27 4q-118 0 -180 -83q-55 -74 -55 -196q0 -121 55 -196q63 -83 180 -83 q19 0 27 4q-70 20 -70 114q0 57 36.5 97.5t92.5 40.5q54 0 92.5 -35.5t38.5 -89.5zM490 491q0 32 -18 60.5t-48 28.5t-49 -31q-16 -26 -16 -58t16 -59q19 -30 49 -30q29 0 50 30q16 29 16 59zM490 167q0 31 -17 58q-20 30 -49 30t-47 -28.5t-18 -59.5q0 -32 16 -59 q19 -30 49 -30q29 0 50 30q16 29 16 59zM1036 391h-125v-391h-87v391h-134v-391h-50v441h396v-50z" />
<glyph unicode="&#xbcc;" horiz-adv-x="1517" d="M656 0h-51v298q0 128 -56 207q-64 91 -186 91q-115 0 -184 -81q-64 -75 -64 -194q0 -147 71 -221q53 -55 121 -55q30 0 47 7q-66 26 -66 116q0 57 36.5 97.5t92.5 40.5q67 0 102 -46q28 -36 28 -79q0 -89 -77 -139q-67 -43 -160 -43q-131 0 -209 95q-72 88 -72 223 q0 165 107 260q91 80 209 80q145 0 231 -103q80 -97 80 -245v-309zM470 167q0 31 -18 59.5t-47 28.5q-30 0 -49 -30q-17 -26 -17 -58q0 -33 16 -59q19 -30 50 -30q30 0 49 31q16 26 16 58zM1490 391h-94v-391h-85v391h-129v-391h-85v198q0 193 -165 193q-61 0 -106 -48 q-41 -45 -49 -108l26 23q32 20 70 20q56 0 94 -40t38 -96q0 -62 -34 -103q-37 -44 -97 -44q-62 0 -103 45q-49 54 -49 162q0 91 60 165q66 82 170 82q122 0 182 -79v71h356v-50zM923 137q0 33 -18 58q-20 29 -51 29t-50 -27.5t-19 -59.5q0 -33 18 -58q20 -29 51 -29t51 29 q18 25 18 58z" />
<glyph unicode="&#xbcd;" horiz-adv-x="1" d="M-206 597q0 -25 -17.5 -43t-42.5 -18t-42.5 18t-17.5 43t17.5 42.5t42.5 17.5q24 0 42 -18t18 -42z" />
<glyph unicode="&#xbd7;" horiz-adv-x="839" d="M810 391h-94v-391h-85v391h-129v-391h-85v198q0 193 -165 193q-61 0 -106 -48q-41 -45 -49 -108l26 23q32 20 70 20q56 0 94 -40t38 -96q0 -62 -34 -103q-37 -44 -97 -44q-62 0 -103 45q-49 54 -49 162q0 91 60 165q66 82 170 82q122 0 182 -79v71h356v-50zM243 137 q0 33 -18 58q-20 29 -51 29t-50 -27.5t-19 -59.5q0 -33 18 -58q20 -29 51 -29t51 29q18 25 18 58z" />
<glyph unicode="&#xbe6;" horiz-adv-x="497" d="M449 272q0 -101 -52 -182q-60 -93 -156 -93t-156 93q-52 81 -52 182t52 182q60 92 156 92t156 -92q52 -81 52 -182zM408 272q0 81 -42 145q-48 74 -125 74t-125 -74q-42 -64 -42 -145t42 -146q48 -74 125 -74t125 74q42 65 42 146z" />
<glyph unicode="&#xbe7;" horiz-adv-x="688" d="M633 143q1 -56 -45.5 -96t-103.5 -41q-24 0 -68 15v61l29 -12l35 -4q40 0 68.5 19.5t29.5 57.5q1 42 -26 66.5t-70 24.5h-86v-91q0 -70 -53 -109q-47 -35 -120 -36q-82 -1 -142 49q-64 53 -65 133q0 39 23 72q26 37 63 37h23v193h430v-54h-159v-139h110q54 0 90 -45.5 t37 -100.5zM342 289v139h-162v-139h162zM342 168v66h-217q-14 0 -35 -22q-14 -20 -14 -44q-1 -46 51 -82q48 -33 96 -33q119 0 119 115z" />
<glyph unicode="&#xbe8;" horiz-adv-x="836" d="M787 -2h-660q-114 0 -115 84q0 40 32 64q29 22 71 22h127q50 0 95 38q12 10 31 36q1 3 8 16q1 4 5 25q0 68 -42 106t-111 39q-43 1 -90 -23q-59 -30 -62 -77q-2 -31 29 -81q37 -21 37 -44q0 -13 -17 -14q-43 -2 -74 26q-15 14 -27 45t-12 53q-1 87 73 132q24 15 67 27 q57 10 78 10q84 1 144.5 -54t61.5 -139q1 -72 -68 -126q-64 -50 -138 -50h-115q-54 0 -54 -31q0 -29 54 -29h672v-55z" />
<glyph unicode="&#xbe9;" horiz-adv-x="744" d="M690 -2h-458v55h133q84 23 84 127q0 33 -30 56q-26 20 -61 21q-36 1 -71 -34v-92h-55v297h-164v-430h-54v484h418v-54h-145v-133q33 27 78 28q57 1 103.5 -39.5t47.5 -97.5q1 -89 -55 -133l229 -1v-54z" />
<glyph unicode="&#xbea;" horiz-adv-x="733" d="M707 234h-311v-91q0 -70 -53 -109q-47 -35 -120 -36q-82 -1 -142 49q-64 53 -65 133q0 42 21 74q25 35 65 35h23v193h430v-54h-159v-139l256 -1v191h55v-245zM342 289v139h-162v-139h162zM342 168v66h-217q-21 0 -36 -21l-8 -18q0 -12 -5 -27q0 -45 52 -82q47 -33 95 -33 q119 0 119 115z" />
<glyph unicode="&#xbeb;" horiz-adv-x="881" d="M820 47q1 -139 -124 -233q-114 -86 -257 -87q-169 -1 -291 108q-127 114 -132 278l-1 32q-3 86 23 165q34 105 93 153q6 6 15 6q24 0 25 -25l-3 -10q-105 -115 -99 -287l1 -28q6 -160 115 -250q98 -81 249 -82q121 -1 220 67q111 76 112 193q1 60 -30 113q-35 62 -91 63 q-69 1 -108 -75v-150h-55v430h-140v-430h-53v484h387v-54h-139v-213q6 20 48 44q18 10 32 12l33 4q73 0 127 -69q42 -67 43 -159z" />
<glyph unicode="&#xbec;" horiz-adv-x="996" d="M931 238h-98v-240h-55v240h-139v-240h-54v47q0 64 -7 98q1 42 -26 66.5t-70 24.5h-86v-91q0 -70 -53 -109q-47 -35 -120 -36q-82 -1 -142 49q-64 53 -65 133q0 39 23 72q26 37 63 37h23v193h430v-54h-159v-139h110q41 0 79 -35v38h346v-54zM342 289v139h-162v-139h162z M342 168v66h-217q-14 0 -35 -22q-14 -20 -14 -44q-1 -46 51 -82q48 -33 96 -33q119 0 119 115z" />
<glyph unicode="&#xbed;" horiz-adv-x="744" d="M715 416h-180v-418h-60v418h-207q-71 0 -134 -54q-7 -6 -44 -60l-12 -33l-4 -35q45 63 139 65q67 1 109 -38.5t43 -106.5q1 -69 -50 -116q-43 -39 -94 -40q-94 -1 -152 69q-54 66 -55 162q-1 104 74 176t180 72h447v-61zM311 143q0 31 -30 63.5t-60 33.5q-39 1 -71 -28.5 t-33 -68.5q-1 -33 28 -65q27 -21 66 -22q41 -1 70.5 23t29.5 64z" />
<glyph unicode="&#xbee;" horiz-adv-x="1018" d="M961 -160h-53v230h-161q-55 -96 -162 -149q-98 -49 -216 -50q-108 -1 -221 51q-135 62 -136 160q-1 49 78 49h620q16 49 17 103q2 73 -50.5 134.5t-124.5 62.5q-12 0 -50 -9q-13 0 -42 -27q-26 -23 -36 -39q-3 -14 -9 -43q0 -26 16 -43q40 -44 58 -52q5 -2 24 -15 q16 -12 22 -12q3 0 6 3q-1 -14 6 -27q2 -3 11 -15q-1 -2 -3 -3q-8 -7 -18 -7q-11 0 -28 8l-34 16q-32 13 -90 73q-27 37 -28 85q-1 75 71 120q59 37 129 38q102 2 166 -77q59 -71 64 -176l-3 -51q-1 -10 -4 -22l-7 -25h135v340h53v-631zM680 70h-608q21 -66 117 -108 q82 -36 174 -36q95 0 177 34q93 38 140 110z" />
<glyph unicode="&#xbef;" horiz-adv-x="964" d="M908 -2h-144v53q67 28 68 142q0 53 -52 90q-46 33 -102 34q-60 1 -94 -38q52 0 95 -48q30 -42 31 -103q1 -58 -30 -95.5t-88 -38.5q-75 -1 -112 49l-11 20q-4 10 -12 29q-7 28 -8 66q-1 40 17 76h-73v-91q0 -70 -55 -109q-48 -35 -121 -36q-81 -1 -141 49q-64 53 -64 133 q0 42 22 73q25 36 64 36h23v193h430v-54h-158v-139h106q70 85 190 86q81 1 142.5 -64.5t61.5 -147.5q0 -50 -36 -110h45zM648 141q-9 94 -99 95q-10 0 -29 -25q-12 -24 -12 -59q0 -98 80 -99q60 -1 60 88zM338 289v139h-162v-139h162zM338 168v66h-217q-21 0 -36 -21l-8 -18 q0 -12 -5 -27q0 -45 51 -81q47 -34 94 -34q121 0 121 115z" />
<glyph unicode="&#xbf0;" horiz-adv-x="819" d="M763 261q0 -80 -28 -148q-31 -77 -92 -115q-98 -61 -218 -60t-158 62q-11 18 -28 66q-22 -30 -62.5 -50.5t-77.5 -20.5q-85 -1 -85 75v412h54v-380q0 -49 43 -50q41 -1 75 35q30 32 41 75v320l58 1q-2 -58 0 -184q-1 -35 3 -124q8 -82 23 -120q20 -48 68 -55q35 -5 67 -5 q166 0 225 126q31 67 31 144q0 174 -154 274q-71 46 -224 54l-2 54q178 -17 260 -66q61 -37 94 -75q87 -102 87 -245z" />
<glyph unicode="&#xbf1;" horiz-adv-x="738" d="M696 428h-138v-424l-55 2v422h-139v-430h-54v410q-45 11 -88 11q-90 0 -120 -59q-20 -40 -20 -142t22 -220h-54q-21 123 -22 225q-1 171 57 213q43 31 143 31q42 0 82 -5v20h386v-54z" />
<glyph unicode="&#xbf2;" horiz-adv-x="841" d="M803 24q0 -58 -32 -92q-46 -48 -120 -76q-68 -26 -139 -26q-36 0 -108.5 8.5t-108.5 8.5q-62 0 -80 -31q-15 -41 -16 -42q-13 -26 -31 -28q-37 -4 -58 37q-14 27 -14 36q0 19 36 61q19 22 104 22q48 0 145 -7t145 -7q80 0 110 17l81 46q31 23 31 67q0 41 -35 65 q-31 21 -74 22q-29 1 -65 -22v-85h-60v236h-116v-91q0 -70 -53 -109q-47 -35 -120 -36q-82 -1 -142 49q-64 53 -65 133q0 42 21 74q25 35 65 35h23v193h430v-54h-159v-139h231v-55h-55v-90q39 18 74 18q62 0 107 -37q48 -40 48 -101zM346 289v139h-164v-139h164zM346 168v66 h-219q-21 0 -36 -21l-8 -18q0 -12 -5 -27q0 -45 52 -82q47 -33 95 -33q121 0 121 115z" />
<glyph unicode="&#xbf3;" horiz-adv-x="697" d="M641 -2h-319v53q69 29 69 142q0 53 -52 90q-47 34 -102 34q-60 0 -94 -38q51 0 95 -48q31 -43 31 -103q0 -58 -31 -96t-88 -38q-70 0 -112 49q-10 12 -23 49l-5 31l-2 35q-5 90 79 160q68 57 161 57q82 0 143 -65t61 -147q0 -50 -36 -110h225v-55zM207 141 q-11 95 -100 95q-22 0 -33 -33q-8 -25 -8 -52q0 -32 18 -67q22 -31 62 -31q61 0 61 88z" />
<glyph unicode="&#xbf4;" horiz-adv-x="881" d="M854 785q8 -14 -14 -27l-41 -23q44 -37 44 -99q0 -43 -31.5 -74.5t-74.5 -31.5q-42 0 -73 35q-6 7 -14 36l-5 48l1 15l10 23q8 20 31 41l-35 4l-50 3l-37 -1q-20 -1 -33 -14q10 -3 20 -10l20 -25q38 -30 38 -69v-22l-5 -24q0 -11 -16 -25l-30 -27q-18 -12 -41 -12 q-32 0 -60 22.5t-28 54.5l-1 11l-1 17q-4 61 36 109q-63 -18 -85 -49q-2 -2 -17 -55l-2 -20q0 -63 83 -116q83 -12 146 -105q56 -82 56 -182q0 -80 -30 -131q-37 -64 -111 -64h-490v484h54v-429h205v302q0 93 99 122q-21 17 -34 53t-11 65l3 37l4 18l7 18q13 34 43 52l49 20 l34 13l55 10l40 5l44 2q33 2 81 -6l57 -9l49 29q8 5 35 11l15 -1l5 -4zM794 636q0 21 -20.5 39.5t-43.5 18.5q-47 0 -47 -56q0 -24 15 -41t39 -17q18 0 41 18l10 15q6 9 6 23zM565 605q0 23 -14 44l-21 32q-16 24 -36 24q-9 0 -22 -26q-10 -33 -10 -58v-11l2 -12 q0 -53 54 -53q21 0 34 17q13 26 13 43zM592 189q0 83 -43 155q-50 84 -127 84q-53 0 -73.5 -19.5t-20.5 -72.5v-283h176q44 0 69 49q19 39 19 87z" />
<glyph unicode="&#xbf5;" horiz-adv-x="1465" d="M1442 563q0 -21 -4 -31l-15 -39q-12 -31 -37 -55q-29 -29 -58 -29q-37 0 -82 47l-90 93q-48 50 -105 56l-142 16q-133 15 -236 15q-162 0 -276 -41q-134 -49 -225 -161q-30 -38 -67 -131q-37 -96 -37 -141q0 -182 181 -287q152 -88 347 -88q226 0 433 63q226 69 226 171 q0 57 -33 103q-36 51 -91 51q-17 0 -21 -2q-32 0 -74 -42v-133h-53v430h-106l-1 -430h-399v49q58 21 92.5 72.5t34.5 114.5q0 81 -58.5 137.5t-140.5 56.5q-64 0 -122 -41q-62 -43 -71 -104l22 8l20 6q20 6 42 6q65 0 107.5 -47.5t42.5 -112.5q0 -63 -43 -104t-107 -41 q-79 0 -126 58q-44 54 -44 135q0 119 80.5 205t198.5 86q99 0 179.5 -72t80.5 -170q0 -51 -11 -91q-3 -11 -11 -24q-22 -46 -56 -72h233l3 429h359v-54h-146v-219q52 26 97 26q80 0 130 -69q46 -63 46 -145q0 -99 -135 -171q-61 -32 -132 -58q-101 -37 -165 -45l-60 -8 l-65 -4l-88 -3h-68q-229 0 -393 106q-189 122 -189 330q0 69 22 140q23 75 62 128q157 263 592 263q139 0 268 -20l97 -15q65 -10 110 -38q41 -25 86 -79l33 -39q22 -19 43 -19t36 69q15 66 37 62q42 -8 42 -57zM388 145q0 43 -27.5 72t-70.5 29q-40 0 -64.5 -26.5 t-24.5 -67.5q0 -44 25.5 -71.5t69.5 -27.5q38 0 68 27q24 27 24 65z" />
<glyph unicode="&#xbf6;" horiz-adv-x="697" d="M647 -82h-359v-60l-3 -54q-2 -43 -29.5 -67t-71.5 -24q-32 0 -49 6q-9 3 -29 14q-37 20 -63 57q-29 40 -27 79l1 23q0 6 10 30q20 50 113 48l49 -1l49 -2l1 21l-1 -10l-1 20v55q-18 -24 -57 -42q-45 -16 -71 -16q-85 0 -85 75v412h54v-380q0 -50 43 -50q41 0 75 36 q29 30 41 74v320h52v-509h303v509h55v-564zM234 -82l-47 8l-45 3q-58 4 -70 -26q-6 -15 -6 -33q0 -57 62 -92l30 -12l22 -4q27 0 50 42z" />
<glyph unicode="&#xbf7;" horiz-adv-x="1200" d="M1173 1h-462q-81 0 -81 58q0 27 22 44t50 17h89q53 0 89 53q9 13 9 27q0 48 -30 75t-78 27q-37 0 -66 -19q26 0 40 -20l11 -21l4 -25q0 -29 -19 -46.5t-49 -17.5q-25 0 -52 18q-20 18 -20 50q0 33 21 65l-14 6l-41 5q-18 -3 -38 -18q-15 -15 -21 -34v-247h-60v418h-207 q-75 0 -134.5 -54t-59.5 -128q45 65 139 65q67 0 109.5 -39.5t42.5 -105.5q0 -61 -41 -107q-43 -49 -103 -49q-94 0 -152 68q-56 65 -56 160q0 103 76 177t179 74h447v-61h-180v-110q5 12 27 23l25 5l22 2l17 -1q24 -1 57 -21q53 25 98 25q60 0 102 -37.5t42 -97.5 q0 -53 -47 -89q-43 -34 -97 -34h-81q-37 0 -37 -22q0 -20 37 -20h471v-38zM735 221q0 22 -14 30l-19 4q-37 0 -37 -40q0 -32 33 -32q15 0 26 10q5 6 11 28zM313 143q0 31 -30 64t-60 33q-40 0 -72 -29t-32 -68q0 -41 26 -64t68 -23q41 0 70.5 23.5t29.5 63.5z" />
<glyph unicode="&#xbf8;" horiz-adv-x="1430" d="M1386 0h-138v-208h-66v208h-376l18 21l21 35l17 40q13 49 13 93q0 57 -19 89.5t-69 56.5l-31 7l28 -42q19 -38 19 -86q0 -83 -44 -148q-49 -74 -129 -74q-72 0 -109 58q-32 49 -32 125q0 80 97 150q27 20 98 55l-37 53q-46 66 -124 102q-73 33 -158 33q-117 0 -189 -85 q-68 -80 -68 -199v-77q0 -40 18 -73l17 -31l-2 16l-1 11v9q0 69 33 113q36 49 104 49q64 0 103 -46q36 -42 36 -108q0 -75 -45 -115t-121 -40q-96 0 -156 91q-52 79 -52 180q0 169 89 261t257 92q92 0 180 -45.5t136 -121.5l37 -58l52 -8q66 -10 107.5 -62.5t41.5 -120.5 q0 -37 -21 -94l-21 -57h209l-29 19q-51 40 -75 126l-5 28l-2 30q-4 62 32.5 103.5t97.5 41.5q52 0 86 -31.5t34 -83.5v-233h138v-49zM1187 153q7 196 -58 196q-31 0 -50 -27q-18 -33 -15 -83l3 -47q3 -50 84 -118l31 -18q0 -42 5 97zM732 208q0 30 -12 66l-12 36l-12 29 q-140 -94 -140 -165q0 -133 74 -133q52 0 80 61q22 48 22 106zM348 147q0 54 -22.5 78.5t-74.5 24.5q-66 0 -66 -105t80 -105q83 0 83 107z" />
<glyph unicode="&#xbf9;" horiz-adv-x="1229" d="M1194 482l-19 -53h-326l1 24q0 11 10.5 23t21 15.5t22.5 15.5q50 68 47 106l-2 23q-5 56 -61 94q-31 21 -68 21h-18l-13 -4q73 -51 70 -124l-1 -21l-6 -25q-8 -33 -48 -52q-34 -15 -73 -15q-44 0 -82.5 21.5t-38.5 70.5q0 75 70 138q-50 21 -103 21q-50 0 -109 -21 q-98 -35 -172 -96q-48 -39 -110 -124q-82 -112 -78 -312l2 -89q1 -36 18 -73l31 -66q30 -63 86 -111q97 -82 249 -82q120 0 220 68q112 76 112 192q0 61 -30 114q-35 62 -91 62q-69 0 -108 -75v-150h-55v430h-140v-430h-53v484h387v-55l-139 1v-213q6 18 48 44q19 9 32 12 l33 4q85 0 131 -75q39 -63 39 -153q0 -140 -123 -234q-112 -86 -258 -86q-169 0 -291 108q-65 58 -96 122l-36 75q-19 39 -20 81l-1 32l-3 46l-2 62q-7 210 154 374q89 91 184 134q82 37 186 37q94 0 163 -24q37 14 76 14q65 0 115 -31q53 -34 70 -94l4 -23l1 -21 q2 -47 -52 -123l-10 -14h253zM805 622q0 34 -76 91l-4 3q-61 -49 -61 -99q0 -25 19 -43t44 -18q28 0 53 19.5t25 46.5z" />
<glyph unicode="&#xbfa;" horiz-adv-x="1032" d="M1014 482l-19 -53h-326l1 24q0 11 10.5 23t21 15.5t22.5 15.5q50 68 47 106l-2 23q-5 56 -61 94q-31 21 -68 21h-18l-13 -4q73 -51 70 -124l-1 -21l-6 -25q-8 -33 -48 -52q-34 -15 -73 -15q-44 0 -82.5 21.5t-38.5 70.5q0 75 70 138q-49 20 -69 20l-29 -3l-26 -5 q-134 -26 -130 -149l1 -29q0 -13 5 -29l9 -32l14 -31h139v-62h-141v-180l21 11l26 11l27 7l29 2q82 6 139 -73q50 -70 50 -155q0 -110 -77 -196q-104 -115 -310 -115q-66 0 -148 46l53 31l52 -16q20 -6 49 -6q170 0 234 72q82 92 82 179q0 68 -40 120q-43 58 -109 58 q-57 0 -78 -54v-164h-52v422h-153v-422h-54v484h210l-12 30l-11 32q-8 23 -8 56q0 89 87 164q51 35 132 33l42 -1l20 -1q12 -1 24 -4q35 -6 59 -17q37 14 76 14q65 0 115 -31q53 -34 70 -94l4 -23l1 -21q2 -47 -52 -123l-10 -14h253zM625 622q0 34 -76 91l-4 3 q-61 -49 -61 -99q0 -25 19 -43t44 -18q28 0 53 19.5t25 46.5z" />
<glyph unicode="&#x200c;" horiz-adv-x="0" d="M180 700l-199 -995h-40l199 995h40z" />
<glyph unicode="&#x2013;" horiz-adv-x="400" d="M450 250l-10 -50h-400l10 50h400z" />
<glyph unicode="&#x2014;" horiz-adv-x="1000" d="M1050 250l-10 -50h-1000l10 50h1000z" />
<glyph unicode="&#x2018;" horiz-adv-x="288" d="M292 570q-55 -21 -55 -70q21 0 35.5 -14.5t14.5 -35.5t-14.5 -35.5t-35.5 -14.5q-24 0 -38 24q-12 20 -12 46q0 91 85 125z" />
<glyph unicode="&#x2019;" horiz-adv-x="304" d="M296 420q0 -44 -28.5 -79t-71.5 -51l-10 25q50 17 50 85q-22 0 -38.5 14t-16.5 36q0 21 16.5 35.5t38.5 14.5q27 0 45 -27q15 -24 15 -53z" />
<glyph unicode="&#x201c;" horiz-adv-x="448" d="M452 570q-55 -21 -55 -70q21 0 35.5 -14.5t14.5 -35.5t-14.5 -35.5t-35.5 -14.5q-24 0 -38 24q-12 20 -12 46q0 91 85 125zM292 570q-55 -21 -55 -70q21 0 35.5 -14.5t14.5 -35.5t-14.5 -35.5t-35.5 -14.5q-24 0 -38 24q-12 20 -12 46q0 91 85 125z" />
<glyph unicode="&#x201d;" horiz-adv-x="464" d="M456 420q0 -44 -28.5 -79t-71.5 -51l-10 25q50 17 50 85q-22 0 -38.5 14t-16.5 36q0 21 16.5 35.5t38.5 14.5q27 0 45 -27q15 -24 15 -53zM296 420q0 -44 -28.5 -79t-71.5 -51l-10 25q50 17 50 85q-22 0 -38.5 14t-16.5 36q0 21 16.5 35.5t38.5 14.5q27 0 45 -27 q15 -24 15 -53z" />
<glyph unicode="&#x2026;" horiz-adv-x="823" d="M743 50l-10 -50h-93l10 50h93zM468 50l-10 -50h-93l10 50h93zM193 50l-10 -50h-93l10 50h93z" />
<glyph unicode="&#x25cc;" horiz-adv-x="380" d="M340 250l-10 -50h-200l10 50h200z" />
<glyph unicode="&#x25fc;" horiz-adv-x="520" d="M0 520h520v-520h-520v520z" />
<glyph horiz-adv-x="640" d="M394 597q0 -24 -18 -42.5t-42 -18.5q-20 0 -43 18q-17 19 -17 43q0 25 17.5 42.5t42.5 17.5t42.5 -17.5t17.5 -42.5zM605 140q0 -69 -52 -107q-45 -33 -117 -33q-69 0 -110 37q-52 -37 -136 -37q-64 0 -109 36q-48 39 -48 101q0 99 91 124v180h414v-50h-155v-125h84 q63 0 100.5 -33t37.5 -93zM519 146q0 32 -19.5 50.5t-51.5 18.5h-65v-63q0 -43 -23 -78q22 -22 67 -22q39 0 65.5 27.5t26.5 66.5zM297 266v125h-123v-125h123zM297 167v48h-131q-82 0 -82 -80q0 -36 29 -59t66 -23q52 0 85 31t33 83z" />
<glyph horiz-adv-x="767" d="M404 597q0 -24 -18 -42.5t-42 -18.5q-20 0 -43 18q-17 19 -17 43q0 25 17.5 42.5t42.5 17.5t42.5 -17.5t17.5 -42.5zM723 0h-489v51h141q93 0 93 109q0 82 -87 82q-56 0 -73 -63v-71h-74v283h-134v-391h-50v441h414v-50h-156v-128q40 31 92 31q64 0 105 -36t41 -99 q0 -31 -14 -62q-17 -35 -42 -46h147v390h86v-441z" />
<glyph horiz-adv-x="590" d="M404 597q0 -24 -18 -42.5t-42 -18.5q-20 0 -43 18q-17 19 -17 43q0 25 17.5 42.5t42.5 17.5t42.5 -17.5t17.5 -42.5zM557 215h-174v-63q0 -57 -42 -101q-49 -51 -151 -51q-64 0 -109 36q-48 39 -48 101q0 99 91 124v180h414v-50h-155v-125h174v-51zM297 266v125h-123 v-125h123zM297 167v48h-131q-82 0 -82 -80q0 -36 29 -59t66 -23q52 0 85 31t33 83z" />
<glyph horiz-adv-x="907" d="M524 597q0 -24 -18 -42.5t-42 -18.5q-20 0 -43 18q-17 19 -17 43q0 25 17.5 42.5t42.5 17.5t42.5 -17.5t17.5 -42.5zM863 115q0 -166 -125 -250q-107 -72 -283 -72q-191 0 -301 106q-113 108 -113 297q0 68 17 127q21 72 57 113l36 -36q-18 -15 -37 -70l-16 -65 q-6 -24 -6 -66q0 -163 95 -257.5t259 -94.5q327 0 327 268q0 115 -64 115q-15 0 -38 -21q-17 -22 -17 -52v-157h-86v391h-156q-66 0 -110 -43t-53 -110l25 19q28 17 63 17q120 0 135 -127q0 -64 -34 -107q-37 -46 -100 -46q-75 0 -113 70q-31 57 -31 138q0 103 63 171 t166 68h300v-50h-69v-129q32 19 61 19q35 0 61 -8q23 -8 41 -25q46 -42 46 -133zM392 134q0 32 -18 60.5t-48 28.5t-49 -31q-16 -26 -16 -58t16 -59q19 -30 49 -30q29 0 50 30q16 29 16 59z" />
<glyph horiz-adv-x="612" d="M394 597q0 -24 -18 -42.5t-42 -18.5q-20 0 -43 18q-17 19 -17 43q0 25 17.5 42.5t42.5 17.5t42.5 -17.5t17.5 -42.5zM568 0h-518v441h86v-390h432v-51z" />
<glyph horiz-adv-x="1233" d="M704 597q0 -24 -18 -42.5t-42 -18.5q-20 0 -43 18q-17 19 -17 43q0 25 17.5 42.5t42.5 17.5t42.5 -17.5t17.5 -42.5zM1198 390h-82v-390h-86v390h-69q-54 0 -105 -24q78 -75 78 -181q0 -69 -25 -120q-31 -64 -95 -64q-63 0 -94 64q-24 49 -24 120q0 102 66 174 q-62 37 -118 37q-47 0 -109 -30q79 -73 79 -181q0 -70 -25 -120q-32 -64 -95 -64q-86 0 -112 119q-7 31 -7 65q0 95 66 173q-62 39 -139 39q-75 0 -130.5 -43.5t-74.5 -116.5q36 41 97 41q57 0 94 -41t37 -98q0 -60 -36 -102t-95 -42q-79 0 -119 63q-34 53 -34 137 q0 116 86 188q81 68 200 68q91 0 165 -50q71 47 157 47q91 0 164 -47q66 40 138 40h247v-51zM851 185q0 78 -51 140q-53 -56 -53 -140q0 -38 9 -71q13 -49 44 -49q16 0 34 27q17 34 17 93zM531 185q0 77 -51 139q-53 -53 -53 -139q0 -38 9 -71q13 -49 44 -49q16 0 34 27 q17 34 17 93zM243 137q0 33 -18 58q-20 29 -51 29t-50 -27.5t-19 -59.5q0 -33 18 -58q20 -29 51 -29t51 29q18 25 18 58z" />
<glyph horiz-adv-x="652" d="M404 597q0 -24 -18 -42.5t-42 -18.5q-20 0 -43 18q-17 19 -17 43q0 25 17.5 42.5t42.5 17.5t42.5 -17.5t17.5 -42.5zM609 96q0 -99 -80 -152q-43 -28 -114 -37q-24 -3 -47 -3h-194q-85 0 -85 -47q0 -29 34 -29q20 0 34 -12.5t14 -32.5q0 -19 -14.5 -33t-33.5 -14 q-44 0 -67.5 28.5t-23.5 72.5q0 58 48 89q39 25 102 25h185q71 0 113.5 38t42.5 108q0 118 -106 118h-34v-63q0 -57 -42 -101q-49 -51 -151 -51q-64 0 -109 36q-48 39 -48 101q0 99 91 124v180h414v-50h-155v-125h43q85 0 134 -43t49 -127zM297 266v125h-123v-125h123z M297 167v48h-131q-82 0 -82 -80q0 -36 29 -59t66 -23q52 0 85 31t33 83z" />
<glyph horiz-adv-x="621" d="M364 597q0 -24 -18 -42.5t-42 -18.5q-20 0 -43 18q-17 19 -17 43q0 25 17.5 42.5t42.5 17.5t42.5 -17.5t17.5 -42.5zM571 96q0 -99 -80 -152q-61 -40 -160 -40h-174q-86 0 -86 -47q0 -29 34 -29q19 0 34 -13t15 -32q0 -20 -14.5 -33.5t-34.5 -13.5q-44 0 -67.5 28.5 t-23.5 72.5q0 58 48 89q39 25 103 25h164q115 0 147 87q10 28 10 59q0 115 -95 115q-70 0 -70 -69v-143h-87v391h-134v-391h-50v441h438v-50h-167v-158q25 37 100 37t114 -51q36 -45 36 -123z" />
<glyph horiz-adv-x="621" d="M384 597q0 -24 -18 -42.5t-42 -18.5q-20 0 -43 18q-17 19 -17 43q0 25 17.5 42.5t42.5 17.5t42.5 -17.5t17.5 -42.5zM566 0h-516v441h86v-390h344v390h86v-441z" />
<glyph horiz-adv-x="713" d="M394 597q0 -24 -18 -42.5t-42 -18.5q-20 0 -43 18q-17 19 -17 43q0 25 17.5 42.5t42.5 17.5t42.5 -17.5t17.5 -42.5zM672 189q0 -88 -56 -138.5t-145 -50.5h-421v441h86v-390h166v271q0 122 130 122q97 0 170 -79q70 -78 70 -176zM621 190q0 72 -53 134q-55 66 -125 66 q-54 0 -54 -60v-279h67q165 0 165 139z" />
<glyph horiz-adv-x="725" d="M374 597q0 -24 -18 -42.5t-42 -18.5q-20 0 -43 18q-17 19 -17 43q0 25 17.5 42.5t42.5 17.5t42.5 -17.5t17.5 -42.5zM683 0h-418v62q-29 -64 -101 -64q-114 0 -114 143v300h50v-301q0 -45 11 -65q15 -27 56 -27q48 0 76 70q22 56 22 111v212h86v-390h246v390h86v-441z " />
<glyph horiz-adv-x="488" d="M290 597q0 -24 -18 -42.5t-42 -18.5q-23 0 -42 19t-19 42q0 25 18 42.5t43 17.5t42.5 -17.5t17.5 -42.5zM427 391h-106v-425l-261 -173v37l174 170v391h-134v-391h-50v441h377v-50z" />
<glyph horiz-adv-x="794" d="M464 597q0 -24 -18 -42.5t-42 -18.5q-20 0 -43 18q-17 19 -17 43q0 25 17.5 42.5t42.5 17.5t42.5 -17.5t17.5 -42.5zM753 244q0 -95 -47 -166q-54 -82 -144 -82q-152 0 -152 165v73q0 73 -37 116q-40 44 -112 44q-67 0 -111 -47q-39 -41 -53 -110q36 41 97 41 q57 0 94 -41t37 -98q0 -60 -36 -102t-95 -42q-79 0 -119 63q-34 53 -34 137q0 105 63 177q66 77 169 77q99 0 161.5 -58.5t62.5 -157.5v-59q0 -63 10 -87q15 -36 64 -36q63 0 100 68q31 57 31 125q0 94 -47 143q-10 10 -65 34q-33 14 -33 49q0 21 30 21q13 0 22 -5 q144 -78 144 -242zM243 137q0 33 -18 58q-20 29 -51 29t-50 -27.5t-19 -59.5q0 -33 18 -58q20 -29 51 -29t51 29q18 25 18 58z" />
<glyph horiz-adv-x="774" d="M534 597q0 -24 -18 -42.5t-42 -18.5q-20 0 -43 18q-17 19 -17 43q0 25 17.5 42.5t42.5 17.5t42.5 -17.5t17.5 -42.5zM741 0h-360v36q49 64 49 173q0 81 -48 131.5t-129 50.5q-61 0 -104 -45.5t-52 -107.5l27 21q36 19 70 19q56 0 93.5 -40.5t37.5 -97.5q0 -60 -36 -102.5 t-95 -42.5q-73 0 -116 63q-37 54 -37 132q0 108 63 181q66 78 172 78q103 0 171.5 -69.5t68.5 -173.5q0 -95 -39 -155h178v390h86v-441zM243 137q0 33 -18 58q-20 29 -51 29t-50 -27.5t-19 -59.5q0 -33 18 -58q20 -29 51 -29t51 29q18 25 18 58z" />
<glyph horiz-adv-x="703" d="M364 597q0 -24 -18 -42.5t-42 -18.5q-20 0 -43 18q-17 19 -17 43q0 25 17.5 42.5t42.5 17.5t42.5 -17.5t17.5 -42.5zM672 189q0 -88 -56 -138.5t-145 -50.5h-82v-32q0 -38 52 -38h65v-51h-77q-31 0 -49 -21l-16 -42q-30 -80 -157 -80q-62 0 -102 26q-47 31 -47 90 q0 42 26 68t71 26q25 0 49 -14t24 -39q0 -29 -25 -29q-17 0 -24.5 15t-28.5 15q-40 0 -40 -41q0 -66 89 -66q84 0 103 51l15 40q12 20 37 20q-52 8 -52 65v37h-252v441h86v-390h166v271q0 122 130 122q97 0 170 -79q70 -78 70 -176zM621 190q0 72 -53 134q-55 66 -125 66 q-54 0 -54 -60v-279h67q165 0 165 139z" />
<glyph horiz-adv-x="839" d="M504 597q0 -24 -18 -42.5t-42 -18.5q-20 0 -43 18q-17 19 -17 43q0 25 17.5 42.5t42.5 17.5t42.5 -17.5t17.5 -42.5zM810 391h-94v-391h-85v391h-129v-391h-85v198q0 193 -165 193q-62 0 -105 -47q-40 -43 -49 -106q6 10 26 22q28 18 69 18q56 0 94 -40t38 -96 q0 -62 -34 -103q-37 -44 -97 -44q-62 0 -103 45q-49 54 -49 162q0 91 60 165q66 82 170 82q122 0 182 -79v71h356v-50zM243 137q0 33 -18 58q-20 29 -51 29t-50 -27.5t-19 -59.5q0 -33 18 -58q20 -29 51 -29t51 29q18 25 18 58z" />
<glyph horiz-adv-x="623" d="M354 597q0 -24 -18 -42.5t-42 -18.5q-20 0 -43 18q-17 19 -17 43q0 25 17.5 42.5t42.5 17.5t42.5 -17.5t17.5 -42.5zM584 190q0 -139 -76 -212.5t-216 -73.5h-135q-86 0 -86 -47q0 -29 34 -29q19 0 34 -13t15 -32q0 -20 -14.5 -33.5t-34.5 -13.5q-44 0 -67.5 28.5 t-23.5 72.5q0 58 48 89q39 25 103 25h125q209 0 209 238q0 203 -106 203q-70 0 -70 -110v-282h-86v287q0 105 -70 105q-67 0 -67 -105v-287h-50v294q0 76 37 115q33 34 84 34q102 0 120 -79q30 78 114 78q179 0 179 -252z" />
<glyph horiz-adv-x="914" d="M534 597q0 -24 -18 -42.5t-42 -18.5q-20 0 -43 18q-17 19 -17 43q0 25 17.5 42.5t42.5 17.5t42.5 -17.5t17.5 -42.5zM878 390h-82v-390h-86v390h-70q-50 0 -104 -24q78 -75 78 -181q0 -70 -25 -120q-32 -64 -95 -64q-86 0 -112 119q-7 31 -7 65q0 95 66 173 q-62 39 -139 39q-75 0 -130.5 -43.5t-74.5 -116.5q36 41 97 41q57 0 94 -41t37 -98q0 -60 -36 -102t-95 -42q-79 0 -119 63q-34 53 -34 137q0 116 86 188q81 68 200 68q87 0 165 -51q62 41 139 41h247v-51zM531 185q0 77 -51 139q-53 -53 -53 -139q0 -38 9 -71 q13 -49 44 -49q16 0 34 27q17 34 17 93zM243 137q0 33 -18 58q-20 29 -51 29t-50 -27.5t-19 -59.5q0 -33 18 -58q20 -29 51 -29t51 29q18 25 18 58z" />
<glyph horiz-adv-x="707" d="M428 724q0 -20 -13.5 -34t-33.5 -14q-48 0 -48 47q0 48 48 48q17 0 30.5 -14.5t16.5 -32.5zM700 107q-40 -96 -119 -94q-77 1 -116 94v300h-187v-344q-31 -66 -143 -62q-121 5 -121 79v385h54v-363q0 -51 70 -55q72 -4 89 55v361h473v-356zM646 107v302h-129v-302 q23 -46 64 -48q39 -1 65 48z" />
<glyph horiz-adv-x="1021" d="M544 597q0 -24 -18 -42.5t-42 -18.5q-20 0 -43 18q-17 19 -17 43q0 25 17.5 42.5t42.5 17.5t42.5 -17.5t17.5 -42.5zM986 244q0 -95 -47 -166q-54 -82 -144 -82q-152 0 -152 165v79q0 75 -11 104q-15 40 -56 40q-54 0 -69 -65q-6 -25 -6 -77v-243h-86v238q0 73 -42 113.5 t-115 40.5q-61 0 -104 -48q-38 -42 -49 -106q33 41 96 41q54 0 92.5 -42t38.5 -97q0 -60 -36 -102t-95 -42q-77 0 -117 64q-35 55 -35 136q0 103 60 176q64 78 165 78q147 0 200 -98q24 92 115 92q95 0 124 -65q16 -36 16 -136v-68q0 -62 11 -87q16 -36 64 -36q63 0 100 68 q31 57 31 125q0 94 -47 143q-10 10 -65 34q-33 14 -33 49q0 21 30 21q13 0 22 -5q144 -78 144 -242zM251 137q0 33 -18 58q-20 29 -51 29t-50 -27.5t-19 -59.5q0 -33 18 -58q20 -29 51 -29t51 29q18 25 18 58z" />
<glyph horiz-adv-x="991" d="M604 597q0 -24 -18 -42.5t-42 -18.5q-20 0 -43 18q-17 19 -17 43q0 25 17.5 42.5t42.5 17.5t42.5 -17.5t17.5 -42.5zM953 0h-152l-76 -187h-77l76 187h-343v36q49 64 49 173q0 81 -48 131.5t-129 50.5q-61 0 -104 -45.5t-52 -107.5l27 21q36 19 70 19q56 0 93.5 -40.5 t37.5 -97.5q0 -60 -36 -102.5t-95 -42.5q-73 0 -116 63q-37 54 -37 132q0 108 63 181q66 78 172 78q103 0 171.5 -69.5t68.5 -173.5q0 -95 -39 -155h268l23 56l-21 -3q-56 0 -103 38q-61 49 -61 136q0 81 54 128q40 35 99 35q81 0 131 -45q43 -39 43 -95q0 -30 -8 -58 q-6 -19 -27 -64l78 50v-229zM830 289q0 91 -107 91q-62 0 -81 -66q-5 -18 -5 -42q0 -55 38 -89q33 -29 77 -29q22 0 38 8l33 87q7 18 7 40zM900 51v92l-50 -23l-28 -69h78zM243 137q0 33 -18 58q-20 29 -51 29t-50 -27.5t-19 -59.5q0 -33 18 -58q20 -29 51 -29t51 29 q18 25 18 58z" />
<glyph horiz-adv-x="794" d="M514 597q0 -24 -18 -42.5t-42 -18.5q-20 0 -43 18q-17 19 -17 43q0 25 17.5 42.5t42.5 17.5t42.5 -17.5t17.5 -42.5zM750 267q0 -104 -61.5 -158t-166.5 -54l-264 -1q-125 0 -125 -112q0 -48 32 -75q29 -25 78 -25q54 0 78 17q31 21 56 80q43 99 187 99q177 0 177 -131 q0 -54 -37 -83.5t-92 -29.5q-71 0 -95 68q-7 28 -7 46q0 60 28 82q-100 0 -126 -90q-17 -59 -74 -85q-48 -22 -108 -22q-77 0 -127 38q-56 42 -56 117q0 80 53 120q47 36 129 36h292q80 0 114 44q29 38 29 120q0 124 -102 124q-51 0 -77 -47q-22 -38 -22 -93v-96h-92v111 q0 65 -57 104q-42 22 -87 22q-48 0 -76 -14q-8 -4 -31 -27q33 9 41 9q51 0 80.5 -31t29.5 -82q0 -57 -39 -92q-29 -26 -77 -26q-52 0 -83 45q-27 40 -27 94q0 79 51.5 127t130.5 48q167 0 210 -92q38 92 152 92q78 0 121 -50q40 -47 40 -127zM656 -86q0 25 -11 45 q-14 23 -37 23q-20 0 -34 -20q-13 -24 -13 -48q0 -25 11 -45q13 -24 36 -24q24 0 37 24q11 20 11 45zM194 247q0 24 -12.5 44t-35.5 20q-22 0 -35 -20.5t-13 -43.5q0 -25 11 -43q14 -21 37 -21q22 0 36 22q12 19 12 42z" />
<glyph horiz-adv-x="1163" d="M644 597q0 -24 -18 -42.5t-42 -18.5q-20 0 -43 18q-17 19 -17 43q0 25 17.5 42.5t42.5 17.5t42.5 -17.5t17.5 -42.5zM1122 190q0 -139 -76 -212.5t-216 -73.5h-636q-85 0 -85 -47q0 -29 33 -29q19 0 34 -13t15 -32q0 -20 -14.5 -33.5t-34.5 -13.5q-44 0 -67.5 28.5 t-23.5 72.5q0 59 48 89q40 25 103 25h626q208 0 208 238q0 203 -105 203q-70 0 -70 -110v-282h-86v287q0 105 -70 105q-67 0 -67 -105v-287h-262v36q49 64 49 173q0 81 -48 131.5t-129 50.5q-61 0 -104 -45.5t-52 -107.5l27 21q36 19 70 19q56 0 93.5 -40.5t37.5 -97.5 q0 -60 -36 -102.5t-95 -42.5q-73 0 -116 63q-37 54 -37 132q0 107 63 181q67 78 172 78q103 0 171.5 -69.5t68.5 -173.5q0 -95 -39 -155h116v243q0 76 37 115q33 34 84 34q102 0 120 -79q30 78 114 78q179 0 179 -252zM238 137q0 33 -18 58q-20 29 -51 29t-50 -27.5 t-19 -59.5q0 -34 17 -59q20 -28 52 -28q31 0 51 29q18 25 18 58z" />
<glyph horiz-adv-x="763" d="M728 0h-50v529q0 69 -39 113.5t-107 44.5q-59 0 -94.5 -37t-35.5 -96q0 -88 76 -113h60v-50h-155v-125h84q63 0 100.5 -33t37.5 -93q0 -69 -52 -107q-45 -33 -117 -33q-69 0 -110 37q-52 -37 -136 -37q-64 0 -109 36q-48 39 -48 101q0 99 91 124v180h275q-52 44 -52 134 q0 82 53 137t135 55q92 0 145 -70q48 -63 48 -158v-539zM519 146q0 32 -19.5 50.5t-51.5 18.5h-65v-63q0 -43 -23 -78q22 -22 67 -22q39 0 65.5 27.5t26.5 66.5zM297 266v125h-123v-125h123zM297 167v48h-131q-82 0 -82 -80q0 -36 29 -59t66 -23q52 0 85 31t33 83z" />
<glyph horiz-adv-x="767" d="M866 0h-50v445q0 108 -26 163q-37 79 -132 79q-61 0 -100 -50q-37 -46 -37 -108q0 -100 68 -136q23 -12 48 -12v60h86v-441h-489v51h141q93 0 93 109q0 82 -87 82q-56 0 -73 -63v-71h-74v283h-134v-391h-50v441h414v-50h-156v-128q40 31 92 31q64 0 105 -36t41 -99 q0 -31 -14 -62q-17 -35 -42 -46h147v287q-77 0 -124 64q-43 58 -43 137q0 91 49 156q53 72 141 72q206 0 206 -314v-453z" />
<glyph horiz-adv-x="683" d="M648 0h-49v529q0 69 -39 113.5t-107 44.5q-59 0 -94.5 -37t-35.5 -96q0 -88 76 -113h139v-50h-155v-125h138v-51h-138v-63q0 -57 -42 -101q-49 -51 -151 -51q-64 0 -109 36q-48 39 -48 101q0 99 91 124v180h196q-52 44 -52 134q0 82 53 137t135 55q92 0 144 -70 q48 -63 48 -158v-539zM297 266v125h-123v-125h123zM297 167v48h-131q-82 0 -82 -80q0 -36 29 -59t66 -23q52 0 85 31t33 83z" />
<glyph horiz-adv-x="907" d="M933 2h-50v529q0 67 -38 112q-41 46 -107 46q-59 0 -94.5 -37t-35.5 -96q0 -93 77 -115h38v-50h-69v-129q32 19 61 19q35 0 61 -8q23 -8 41 -25q46 -42 46 -133q0 -166 -125 -250q-107 -72 -283 -72q-191 0 -301 106q-113 108 -113 297q0 68 17 127q21 72 57 113l36 -36 q-18 -15 -37 -70l-16 -65q-6 -24 -6 -66q0 -163 95 -257.5t259 -94.5q327 0 327 268q0 115 -64 115q-15 0 -38 -21q-17 -22 -17 -52v-157h-86v391h-156q-66 0 -110 -43t-53 -110l25 19q28 17 63 17q120 0 135 -127q0 -64 -34 -107q-37 -46 -100 -46q-75 0 -113 70 q-31 57 -31 138q0 103 63 171t166 68h185q-55 46 -55 136q0 82 53 137t135 55q92 0 144 -70q48 -63 48 -158v-539zM392 134q0 32 -18 60.5t-48 28.5t-49 -31q-16 -26 -16 -58t16 -59q19 -30 49 -30q29 0 50 30q16 29 16 59z" />
<glyph horiz-adv-x="672" d="M641 0h-110l-48 -206h-88l47 206h-392v441h86v-390h223q-43 17 -71 71q-25 49 -25 100q0 84 48 143q51 64 133 64q65 0 107 -35t42 -99q0 -22 -6 -48l-45 -196h99v-51zM508 304q0 31 -19.5 52.5t-52.5 21.5q-53 0 -89 -51q-33 -46 -33 -101q0 -78 55 -126q38 -33 86 -40 l49 211z" />
<glyph horiz-adv-x="1343" d="M1300 0h-50v529q0 64 -33 109q-36 49 -98 49q-59 0 -94 -37t-35 -96q0 -87 75 -113h132v-51h-81v-390h-86v390h-69q-54 0 -105 -24q78 -75 78 -181q0 -69 -25 -120q-31 -64 -95 -64q-63 0 -94 64q-24 49 -24 120q0 102 66 174q-62 37 -118 37q-47 0 -109 -30 q79 -73 79 -181q0 -70 -25 -120q-32 -64 -95 -64q-86 0 -112 119q-7 31 -7 65q0 95 66 173q-62 39 -139 39q-75 0 -130.5 -43.5t-74.5 -116.5q36 41 97 41q57 0 94 -41t37 -98q0 -60 -36 -102t-95 -42q-79 0 -119 63q-34 53 -34 137q0 116 86 188q81 68 200 68q91 0 165 -50 q71 47 157 47q91 0 164 -47q66 40 138 40h35q-52 44 -52 134q0 82 51.5 137t132.5 55q86 0 137 -73q45 -65 45 -155v-539zM851 185q0 78 -51 140q-53 -56 -53 -140q0 -38 9 -71q13 -49 44 -49q16 0 34 27q17 34 17 93zM531 185q0 77 -51 139q-53 -53 -53 -139q0 -38 9 -71 q13 -49 44 -49q16 0 34 27q17 34 17 93zM243 137q0 33 -18 58q-20 29 -51 29t-50 -27.5t-19 -59.5q0 -33 18 -58q20 -29 51 -29t51 29q18 25 18 58z" />
<glyph horiz-adv-x="767" d="M733 0h-50v529q0 69 -39 113.5t-107 44.5q-59 0 -94.5 -37t-35.5 -96q0 -88 76 -113h55v-50h-155v-125h43q85 0 134 -43t49 -127q0 -99 -80 -152q-43 -28 -114 -37q-24 -3 -47 -3h-194q-85 0 -85 -47q0 -29 34 -29q20 0 34 -12.5t14 -32.5q0 -19 -14.5 -33t-33.5 -14 q-44 0 -67.5 28.5t-23.5 72.5q0 58 48 89q39 25 102 25h185q71 0 113.5 38t42.5 108q0 118 -106 118h-34v-63q0 -57 -42 -101q-49 -51 -151 -51q-64 0 -109 36q-48 39 -48 101q0 99 91 124v180h280q-52 44 -52 134q0 82 53 137t135 55q92 0 145 -70q48 -63 48 -158v-539z M297 266v125h-123v-125h123zM297 167v48h-131q-82 0 -82 -80q0 -36 29 -59t66 -23q52 0 85 31t33 83z" />
<glyph horiz-adv-x="731" d="M688 0h-50v529q0 67 -38 112q-41 46 -107 46q-59 0 -94.5 -37t-35.5 -96q0 -87 75 -113h26v-50h-143v-158q25 37 100 37t114 -51q36 -45 36 -123q0 -99 -80 -152q-61 -40 -160 -40h-174q-86 0 -86 -47q0 -29 34 -29q19 0 34 -13t15 -32q0 -20 -14.5 -33.5t-34.5 -13.5 q-44 0 -67.5 28.5t-23.5 72.5q0 58 48 89q39 25 103 25h164q115 0 147 87q10 28 10 59q0 115 -95 115q-70 0 -70 -69v-143h-87v391h-134v-391h-50v441h310q-52 44 -52 134q0 82 53 137t135 55q92 0 144 -70q48 -63 48 -158v-539z" />
<glyph horiz-adv-x="743" d="M700 0h-51v445q0 107 -26 163q-37 79 -131 79q-63 0 -100.5 -46.5t-37.5 -111.5q0 -64 30 -104q34 -44 96 -44v60h86v-441h-516v441h86v-390h344v287q-81 0 -131 61q-46 57 -46 140q0 91 49 156q54 72 142 72q206 0 206 -314v-453z" />
<glyph horiz-adv-x="833" d="M786 0h-50v529q0 71 -41 114.5t-111 43.5q-60 0 -99 -40t-39 -100q0 -49 16 -75q10 -17 44 -41q72 -27 119 -96t47 -146q0 -88 -56 -138.5t-145 -50.5h-421v441h86v-390h166v271q0 122 125 122q-32 35 -32 111q0 89 51 149q55 63 142 63q95 0 149 -68q49 -63 49 -160 v-539zM621 190q0 72 -53 134q-55 66 -125 66q-54 0 -54 -60v-279h67q165 0 165 139z" />
<glyph horiz-adv-x="861" d="M816 0h-50v445q0 108 -26 163q-37 79 -132 79q-61 0 -100 -50q-37 -46 -37 -108q0 -64 30 -104q34 -44 96 -44v60h86v-441h-418v62q-29 -64 -101 -64q-114 0 -114 143v300h50v-301q0 -45 11 -65q15 -27 56 -27q48 0 76 70q22 56 22 111v212h86v-390h246v287 q-81 0 -131 61q-46 57 -46 140q0 91 49 156q53 72 141 72q206 0 206 -314v-453z" />
<glyph horiz-adv-x="572" d="M533 -4h-50v533q0 64 -33 109q-36 49 -98 49q-59 0 -94 -37t-35 -96q0 -80 54 -113h150v-50h-106v-425l-261 -173v37l174 170v391h-134v-391h-50v441h159q-42 46 -42 134q0 82 51.5 137t132.5 55q86 0 137 -73q45 -65 45 -155v-543z" />
<glyph horiz-adv-x="891" d="M845 0h-50v445q0 108 -26 163q-37 79 -132 79q-61 0 -100 -50q-37 -46 -37 -108q0 -63 30 -103q34 -45 95 -45q19 0 31 4q-13 16 -66 36q-33 13 -33 49q0 21 30 21q13 0 22 -5q144 -78 144 -242q0 -95 -47 -166q-54 -82 -144 -82q-152 0 -152 165v73q0 73 -37 116 q-40 44 -112 44q-67 0 -111 -47q-39 -41 -53 -110q36 41 97 41q57 0 94 -41t37 -98q0 -60 -36 -102t-95 -42q-79 0 -119 63q-34 53 -34 137q0 105 63 177q66 77 169 77q99 0 161.5 -58.5t62.5 -157.5v-59q0 -63 10 -87q15 -36 64 -36q63 0 100 68q31 57 31 125q0 64 -22 105 q-25 -11 -55 -11q-63 0 -113 43q-63 54 -63 158q0 92 48 156q53 72 142 72q206 0 206 -314v-453zM243 137q0 33 -18 58q-20 29 -51 29t-50 -27.5t-19 -59.5q0 -33 18 -58q20 -29 51 -29t51 29q18 25 18 58z" />
<glyph horiz-adv-x="914" d="M875 0h-50v445q0 108 -26 163q-37 79 -132 79q-61 0 -100 -50q-37 -46 -37 -108q0 -63 30 -103q34 -45 95 -45v60h86v-441h-360v36q49 64 49 173q0 81 -48 131.5t-129 50.5q-61 0 -104 -45.5t-52 -107.5l27 21q36 19 70 19q56 0 93.5 -40.5t37.5 -97.5q0 -60 -36 -102.5 t-95 -42.5q-73 0 -116 63q-37 54 -37 132q0 108 63 181q66 78 172 78q103 0 171.5 -69.5t68.5 -173.5q0 -95 -39 -155h178v287q-63 0 -113 43q-63 54 -63 158q0 92 48 156q53 72 142 72q206 0 206 -314v-453zM243 137q0 33 -18 58q-20 29 -51 29t-50 -27.5t-19 -59.5 q0 -33 18 -58q20 -29 51 -29t51 29q18 25 18 58z" />
<glyph horiz-adv-x="833" d="M786 0h-50v529q0 71 -41 114.5t-111 43.5q-60 0 -99 -40t-39 -100q0 -49 16 -75q10 -17 44 -41q72 -27 119 -96t47 -146q0 -88 -56 -138.5t-145 -50.5h-82v-32q0 -38 52 -38h65v-51h-77q-31 0 -49 -21l-16 -42q-30 -80 -157 -80q-62 0 -102 26q-47 31 -47 90q0 42 26 68 t71 26q25 0 49 -14t24 -39q0 -29 -25 -29q-17 0 -24.5 15t-28.5 15q-40 0 -40 -41q0 -66 89 -66q84 0 103 51l15 40q12 20 37 20q-52 8 -52 65v37h-252v441h86v-390h166v271q0 122 125 122q-32 35 -32 111q0 89 51 149q55 63 142 63q95 0 149 -68q49 -63 49 -160v-539z M621 190q0 72 -53 134q-55 66 -125 66q-54 0 -54 -60v-279h67q165 0 165 139z" />
<glyph horiz-adv-x="944" d="M905 0h-49v529q0 64 -33 109q-36 49 -98 49q-59 0 -94.5 -37t-35.5 -96q0 -87 75 -113h140v-50h-94v-391h-85v391h-129v-391h-85v198q0 193 -165 193q-62 0 -105 -47q-40 -43 -49 -106q6 10 26 22q28 18 69 18q56 0 94 -40t38 -96q0 -62 -34 -103q-37 -44 -97 -44 q-62 0 -103 45q-49 54 -49 162q0 91 60 165q66 82 170 82q122 0 182 -79v71h138q-52 44 -52 134q0 81 51.5 136.5t131.5 55.5q86 0 137 -73q45 -65 45 -155v-539zM243 137q0 33 -18 58q-20 29 -51 29t-50 -27.5t-19 -59.5q0 -33 18 -58q20 -29 51 -29t51 29q18 25 18 58z " />
<glyph horiz-adv-x="736" d="M697 0h-50v529q0 72 -40 115t-111 43q-61 0 -100 -39.5t-39 -100.5q0 -73 50 -105q177 0 177 -252q0 -139 -76 -212.5t-216 -73.5h-135q-86 0 -86 -47q0 -29 34 -29q19 0 34 -13t15 -32q0 -20 -14.5 -33.5t-34.5 -13.5q-44 0 -67.5 28.5t-23.5 72.5q0 58 48 89 q39 25 103 25h125q209 0 209 238q0 203 -106 203q-70 0 -70 -110v-282h-86v287q0 105 -70 105q-67 0 -67 -105v-287h-50v294q0 76 37 115q33 34 84 34q102 0 120 -79q15 51 68 70q-53 41 -53 121q0 89 51 149q55 63 142 63q98 0 150 -67q48 -61 48 -161v-539z" />
<glyph horiz-adv-x="1024" d="M982 0h-50v529q0 64 -33 109q-36 49 -98 49q-59 0 -94.5 -37t-35.5 -96q0 -88 76 -113h131v-51h-82v-390h-86v390h-70q-50 0 -104 -24q78 -75 78 -181q0 -70 -25 -120q-32 -64 -95 -64q-86 0 -112 119q-7 31 -7 65q0 95 66 173q-62 39 -139 39q-75 0 -130.5 -43.5 t-74.5 -116.5q36 41 97 41q57 0 94 -41t37 -98q0 -60 -36 -102t-95 -42q-79 0 -119 63q-34 53 -34 137q0 116 86 188q81 68 200 68q87 0 165 -51q62 41 139 41h37q-52 44 -52 134q0 82 51.5 137t132.5 55q87 0 137 -73q45 -65 45 -155v-539zM531 185q0 77 -51 139 q-53 -53 -53 -139q0 -38 9 -71q13 -49 44 -49q16 0 34 27q17 34 17 93zM243 137q0 33 -18 58q-20 29 -51 29t-50 -27.5t-19 -59.5q0 -33 18 -58q20 -29 51 -29t51 29q18 25 18 58z" />
<glyph horiz-adv-x="900" d="M887 -1l-54 -2v520q0 85 -42 142q-47 64 -129 64q-62 0 -110 -38q-52 -40 -52 -101q0 -35 31 -121h170v-356q-40 -96 -119 -94q-77 1 -116 94v300h-187v-344q-31 -66 -143 -62q-121 5 -121 79v385h54v-363q0 -51 70 -55q72 -4 89 55v361h247q-33 75 -33 125q0 87 70 136 q62 44 152 44q109 0 168 -69q55 -65 55 -176v-524zM647 107v302h-129v-302q23 -46 64 -48q39 -1 65 48z" />
<glyph horiz-adv-x="1123" d="M1088 0h-51v445q0 107 -26 163q-37 79 -131 79q-63 0 -102 -49q-36 -45 -36 -109q0 -58 28 -100q33 -48 88 -48h10l23 2l-3 4q-14 14 -65 34q-33 13 -33 49q0 21 30 21q13 0 22 -5q144 -78 144 -242q0 -95 -47 -166q-54 -82 -144 -82q-152 0 -152 165v79q0 75 -11 104 q-15 40 -56 40q-54 0 -69 -65q-6 -25 -6 -77v-243h-86v238q0 73 -42 113.5t-115 40.5q-61 0 -104 -48q-38 -42 -49 -106q33 41 96 41q54 0 92.5 -42t38.5 -97q0 -60 -36 -102t-95 -42q-77 0 -117 64q-35 55 -35 136q0 103 60 176q64 78 165 78q147 0 200 -98q24 92 115 92 q95 0 124 -65q16 -36 16 -136v-68q0 -62 11 -87q16 -36 64 -36q63 0 100 68q31 57 31 125q0 62 -20 102q-28 -8 -47 -8q-63 0 -113 43q-63 54 -63 158q0 92 48 156q53 72 142 72q206 0 206 -314v-453zM251 137q0 33 -18 58q-20 29 -51 29t-50 -27.5t-19 -59.5q0 -33 18 -58 q20 -29 51 -29t51 29q18 25 18 58z" />
<glyph horiz-adv-x="1082" d="M1049 0h-50v529q0 71 -41 114.5t-111 43.5q-60 0 -99 -40t-39 -100q0 -75 54 -108q55 0 101 -40t46 -98q0 -30 -8 -58q-6 -19 -27 -64l78 50v-229h-152l-76 -187h-77l76 187h-343v36q49 64 49 173q0 81 -48 131.5t-129 50.5q-61 0 -104 -45.5t-52 -107.5l27 21 q36 19 70 19q56 0 93.5 -40.5t37.5 -97.5q0 -60 -36 -102.5t-95 -42.5q-73 0 -116 63q-37 54 -37 132q0 108 63 181q66 78 172 78q103 0 171.5 -69.5t68.5 -173.5q0 -95 -39 -155h268l23 56l-21 -3q-56 0 -103 38q-61 49 -61 136q0 134 122 160q-47 39 -47 117q0 89 51 149 q55 63 142 63q95 0 149 -68q49 -63 49 -160v-539zM830 289q0 91 -107 91q-62 0 -81 -66q-5 -18 -5 -42q0 -55 38 -89q33 -29 77 -29q22 0 38 8l33 87q7 18 7 40zM900 51v92l-50 -23l-28 -69h78zM243 137q0 33 -18 58q-20 29 -51 29t-50 -27.5t-19 -59.5q0 -33 18 -58 q20 -29 51 -29t51 29q18 25 18 58z" />
<glyph horiz-adv-x="909" d="M870 0h-50v529q0 72 -40 115t-112 43q-60 0 -99 -40t-39 -100q0 -68 48 -104l11 1q78 0 121 -50q40 -47 40 -127q0 -104 -61.5 -158t-166.5 -54l-264 -1q-125 0 -125 -112q0 -48 32 -75q29 -25 78 -25q54 0 78 17q31 21 56 80q43 99 187 99q177 0 177 -131 q0 -54 -37 -83.5t-92 -29.5q-71 0 -95 68q-7 28 -7 46q0 60 28 82q-100 0 -126 -90q-17 -59 -74 -85q-48 -22 -108 -22q-77 0 -127 38q-56 42 -56 117q0 80 53 120q47 36 129 36h292q80 0 114 44q29 38 29 120q0 124 -102 124q-51 0 -77 -47q-22 -38 -22 -93v-96h-92v111 q0 65 -57 104q-42 22 -87 22q-48 0 -76 -14q-8 -4 -31 -27q33 9 41 9q51 0 80.5 -31t29.5 -82q0 -57 -39 -92q-29 -26 -77 -26q-52 0 -83 45q-27 40 -27 94q0 79 51.5 127t130.5 48q167 0 210 -92q27 65 93 84q-51 39 -51 119q0 89 51 149q55 63 142 63q98 0 150 -67 q48 -61 48 -161v-539zM656 -86q0 25 -11 45q-14 23 -37 23q-20 0 -34 -20q-13 -24 -13 -48q0 -25 11 -45q13 -24 36 -24q24 0 37 24q11 20 11 45zM194 247q0 24 -12.5 44t-35.5 20q-22 0 -35 -20.5t-13 -43.5q0 -25 11 -43q14 -21 37 -21q22 0 36 22q12 19 12 42z" />
<glyph horiz-adv-x="1264" d="M1230 0h-50v529q0 72 -40 115t-111 43q-61 0 -100 -39.5t-39 -100.5q0 -73 50 -105q182 0 182 -252q0 -139 -76 -212.5t-216 -73.5h-636q-85 0 -85 -47q0 -29 33 -29q19 0 34 -13t15 -32q0 -20 -14.5 -33.5t-34.5 -13.5q-44 0 -67.5 28.5t-23.5 72.5q0 59 48 89 q40 25 103 25h626q208 0 208 238q0 203 -105 203q-70 0 -70 -110v-282h-86v287q0 105 -70 105q-67 0 -67 -105v-287h-262v36q49 64 49 173q0 81 -48 131.5t-129 50.5q-61 0 -104 -45.5t-52 -107.5l27 21q36 19 70 19q56 0 93.5 -40.5t37.5 -97.5q0 -60 -36 -102.5t-95 -42.5 q-73 0 -116 63q-37 54 -37 132q0 107 63 181q67 78 172 78q103 0 171.5 -69.5t68.5 -173.5q0 -95 -39 -155h116v243q0 76 37 115q33 34 84 34q102 0 120 -79q15 48 64 69q-54 41 -54 122q0 89 51 149q55 63 142 63q98 0 150 -67q48 -61 48 -161v-539zM238 137q0 33 -18 58 q-20 29 -51 29t-50 -27.5t-19 -59.5q0 -34 17 -59q20 -28 52 -28q31 0 51 29q18 25 18 58z" />
<glyph horiz-adv-x="646" d="M624 658q0 -43 -29 -68.5t-73 -25.5q-42 0 -71 19q-32 23 -32 63q0 21 9 35q-38 -7 -58 -43q-17 -31 -17 -73q0 -44 31 -79q28 -31 72 -45h82v-50h-155v-125h84q63 0 100.5 -33t37.5 -93q0 -69 -52 -107q-45 -33 -117 -33q-69 0 -110 37q-52 -37 -136 -37q-64 0 -109 36 q-48 39 -48 101q0 99 91 124v180h242q-66 47 -66 133q0 92 58 146q51 47 127 47q56 0 94 -26q45 -30 45 -83zM562 646q0 11 -15 28q-15 12 -34 12q-15 0 -35 -12q-9 -8 -14 -28q0 -39 49 -39q41 0 49 39zM519 146q0 32 -19.5 50.5t-51.5 18.5h-65v-63q0 -43 -23 -78 q22 -22 67 -22q39 0 65.5 27.5t26.5 66.5zM297 266v125h-123v-125h123zM297 167v48h-131q-82 0 -82 -80q0 -36 29 -59t66 -23q52 0 85 31t33 83z" />
<glyph horiz-adv-x="836" d="M815 658q0 -43 -29 -68.5t-73 -25.5q-42 0 -71 19q-32 23 -32 63q0 26 9 35q-43 -8 -72 -59q-26 -45 -26 -93q0 -100 68 -136q23 -12 48 -12v60h86v-441h-489v51h141q93 0 93 109q0 82 -87 82q-56 0 -73 -63v-71h-74v283h-134v-391h-50v441h414v-50h-156v-128 q40 31 92 31q64 0 105 -36t41 -99q0 -31 -14 -62q-17 -35 -42 -46h147v284q-78 0 -125 69q-42 60 -42 142q0 93 57.5 157t148.5 64q56 0 94 -26q45 -30 45 -83zM752 646q0 22 -31 36q-9 4 -17 4q-17 0 -31.5 -11.5t-17.5 -28.5q0 -18 15 -28.5t34 -10.5q42 0 48 39z" />
<glyph horiz-adv-x="572" d="M593 658q0 -43 -29 -68.5t-73 -25.5q-42 0 -71 19q-32 23 -32 63q0 21 9 35q-38 -7 -58 -43q-17 -31 -17 -73q0 -93 104 -124h112v-50h-155v-125h138v-51h-138v-63q0 -57 -42 -101q-49 -51 -151 -51q-64 0 -109 36q-48 39 -48 101q0 99 91 124v180h211q-66 47 -66 133 q0 92 58 146q51 47 127 47q56 0 94 -26q45 -30 45 -83zM531 646q0 11 -15 28q-15 12 -34 12q-17 0 -31.5 -11.5t-17.5 -28.5q0 -18 15 -28.5t34 -10.5q41 0 49 39zM297 266v125h-123v-125h123zM297 167v48h-131q-82 0 -82 -80q0 -36 29 -59t66 -23q52 0 85 31t33 83z" />
<glyph horiz-adv-x="907" d="M863 115q0 -166 -125 -250q-107 -72 -283 -72q-191 0 -301 106q-113 108 -113 297q0 68 17 127q21 72 57 113l36 -36q-18 -15 -37 -70l-16 -65q-6 -24 -6 -66q0 -163 95 -257.5t259 -94.5q327 0 327 268q0 115 -64 115q-15 0 -38 -21q-17 -22 -17 -52v-157h-86v391h-156 q-66 0 -110 -43t-53 -110l25 19q28 17 63 17q120 0 135 -127q0 -64 -34 -107q-37 -46 -100 -46q-75 0 -113 70q-31 57 -31 138q0 103 63 171t166 68h139q-65 45 -65 131q0 136 113 180q33 13 72 13q56 0 94 -26q45 -30 45 -83q0 -43 -29 -68.5t-73 -25.5q-46 0 -74.5 24 t-28.5 58q0 21 9 35q-36 -6 -57 -44q-18 -32 -18 -72q0 -93 103 -122h70v-50h-69v-129q32 19 61 19q35 0 61 -8q23 -8 41 -25q46 -42 46 -133zM759 644q0 11 -15 28q-15 12 -34 12q-18 0 -33.5 -11.5t-15.5 -28.5q0 -39 49 -39q41 0 49 39zM392 134q0 32 -18 60.5t-48 28.5 t-49 -31q-16 -26 -16 -58t16 -59q19 -30 49 -30q29 0 50 30q16 29 16 59z" />
<glyph horiz-adv-x="672" d="M642 0h-592v441h86v-390h221q-24 8 -53 45q-41 52 -41 129q0 84 50.5 144t133.5 60q66 0 116 -54q44 -48 44 -108q0 -59 -25 -97q-30 -45 -86 -45q-52 0 -84.5 36t-32.5 88q0 47 23 80q26 38 71 38q-13 11 -40 11q-51 0 -86 -51q-33 -46 -33 -99q0 -146 169 -177h159v-51 zM533 253q-7 65 -60 65q-18 0 -33 -25l-8 -23l-2 -29q6 -65 59 -65q18 0 34 25l8 23z" />
<glyph horiz-adv-x="1233" d="M1258 658q0 -43 -29 -68.5t-73 -25.5q-42 0 -71 19q-32 23 -32 63q0 21 9 35q-38 -7 -58 -43q-17 -31 -17 -73q0 -44 31 -79q28 -31 72 -45h107v-51h-81v-390h-86v390h-69q-54 0 -105 -24q78 -75 78 -181q0 -69 -25 -120q-31 -64 -95 -64q-63 0 -94 64q-24 49 -24 120 q0 102 66 174q-62 37 -118 37q-47 0 -109 -30q79 -73 79 -181q0 -70 -25 -120q-32 -64 -95 -64q-86 0 -112 119q-7 31 -7 65q0 95 66 173q-62 39 -139 39q-75 0 -130.5 -43.5t-74.5 -116.5q36 41 97 41q57 0 94 -41t37 -98q0 -60 -36 -102t-95 -42q-79 0 -119 63 q-34 53 -34 137q0 116 86 188q81 68 200 68q91 0 165 -50q71 47 157 47q91 0 164 -47q66 40 138 40h49q-66 47 -66 133q0 92 58 146q51 47 127 47q56 0 94 -26q45 -30 45 -83zM1196 646q0 11 -15 28q-15 12 -34 12q-15 0 -35 -12q-9 -8 -14 -28q0 -39 49 -39q41 0 49 39z M851 185q0 78 -51 140q-53 -56 -53 -140q0 -38 9 -71q13 -49 44 -49q16 0 34 27q17 34 17 93zM531 185q0 77 -51 139q-53 -53 -53 -139q0 -38 9 -71q13 -49 44 -49q16 0 34 27q17 34 17 93zM243 137q0 33 -18 58q-20 29 -51 29t-50 -27.5t-19 -59.5q0 -33 18 -58 q20 -29 51 -29t51 29q18 25 18 58z" />
<glyph horiz-adv-x="646" d="M624 658q0 -43 -29 -68.5t-73 -25.5q-42 0 -71 19q-32 23 -32 63q0 21 9 35q-38 -7 -58 -43q-17 -31 -17 -73q0 -44 31 -79q28 -31 72 -45h82v-50h-155v-125h43q85 0 134 -43t49 -127q0 -99 -80 -152q-43 -28 -114 -37q-24 -3 -47 -3h-194q-85 0 -85 -47q0 -29 34 -29 q20 0 34 -12.5t14 -32.5q0 -19 -14.5 -33t-33.5 -14q-44 0 -67.5 28.5t-23.5 72.5q0 58 48 89q39 25 102 25h185q71 0 113.5 38t42.5 108q0 118 -106 118h-34v-63q0 -57 -42 -101q-49 -51 -151 -51q-64 0 -109 36q-48 39 -48 101q0 99 91 124v180h242q-66 47 -66 133 q0 92 58 146q51 47 127 47q56 0 94 -26q45 -30 45 -83zM562 646q0 11 -15 28q-15 12 -34 12q-15 0 -35 -12q-9 -8 -14 -28q0 -39 49 -39q41 0 49 39zM297 266v125h-123v-125h123zM297 167v48h-131q-82 0 -82 -80q0 -36 29 -59t66 -23q52 0 85 31t33 83z" />
<glyph horiz-adv-x="621" d="M584 658q0 -43 -29 -68.5t-73 -25.5q-42 0 -71 19q-32 23 -32 63q0 21 9 35q-38 -7 -58 -43q-17 -31 -17 -73q0 -93 104 -124h71v-50h-167v-158q25 37 100 37t114 -51q36 -45 36 -123q0 -99 -80 -152q-61 -40 -160 -40h-174q-86 0 -86 -47q0 -29 34 -29q19 0 34 -13 t15 -32q0 -20 -14.5 -33.5t-34.5 -13.5q-44 0 -67.5 28.5t-23.5 72.5q0 58 48 89q39 25 103 25h164q115 0 147 87q10 28 10 59q0 115 -95 115q-70 0 -70 -69v-143h-87v391h-134v-391h-50v441h276q-66 47 -66 133q0 92 58 146q51 47 127 47q56 0 94 -26q45 -30 45 -83z M522 646q0 11 -15 28q-15 12 -34 12q-15 0 -35 -12q-9 -8 -14 -28q0 -39 49 -39q41 0 49 39z" />
<glyph horiz-adv-x="617" d="M648 658q0 -43 -29 -68.5t-73 -25.5q-42 0 -71 19q-32 23 -32 63q0 21 9 35q-43 -8 -72 -59q-26 -45 -26 -93q0 -64 30 -104q34 -44 96 -44v60h86v-441h-516v441h86v-390h344v287q-65 0 -114 43q-63 56 -63 165q0 93 57.5 157t148.5 64q56 0 94 -26q45 -30 45 -83z M586 646q0 11 -15 28q-15 12 -34 12q-15 0 -35 -12q-9 -8 -14 -28q0 -39 49 -39q41 0 49 39z" />
<glyph horiz-adv-x="713" d="M672 189q0 -88 -56 -138.5t-145 -50.5h-421v441h86v-390h166v271q0 104 94 120q-66 45 -66 132q0 92 58 146q51 47 127 47q56 0 94 -26q45 -30 45 -83q0 -43 -29 -68.5t-73 -25.5q-42 0 -71 19q-32 23 -32 63q0 21 9 35q-38 -7 -58 -43q-17 -31 -17 -73q0 -81 98 -127 q83 -22 137 -92.5t54 -156.5zM592 646q0 11 -15 28q-15 12 -34 12q-15 0 -35 -12q-9 -8 -14 -28q0 -39 49 -39q41 0 49 39zM621 190q0 72 -53 134q-55 66 -125 66q-54 0 -54 -60v-279h67q165 0 165 139z" />
<glyph horiz-adv-x="733" d="M765 658q0 -43 -29 -68.5t-73 -25.5q-42 0 -71 19q-32 23 -32 63q0 26 9 35q-43 -8 -72 -59q-26 -45 -26 -93q0 -64 30 -104q34 -44 96 -44v60h86v-441h-418v62q-29 -64 -101 -64q-114 0 -114 143v300h50v-301q0 -45 11 -65q15 -27 56 -27q48 0 76 70q22 56 22 111v212 h86v-390h246v287q-65 0 -114 43q-63 56 -63 165q0 93 57.5 157t148.5 64q56 0 94 -26q45 -30 45 -83zM702 646q0 22 -31 36q-9 4 -17 4q-17 0 -31.5 -11.5t-17.5 -28.5q0 -18 15 -28.5t34 -10.5q42 0 48 39z" />
<glyph horiz-adv-x="470" d="M455 658q0 -43 -29.5 -68.5t-72.5 -25.5q-42 0 -71 19q-32 23 -32 63q0 26 10 35q-38 -8 -58 -44q-17 -30 -17 -72q0 -44 31 -79q28 -32 50 -45h161v-50h-106v-425l-261 -173v37l174 170v391h-134v-391h-50v441h135q-53 47 -53 133q0 92 58 146q51 47 126 47q56 0 94 -26 q45 -30 45 -83zM393 646q0 11 -15 28q-15 12 -34 12q-14 0 -34 -12q-9 -8 -14 -28q0 -18 15 -28.5t33 -10.5q41 0 49 39z" />
<glyph horiz-adv-x="789" d="M793 658q0 -43 -29.5 -68.5t-72.5 -25.5q-42 0 -71 19q-32 23 -32 63q0 26 10 35q-64 -12 -91 -104q-7 -25 -7 -48q0 -63 30 -103q34 -45 95 -45l31 4q-13 16 -66 36q-33 13 -33 49q0 21 30 21q13 0 22 -5q144 -78 144 -242q0 -95 -47 -166q-54 -82 -144 -82 q-152 0 -152 165v73q0 160 -149 160q-67 0 -111 -47q-39 -41 -53 -110q36 41 97 41q57 0 94 -41t37 -98q0 -60 -36 -102t-95 -42q-79 0 -119 63q-34 53 -34 137q0 105 63 177q66 77 169 77q99 0 161.5 -58.5t62.5 -157.5v-59q0 -63 10 -87q15 -36 64 -36q63 0 100 68 q31 57 31 125q0 61 -22 105q-25 -11 -55 -11q-63 0 -113 42q-63 53 -63 166q0 95 55 156q57 65 150 65q56 0 94 -26q45 -30 45 -83zM731 646q0 11 -15 28q-15 12 -34 12q-15 0 -35 -12q-9 -8 -14 -28q0 -17 16 -28t33 -11q41 0 49 39zM243 137q0 33 -18 58q-20 29 -51 29 t-50 -27.5t-19 -59.5q0 -33 18 -58q20 -29 51 -29t51 29q18 25 18 58z" />
<glyph horiz-adv-x="778" d="M823 658q0 -43 -29.5 -68.5t-72.5 -25.5q-42 0 -71 19q-32 23 -32 63q0 26 10 35q-64 -12 -91 -104q-7 -25 -7 -48q0 -63 30 -103q34 -45 95 -45v60h86v-441h-360v36q49 64 49 173q0 81 -48 131.5t-129 50.5q-61 0 -104 -45.5t-52 -107.5l27 21q36 19 70 19 q56 0 93.5 -40.5t37.5 -97.5q0 -60 -36 -102.5t-95 -42.5q-73 0 -116 63q-37 54 -37 132q0 108 63 181q66 78 172 78q103 0 171.5 -69.5t68.5 -173.5q0 -95 -39 -155h178v287q-84 0 -132 63q-44 58 -44 145q0 95 55 156q57 65 150 65q56 0 94 -26q45 -30 45 -83zM761 646 q0 11 -15 28q-15 12 -34 12q-14 0 -34 -12q-9 -8 -14 -28q0 -18 15 -28.5t33 -10.5q41 0 49 39zM243 137q0 33 -18 58q-20 29 -51 29t-50 -27.5t-19 -59.5q0 -33 18 -58q20 -29 51 -29t51 29q18 25 18 58z" />
<glyph horiz-adv-x="713" d="M672 189q0 -88 -56 -138.5t-145 -50.5h-82v-32q0 -38 52 -38h65v-51h-77q-31 0 -49 -21l-16 -42q-30 -80 -157 -80q-62 0 -102 26q-47 31 -47 90q0 42 26 68t71 26q25 0 49 -14t24 -39q0 -29 -25 -29q-17 0 -24.5 15t-28.5 15q-40 0 -40 -41q0 -66 89 -66q84 0 103 51 l15 40q12 20 37 20q-52 8 -52 65v37h-252v441h86v-390h166v271q0 104 94 120q-66 45 -66 132q0 92 58 146q51 47 127 47q56 0 94 -26q45 -30 45 -83q0 -43 -29 -68.5t-73 -25.5q-42 0 -71 19q-32 23 -32 63q0 21 9 35q-38 -7 -58 -43q-17 -31 -17 -73q0 -81 98 -127 q83 -22 137 -92.5t54 -156.5zM592 646q0 11 -15 28q-15 12 -34 12q-15 0 -35 -12q-9 -8 -14 -28q0 -39 49 -39q41 0 49 39zM621 190q0 72 -53 134q-55 66 -125 66q-54 0 -54 -60v-279h67q165 0 165 139z" />
<glyph horiz-adv-x="839" d="M850 658q0 -43 -29 -68.5t-73 -25.5q-42 0 -71 19q-32 23 -32 63q0 21 9 35q-38 -7 -58 -43q-17 -31 -17 -73q0 -93 104 -124h127v-50h-94v-391h-85v391h-129v-391h-85v198q0 193 -165 193q-62 0 -105 -47q-40 -43 -49 -106q6 10 26 22q28 18 69 18q56 0 94 -40t38 -96 q0 -62 -34 -103q-37 -44 -97 -44q-62 0 -103 45q-49 54 -49 162q0 91 60 165q66 82 170 82q122 0 182 -79v71h138q-66 47 -66 133q0 92 58 146q51 47 127 47q56 0 94 -26q45 -30 45 -83zM788 646q0 11 -15 28q-15 12 -34 12q-15 0 -35 -12q-9 -8 -14 -28q0 -39 49 -39 q41 0 49 39zM243 137q0 33 -18 58q-20 29 -51 29t-50 -27.5t-19 -59.5q0 -33 18 -58q20 -29 51 -29t51 29q18 25 18 58z" />
<glyph horiz-adv-x="623" d="M594 658q0 -43 -29 -68.5t-73 -25.5q-42 0 -71 19q-32 23 -32 63q0 21 9 35q-38 -7 -58 -43q-17 -31 -17 -73q0 -47 29 -78q14 -15 58 -45q174 0 174 -252q0 -139 -76 -212.5t-216 -73.5h-135q-86 0 -86 -47q0 -29 34 -29q19 0 34 -13t15 -32q0 -20 -14.5 -33.5 t-34.5 -13.5q-44 0 -67.5 28.5t-23.5 72.5q0 58 48 89q39 25 103 25h125q209 0 209 238q0 203 -106 203q-70 0 -70 -110v-282h-86v287q0 105 -70 105q-67 0 -67 -105v-287h-50v294q0 76 37 115q33 34 84 34q102 0 120 -79q9 39 61 67l-6 1q-76 52 -76 142q0 92 58 146 q51 47 127 47q56 0 94 -26q45 -30 45 -83zM532 646q0 11 -15 28q-15 12 -34 12q-17 0 -31.5 -11.5t-17.5 -28.5q0 -18 15 -28.5t34 -10.5q41 0 49 39z" />
<glyph horiz-adv-x="918" d="M932 658q0 -43 -29.5 -68.5t-72.5 -25.5q-42 0 -71 19q-32 23 -32 63q0 21 9 35q-37 -6 -57 -43q-17 -32 -17 -73q0 -44 31 -79q28 -31 72 -45h113v-51h-81v-390h-86v390h-71q-50 0 -104 -24q78 -75 78 -181q0 -70 -25 -120q-32 -64 -95 -64q-86 0 -112 119q-7 31 -7 65 q0 95 66 173q-62 39 -139 39q-75 0 -130.5 -43.5t-74.5 -116.5q36 41 97 41q57 0 94 -41t37 -98q0 -60 -36 -102t-95 -42q-79 0 -119 63q-34 53 -34 137q0 116 86 188q81 68 200 68q87 0 165 -51q62 41 139 41h43q-66 47 -66 133q0 92 58 146q51 47 127 47q56 0 94 -26 q45 -30 45 -83zM870 646q0 11 -15 28q-15 12 -34 12q-15 0 -35 -12q-9 -8 -14 -28q0 -17 16 -28t33 -11q41 0 49 39zM531 185q0 77 -51 139q-53 -53 -53 -139q0 -38 9 -71q13 -49 44 -49q16 0 34 27q17 34 17 93zM243 137q0 33 -18 58q-20 29 -51 29t-50 -27.5t-19 -59.5 q0 -33 18 -58q20 -29 51 -29t51 29q18 25 18 58z" />
<glyph horiz-adv-x="756" d="M755 621q0 -35 -30 -74q-30 -32 -76 -32q-44 0 -76 34t-32 79q0 17 12 47q-63 -12 -63 -89q0 -37 21.5 -73t55.5 -49l134 -1v-356q-40 -96 -119 -94q-77 1 -116 94v300h-187v-344q-31 -66 -143 -62q-121 5 -121 79v385h54v-363q0 -51 70 -55q72 -4 89 55v361h267 q-20 11 -48 62q-15 38 -15 76q0 63 58 110q55 44 120 44q56 0 100.5 -39.5t44.5 -94.5zM700 617q0 56 -56 56q-51 0 -51 -58q0 -22 15.5 -35t38.5 -13q22 0 37.5 14t15.5 36zM647 107v302h-129v-302q23 -46 64 -48q39 -1 65 48z" />
<glyph horiz-adv-x="1021" d="M1035 688q0 -43 -29.5 -68.5t-72.5 -25.5q-42 0 -71 19q-32 23 -32 63q0 26 10 35q-38 -8 -58 -44q-17 -30 -17 -72q0 -69 53 -106q3 3 13 3t22 -6t14 -15q119 -78 119 -227q0 -95 -47 -166q-54 -82 -144 -82q-152 0 -152 165v79q0 75 -11 104q-15 40 -56 40 q-54 0 -69 -65q-6 -25 -6 -77v-243h-86v238q0 73 -42 113.5t-115 40.5q-61 0 -104 -48q-38 -42 -49 -106q33 41 96 41q54 0 92.5 -42t38.5 -97q0 -60 -36 -102t-95 -42q-77 0 -117 64q-35 55 -35 136q0 103 60 176q64 78 165 78q147 0 200 -98q24 92 115 92q95 0 124 -65 q16 -36 16 -136v-68q0 -62 11 -87q16 -36 64 -36q63 0 100 68q31 57 31 125q0 94 -47 143q-10 10 -65 34q-33 14 -33 49h-5q-73 46 -73 134q0 92 58 146q51 47 126 47q56 0 94 -26q45 -30 45 -83zM973 676q0 11 -15 28q-15 12 -34 12q-14 0 -34 -12q-9 -8 -14 -28 q0 -18 15 -28.5t33 -10.5q41 0 49 39zM251 137q0 33 -18 58q-20 29 -51 29t-50 -27.5t-19 -59.5q0 -33 18 -58q20 -29 51 -29t51 29q18 25 18 58z" />
<glyph horiz-adv-x="991" d="M953 0h-152l-76 -187h-77l76 187h-343v36q49 64 49 173q0 81 -48 131.5t-129 50.5q-61 0 -104 -45.5t-52 -107.5l27 21q36 19 70 19q56 0 93.5 -40.5t37.5 -97.5q0 -60 -36 -102.5t-95 -42.5q-73 0 -116 63q-37 54 -37 132q0 108 63 181q66 78 172 78q103 0 171.5 -69.5 t68.5 -173.5q0 -95 -39 -155h268l23 56l-21 -3q-56 0 -103 38q-61 49 -61 136q0 111 91 151q-86 45 -86 145q0 92 58 146q51 47 126 47q56 0 94 -26q45 -30 45 -83q0 -43 -29.5 -68.5t-72.5 -25.5q-42 0 -71 19q-32 23 -32 63q0 26 10 35q-38 -8 -58 -44q-17 -30 -17 -72 q0 -100 106 -124q63 0 111 -38q52 -40 52 -102q0 -30 -8 -58q-6 -19 -27 -64l78 50v-229zM849 646q0 16 -16.5 28t-32.5 12q-14 0 -34 -12q-9 -8 -14 -28q0 -18 15 -28.5t33 -10.5q41 0 49 39zM830 289q0 91 -107 91q-62 0 -81 -66q-5 -18 -5 -42q0 -55 38 -89 q33 -29 77 -29q22 0 38 8l33 87q7 18 7 40zM900 51v92l-50 -23l-28 -69h78zM243 137q0 33 -18 58q-20 29 -51 29t-50 -27.5t-19 -59.5q0 -33 18 -58q20 -29 51 -29t51 29q18 25 18 58z" />
<glyph horiz-adv-x="794" d="M752 658q0 -43 -29.5 -68.5t-72.5 -25.5q-42 0 -71 19q-32 23 -32 63q0 26 10 35q-38 -8 -58 -44q-17 -30 -17 -72q0 -89 95 -122l12 1q32 3 70 -12q91 -38 91 -165q0 -104 -61.5 -158t-166.5 -54l-264 -1q-125 0 -125 -112q0 -48 32 -75q29 -25 78 -25q54 0 78 17 q31 21 56 80q43 99 187 99q177 0 177 -131q0 -54 -37 -83.5t-92 -29.5q-71 0 -95 68q-7 28 -7 46q0 60 28 82q-100 0 -126 -90q-17 -59 -74 -85q-48 -22 -108 -22q-77 0 -127 38q-56 42 -56 117q0 80 53 120q47 36 129 36h292q80 0 114 44q29 38 29 120q0 124 -102 124 q-51 0 -77 -47q-22 -38 -22 -93v-96h-92v111q0 65 -57 104q-42 22 -87 22q-48 0 -76 -14q-8 -4 -31 -27q33 9 41 9q51 0 80.5 -31t29.5 -82q0 -57 -39 -92q-29 -26 -77 -26q-52 0 -83 45q-27 40 -27 94q0 79 51.5 127t130.5 48q167 0 210 -92q24 57 76 78q-84 45 -84 144 q0 92 58 146q51 47 126 47q56 0 94 -26q45 -30 45 -83zM690 646q0 11 -15 28q-15 12 -34 12q-14 0 -34 -12q-9 -8 -14 -28q0 -18 15 -28.5t33 -10.5q41 0 49 39zM656 -86q0 25 -11 45q-14 23 -37 23q-20 0 -34 -20q-13 -24 -13 -48q0 -25 11 -45q13 -24 36 -24q24 0 37 24 q11 20 11 45zM194 247q0 24 -12.5 44t-35.5 20q-22 0 -35 -20.5t-13 -43.5q0 -25 11 -43q14 -21 37 -21q22 0 36 22q12 19 12 42z" />
<glyph horiz-adv-x="1163" d="M1138 658q0 -43 -29.5 -68.5t-72.5 -25.5q-42 0 -71 19q-32 23 -32 63q0 21 9 35q-38 -7 -58 -43q-17 -31 -17 -73q0 -47 31.5 -81.5t79.5 -43.5q144 -27 144 -250q0 -139 -76 -212.5t-216 -73.5h-636q-85 0 -85 -47q0 -29 33 -29q19 0 34 -13t15 -32q0 -20 -14.5 -33.5 t-34.5 -13.5q-44 0 -67.5 28.5t-23.5 72.5q0 59 48 89q40 25 103 25h626q208 0 208 238q0 203 -105 203q-70 0 -70 -110v-282h-86v287q0 105 -70 105q-67 0 -67 -105v-287h-262v36q49 64 49 173q0 81 -48 131.5t-129 50.5q-61 0 -104 -45.5t-52 -107.5l27 21q36 19 70 19 q56 0 93.5 -40.5t37.5 -97.5q0 -60 -36 -102.5t-95 -42.5q-73 0 -116 63q-37 54 -37 132q0 107 63 181q67 78 172 78q103 0 171.5 -69.5t68.5 -173.5q0 -95 -39 -155h116v243q0 76 37 115q33 34 84 34q102 0 120 -79q15 48 65 69q-80 45 -80 141q0 92 58 146q51 47 127 47 q56 0 94 -26q45 -30 45 -83zM1076 646q0 11 -15 28q-15 12 -34 12q-15 0 -35 -12q-9 -8 -14 -28q0 -17 16 -28t33 -11q41 0 49 39zM238 137q0 33 -18 58q-20 29 -51 29t-50 -27.5t-19 -59.5q0 -34 17 -59q20 -28 52 -28q31 0 51 29q18 25 18 58z" />
<glyph horiz-adv-x="835" d="M796 75q0 -148 -109 -246q-106 -93 -256 -93q-176 0 -284 104q-111 106 -111 281q0 128 58 210l39 55q14 20 47 47l33 -39q-41 -32 -75 -88q-51 -84 -51 -185q0 -139 87.5 -233t225.5 -94q137 0 220 67q89 73 89 206q0 58 -20 97q-26 51 -78 51h-50v-63q0 -57 -42 -101 q-49 -51 -151 -51q-64 0 -109 36q-48 39 -48 101q0 99 91 124v180h390v-50h-131v-125h68q78 0 125 -57q42 -51 42 -134zM475 266v125h-122v-125h122zM475 167v48h-131q-81 0 -81 -80q0 -38 29 -61q26 -21 65 -21q52 0 85 31t33 83z" />
<glyph horiz-adv-x="767" d="M723 -196h-76v196h-413v51h141q93 0 93 109q0 82 -87 82q-56 0 -73 -63v-71h-74v283h-134v-391h-50v441h414v-50h-156v-128q40 31 92 31q64 0 105 -36t41 -99q0 -31 -14 -62q-17 -35 -42 -46h147v390h86v-637z" />
<glyph horiz-adv-x="649" d="M616 215h-43v-215h-86v215h-104v-63q0 -57 -42 -101q-49 -51 -151 -51q-64 0 -109 36q-48 39 -48 101q0 99 91 124v180h414v-50h-155v-125h233v-51zM297 266v125h-123v-125h123zM297 167v48h-131q-82 0 -82 -80q0 -36 29 -59t66 -23q52 0 85 31t33 83z" />
<glyph horiz-adv-x="877" d="M846 -87h-201q-87 -153 -318 -153q-80 0 -153 37q-89 45 -89 117q0 46 48 46h452q19 70 19 138q0 132 -65 132q-15 0 -38 -21q-17 -22 -17 -52v-157h-86v391h-156q-66 0 -110 -43t-53 -110l25 19q28 17 63 17q120 0 135 -127q0 -64 -34 -107q-37 -46 -100 -46 q-75 0 -113 70q-31 57 -31 138q0 103 63 171t166 68h300v-50h-69v-129q32 19 61 19q74 0 114 -56q35 -50 35 -127q0 -60 -27 -138h103v490h76v-537zM222 134q0 32 -18 60.5t-48 28.5t-49 -31q-16 -26 -16 -58t16 -59q19 -30 49 -30q29 0 50 30q16 29 16 59zM563 -87h-387 q-35 0 -35 -22q0 -40 76 -67q58 -21 109 -21q175 0 237 110z" />
<glyph horiz-adv-x="771" d="M741 0h-52v158q0 164 -67 266q-79 121 -234 121q-141 0 -223 -97q-76 -91 -76 -234q0 -135 48 -230q63 -124 184 -124q103 0 159 62t56 166q0 126 -87 126q-23 0 -42 -16t-19 -39v-159h-87v441h87v-213q3 15 35 28q23 9 45 9q77 0 123 -59q42 -54 42 -133 q0 -127 -84 -201q-80 -71 -209 -71q-156 0 -238 136q-68 112 -68 279q0 170 90 281q98 120 264 120q179 0 273 -139q80 -120 80 -307v-171z" />
<glyph horiz-adv-x="1388" d="M1354 -96h-254q-173 -168 -611 -168q-206 0 -335 66q-105 54 -105 123q0 26 26 26h969q74 85 74 208v16q0 91 -43 149q-47 65 -135 65q-41 0 -84 -23q78 -75 78 -181q0 -69 -25 -120q-31 -64 -95 -64q-63 0 -94 64q-24 49 -24 120q0 102 66 174q-62 37 -118 37 q-47 0 -109 -30q79 -73 79 -181q0 -70 -25 -120q-32 -64 -95 -64q-86 0 -112 119q-7 31 -7 65q0 95 66 173q-62 39 -139 39q-75 0 -130.5 -43.5t-74.5 -116.5q36 41 97 41q57 0 94 -41t37 -98q0 -60 -36 -102t-95 -42q-79 0 -119 63q-34 53 -34 137q0 116 86 188 q81 68 200 68q91 0 165 -50q71 47 157 47q91 0 164 -47q68 44 134 44q121 0 188 -73t67 -195v-21q0 -119 -61 -205h137v490h76v-537zM851 185q0 78 -51 140q-53 -56 -53 -140q0 -38 9 -71q13 -49 44 -49q16 0 34 27q17 34 17 93zM531 185q0 77 -51 139q-53 -53 -53 -139 q0 -38 9 -71q13 -49 44 -49q16 0 34 27q17 34 17 93zM993 -96l-875 -1q-1 -5 -1 -9q18 -41 112 -75q59 -21 118 -30q69 -10 141 -10q343 0 505 125zM243 137q0 33 -18 58q-20 29 -51 29t-50 -27.5t-19 -59.5q0 -33 18 -58q20 -29 51 -29t51 29q18 25 18 58z" />
<glyph horiz-adv-x="810" d="M773 -96h-201q-90 -153 -318 -153q-80 0 -154 37q-89 44 -89 117q0 46 49 46h452q16 64 16 115q0 149 -118 149h-22v-63q0 -57 -42 -101q-49 -51 -151 -51q-64 0 -109 36q-48 39 -48 101q0 99 91 124v180h414v-50h-155v-125h43q81 0 134 -61q49 -57 49 -140 q0 -61 -19 -114h102v490h76v-537zM301 266v125h-122v-125h122zM301 167v48h-131q-81 0 -81 -80q0 -36 29 -59t66 -23q53 0 85 30.5t32 83.5zM491 -96h-388q-36 0 -36 -22q0 -40 76 -67q58 -21 109 -21q174 0 239 110z" />
<glyph horiz-adv-x="789" d="M750 -96h-201q-89 -153 -318 -153q-80 0 -153 37q-89 45 -89 117q0 46 48 46h452q16 66 16 123q0 138 -92 138q-73 0 -73 -85v-127h-86v391h-134v-391h-50v441h428v-50h-158v-158q28 37 100 37q76 0 117 -63q34 -52 34 -134q0 -71 -20 -122h103v490h76v-537zM467 -96 h-387q-35 0 -35 -22q0 -40 76 -67q58 -21 109 -21q175 0 237 110z" />
<glyph horiz-adv-x="616" d="M566 -206h-87v206h-429v441h86v-390h343v390h87v-647z" />
<glyph horiz-adv-x="999" d="M965 189q0 -90 -55.5 -139.5t-146.5 -49.5h-82q0 -126 -101 -199q-90 -65 -221 -65q-156 0 -250 120q-84 107 -84 271q0 109 59 202q48 75 116 115l26 -44q-71 -39 -112 -116q-38 -73 -38 -157q0 -141 69 -236q76 -104 214 -104q124 0 186 70q50 57 50 143h-253v441h87 v-390h166v271q0 122 129 122q97 0 169 -78.5t72 -176.5zM913 190q0 72 -53 134q-55 66 -125 66q-54 0 -54 -60v-279h67q165 0 165 139z" />
<glyph horiz-adv-x="725" d="M683 -206h-86v206h-332v62q-29 -64 -101 -64q-114 0 -114 143v300h50v-301q0 -45 11 -65q15 -27 56 -27q48 0 76 70q22 56 22 111v212h86v-390h246v390h86v-647z" />
<glyph horiz-adv-x="829" d="M796 75q0 -148 -109 -246q-106 -93 -256 -93q-176 0 -284 104q-111 106 -111 281q0 128 58 210l39 55q14 20 47 47l33 -39q-42 -34 -75 -89q-51 -84 -51 -184q0 -139 87.5 -233t225.5 -94q137 0 219 67q90 72 90 206q0 144 -83 144q-53 0 -53 -63v-148h-86v391h-134v-391 h-51v441h392v-50h-121v-149q27 24 68 24q74 0 117 -60q38 -53 38 -131z" />
<glyph horiz-adv-x="944" d="M903 -96h-318q-86 -153 -326 -153q-78 0 -150 41q-81 46 -81 113q0 46 48 46h450l10 46q-129 12 -129 164v73q0 73 -37 116q-40 44 -112 44q-67 0 -111 -47q-39 -41 -53 -110q36 41 97 41q57 0 94 -41t37 -98q0 -60 -36 -102t-95 -42q-79 0 -119 63q-34 53 -34 137 q0 105 63 177q66 77 169 77q99 0 161.5 -58.5t62.5 -157.5v-59q0 -62 11 -87q16 -36 63 -36q63 0 101 68q31 56 31 125q0 90 -48 143q-12 13 -65 34q-33 13 -33 49q0 21 30 21q13 0 22 -5q144 -78 144 -242q0 -77 -31 -138q-34 -68 -99 -98q0 -17 -5 -28l-9 -29h221v490h76 v-537zM240 137q0 33 -18 58q-20 29 -51 29t-50 -27.5t-19 -59.5q0 -33 18 -58q20 -29 51 -29t51 29q18 25 18 58zM503 -96h-383q-36 0 -36 -22q0 -36 71 -65q56 -23 102 -23q179 0 246 110z" />
<glyph horiz-adv-x="774" d="M736 -206h-86v206h-274v36q49 64 49 173q0 81 -48 131.5t-129 50.5q-61 0 -104 -45.5t-52 -107.5l27 21q36 19 70 19q56 0 93.5 -40.5t37.5 -97.5q0 -60 -36 -102.5t-95 -42.5q-73 0 -116 63q-37 54 -37 132q0 107 63 181q67 78 172 78q103 0 171.5 -69.5t68.5 -173.5 q0 -95 -39 -155h178v390h86v-647zM238 137q0 33 -18 58q-20 29 -51 29t-50 -27.5t-19 -59.5q0 -34 17 -59q20 -28 52 -28q31 0 51 29q18 25 18 58z" />
<glyph horiz-adv-x="952" d="M912 189q0 -87 -57 -138t-145 -51h-82v-38q31 14 69 14q99 0 99 -70q0 -63 -71 -109q-95 -61 -275 -61q-178 0 -299 115t-121 293q0 189 146 293l28 -42q-123 -86 -123 -251q0 -155 108 -257q105 -100 261 -100q145 0 220 45q55 33 55 70q0 29 -50 29q-47 0 -47 -38v-20 h-86v127h-252v441h86v-390h166v271q0 122 129 122q97 0 169 -78.5t72 -176.5zM860 190q0 78 -60 142q-54 58 -117 58q-55 0 -55 -60v-279h67q165 0 165 139z" />
<glyph horiz-adv-x="1117" d="M1079 115q0 -146 -111 -250q-138 -129 -417 -129q-223 0 -363 114q-152 124 -152 342q0 88 32 160q25 56 57 91l36 -35q-26 -29 -45 -76q-28 -68 -28 -140q0 -193 138 -304q127 -101 325 -101q239 0 355 115q88 88 88 213q0 111 -61 111q-20 0 -40 -18q-14 -19 -14 -43 v-165h-86v391h-128v-391h-86v198q0 193 -164 193q-59 0 -104 -46.5t-51 -106.5q36 40 96 40q54 0 92.5 -40.5t38.5 -95.5q0 -64 -33 -104q-35 -43 -98 -43q-61 0 -103 45q-49 52 -49 162q0 91 60 165q66 82 171 82q121 0 182 -79v71h355v-50h-93v-139q26 29 66 29 q70 0 104 -50q30 -43 30 -116zM406 137q0 33 -18 58q-20 29 -51 29t-50 -27.5t-19 -59.5q0 -33 18 -58q20 -29 51 -29t51 29q18 25 18 58z" />
<glyph horiz-adv-x="816" d="M765 -96h-223q-90 -153 -323 -153q-76 0 -148 41q-82 47 -82 113q0 46 48 46h448q33 90 33 238q0 203 -106 203q-69 0 -69 -110v-282h-86v287q0 105 -70 105q-67 0 -67 -105v-287h-51v294q0 64 29 104q32 45 93 45q102 0 120 -79q29 78 114 78q179 0 179 -252 q0 -142 -38 -239h123v490h76v-537zM462 -96h-382q-35 0 -35 -22q0 -36 71 -64q60 -24 102 -24q177 0 244 110z" />
<glyph horiz-adv-x="1064" d="M1028 -96h-251q-140 -153 -442 -153q-132 0 -214 50q-75 46 -75 104q0 46 48 46h635q64 94 64 229v14q0 84 -50.5 140t-134.5 56q-42 0 -78 -23q79 -74 79 -182q0 -70 -25 -120q-32 -64 -95 -64q-86 0 -112 119q-7 31 -7 65q0 95 66 173q-60 39 -138 39q-76 0 -131.5 -43 t-74.5 -117q36 41 97 41q57 0 94 -41t37 -98q0 -60 -36 -102t-95 -42q-79 0 -119 63q-34 53 -34 137q0 116 86 188q81 68 200 68q90 0 164 -50q65 45 136 45q115 0 185.5 -71t70.5 -186v-9q0 -132 -64 -229h138v490h76v-537zM526 185q0 77 -51 139q-53 -53 -53 -139 q0 -38 9 -71q13 -49 44 -49q16 0 34 27q17 34 17 93zM238 137q0 33 -18 58q-20 29 -51 29t-50 -27.5t-19 -59.5q0 -34 17 -59q20 -28 52 -28q31 0 51 29q18 25 18 58zM689 -96h-559q-28 0 -28 -16q-1 -24 50 -55q65 -39 182 -39q239 0 355 110z" />
<glyph horiz-adv-x="922" d="M894 0h-194v7q44 46 44 129q0 47 -21 78q-24 36 -68 36q-88 0 -88 -122v-128h-69v125q0 40 -24 65t-64 25h-27v-63q0 -57 -42 -101q-49 -51 -151 -51q-64 0 -109 36q-48 39 -48 101q0 99 91 124v180h389v-50h-130v-125h43q28 0 58 -13.5t45 -35.5q12 27 39 53 q36 34 86 34q69 0 118 -36q53 -40 53 -107q0 -70 -26 -110h95v-51zM297 266v125h-123v-125h123zM297 167v48h-131q-82 0 -82 -80q0 -36 29 -59t66 -23q52 0 85 31t33 83z" />
<glyph horiz-adv-x="840" d="M825 -88q0 -102 -102 -151q-73 -35 -192 -35q-127 0 -213 54q-71 45 -71 101q0 62 100 62q59 0 104 -30l-17 -42q-33 24 -78 24q-49 0 -49 -23q0 -51 89 -79q66 -21 129 -21q223 0 223 133q0 49 -42 49q-30 0 -30 -33v-57h-86v136h-396v51h141q93 0 93 109q0 82 -87 82 q-56 0 -73 -63v-71h-74v283h-134v-391h-50v441h414v-50h-156v-128q40 31 92 31q64 0 105 -36t41 -99q0 -31 -14 -62q-17 -35 -42 -46h147v390h86v-443l18 6l31 4q41 0 67 -27.5t26 -68.5z" />
<glyph horiz-adv-x="906" d="M877 36q0 -129 -115 -213q-121 -88 -314 -88q-185 0 -303 114q-121 115 -121 299q0 178 121 299l35 -37q-105 -102 -105 -262q0 -162 105.5 -261.5t267.5 -99.5q180 0 274 81q76 66 76 168q0 27 -14.5 49.5t-40.5 22.5q-50 0 -50 -45v-63h-87v215h-70v-63q0 -77 -60 -117 q-52 -35 -132 -35q-64 0 -109 36q-48 39 -48 101q0 99 91 124v180h389v-50h-131v-125h209v-51h-52v-73q22 25 62 25q53 0 87.5 -38.5t34.5 -92.5zM450 266v125h-122v-125h122zM450 167v48h-131q-81 0 -81 -80q0 -36 29 -59t66 -23q52 0 84.5 31t32.5 83z" />
<glyph horiz-adv-x="1030" d="M1066 404h-81v-391h-86v391h-84v-487h-179q-89 -153 -318 -153q-80 0 -153 37q-89 45 -89 117q0 46 48 46h452q18 59 18 141q0 125 -65 125q-15 0 -38 -21q-17 -22 -17 -52v-157h-86v391h-156q-66 0 -110 -43t-53 -110l25 19q28 17 63 17q120 0 135 -127q0 -64 -34 -107 q-37 -46 -100 -46q-75 0 -113 70q-31 57 -31 138q0 103 63 171t166 68h300v-50h-69v-129q32 19 61 19q74 0 114 -54q35 -47 35 -125q0 -71 -26 -138h107v490h301v-50zM212 134q0 32 -18 60.5t-48 28.5t-49 -31q-16 -26 -16 -58t16 -59q19 -30 49 -30q29 0 50 30q16 29 16 59 zM554 -83h-387q-35 0 -35 -22q0 -42 76 -68q58 -20 109 -20q175 0 237 110z" />
<glyph horiz-adv-x="671" d="M661 419q0 -105 -85 -105q-30 0 -57 27q-8 8 -19 30q-4 12 -8 36q0 84 44 99q-63 39 -148 39q-141 0 -223 -97q-76 -91 -76 -234q0 -135 48 -230q63 -124 184 -124q103 0 159 62t56 166q0 126 -87 126q-23 0 -42 -16t-19 -39v-159h-87v441h87v-213q3 15 35 28q23 9 45 9 q77 0 123 -59q42 -54 42 -133q0 -127 -84 -201q-80 -71 -209 -71q-156 0 -238 136q-68 112 -68 279q0 170 90 281q98 120 264 120q129 0 209 -73q64 -59 64 -125zM607 403q0 20 -9.5 42.5t-35.5 22.5q-25 0 -25 -46q0 -23 11.5 -42t33.5 -19q25 5 25 42z" />
<glyph horiz-adv-x="1702" d="M1665 391h-117v-391h-86v391h-134v-487h-228q-173 -168 -611 -168q-206 0 -335 66q-105 54 -105 123q0 26 26 26h969q74 85 74 208v16q0 91 -43 149q-47 65 -135 65q-41 0 -84 -23q78 -75 78 -181q0 -69 -25 -120q-31 -64 -95 -64q-63 0 -94 64q-24 49 -24 120 q0 102 66 174q-62 37 -118 37q-47 0 -109 -30q79 -73 79 -181q0 -70 -25 -120q-32 -64 -95 -64q-86 0 -112 119q-7 31 -7 65q0 95 66 173q-62 39 -139 39q-75 0 -130.5 -43.5t-74.5 -116.5q36 41 97 41q57 0 94 -41t37 -98q0 -60 -36 -102t-95 -42q-79 0 -119 63 q-34 53 -34 137q0 116 86 188q81 68 200 68q91 0 165 -50q71 47 157 47q91 0 164 -47q68 44 134 44q121 0 188 -73t67 -195v-21q0 -119 -61 -205h137v490h387v-50zM851 185q0 78 -51 140q-53 -56 -53 -140q0 -38 9 -71q13 -49 44 -49q16 0 34 27q17 34 17 93zM531 185 q0 77 -51 139q-53 -53 -53 -139q0 -38 9 -71q13 -49 44 -49q16 0 34 27q17 34 17 93zM993 -96l-875 -1q-1 -5 -1 -9q18 -41 112 -75q59 -21 118 -30q69 -10 141 -10q343 0 505 125zM243 137q0 33 -18 58q-20 29 -51 29t-50 -27.5t-19 -59.5q0 -33 18 -58q20 -29 51 -29 t51 29q18 25 18 58z" />
<glyph horiz-adv-x="1135" d="M1102 391h-135v-391h-86v391h-134v-487h-175q-90 -153 -318 -153q-80 0 -154 37q-89 44 -89 117q0 46 49 46h452q16 64 16 115q0 149 -118 149h-22v-63q0 -57 -42 -101q-49 -51 -151 -51q-64 0 -109 36q-48 39 -48 101q0 99 91 124v180h414v-50h-155v-125h43 q81 0 134 -61q49 -57 49 -140q0 -61 -19 -114h102v490h405v-50zM301 266v125h-122v-125h122zM301 167v48h-131q-81 0 -81 -80q0 -36 29 -59t66 -23q53 0 85 30.5t32 83.5zM491 -96h-388q-36 0 -36 -22q0 -40 76 -67q58 -21 109 -21q174 0 239 110z" />
<glyph horiz-adv-x="1108" d="M1079 391h-131v-391h-86v391h-134v-487h-179q-89 -153 -318 -153q-80 0 -153 37q-89 45 -89 117q0 46 48 46h452q16 66 16 123q0 138 -92 138q-73 0 -73 -85v-127h-86v391h-134v-391h-50v441h428v-50h-158v-158q28 37 100 37q76 0 117 -63q34 -52 34 -134q0 -71 -20 -122 h107v490h401v-50zM467 -96h-387q-35 0 -35 -22q0 -40 76 -67q58 -21 109 -21q175 0 237 110z" />
<glyph horiz-adv-x="727" d="M714 -78q0 -102 -102 -151q-73 -35 -192 -35q-127 0 -213 54q-71 45 -71 101q0 62 100 62q59 0 104 -30l-17 -42q-33 24 -78 24q-48 0 -48 -23q0 -51 88 -79q66 -21 129 -21q223 0 223 133q0 49 -42 49q-29 0 -29 -33v-57h-87v126h-429v441h86v-390h343v390h87v-449 q9 23 51 23q43 0 70 -25t27 -68z" />
<glyph horiz-adv-x="995" d="M965 189q0 -90 -55.5 -139.5t-146.5 -49.5h-84q0 -125 -101 -198q-90 -66 -219 -66q-158 0 -251 123q-83 111 -83 274q0 118 47.5 205.5t109.5 87.5q36 0 60 -30q21 -28 21 -65q0 -49 -27 -83q-29 -37 -77 -37q-19 0 -40 12q-24 14 -24 31q-19 -51 -19 -121 q0 -141 69 -238q77 -108 214 -108q106 0 168 53q67 57 67 160h-252v441h87v-390h166v271q0 122 129 122q97 0 169 -78.5t72 -176.5zM913 190q0 72 -53 134q-55 66 -125 66q-54 0 -54 -60v-279h67q165 0 165 139zM206 309q0 52 -39 52q-32 0 -43 -51q-3 -16 6 -38l7 -9 q5 -4 21 -7q38 0 48 53z" />
<glyph horiz-adv-x="859" d="M831 -78q0 -102 -102 -151q-73 -35 -192 -35q-127 0 -213 54q-71 45 -71 101q0 62 100 62q59 0 104 -30l-17 -42q-33 24 -77 24q-49 0 -49 -23q0 -51 89 -79q66 -21 129 -21q222 0 222 133q0 49 -42 49q-29 0 -29 -33v-57h-86v126h-332v62q-29 -64 -101 -64 q-114 0 -114 143v300h50v-301q0 -45 11 -65q15 -27 56 -27q48 0 76 70q22 56 22 111v212h86v-390h246v390h86v-449q12 23 51 23q43 0 70 -25t27 -68z" />
<glyph horiz-adv-x="837" d="M807 75q0 -153 -118 -249q-109 -90 -266 -90q-176 0 -283 105t-107 280q0 85 43 183q52 118 127 118t75 -91q0 -49 -27 -83q-29 -37 -77 -37q-18 0 -41 12q-16 11 -25 30q-24 -62 -24 -132q0 -154 91.5 -240.5t245.5 -86.5q131 0 213 70q87 74 87 203q0 144 -84 144 q-53 0 -53 -63v-148h-86v391h-134v-391h-50v441h391v-50h-121v-149q27 24 68 24q74 0 117 -60q38 -53 38 -131zM221 306l-3 20q-5 32 -36 32q-16 0 -28 -16.5t-15 -34.5t6.5 -36t27.5 -18q19 0 33.5 17t14.5 36z" />
<glyph horiz-adv-x="1250" d="M1218 391h-120v-391h-87v391h-134v-487h-292q-86 -153 -326 -153q-78 0 -150 41q-81 46 -81 113q0 46 48 46h450l10 46q-129 12 -129 164v73q0 73 -37 116q-40 44 -112 44q-67 0 -111 -47q-39 -41 -53 -110q36 41 97 41q57 0 94 -41t37 -98q0 -60 -36 -102t-95 -42 q-79 0 -119 63q-34 53 -34 137q0 105 63 177q66 77 169 77q99 0 161.5 -58.5t62.5 -157.5v-59q0 -62 11 -87q16 -36 63 -36q63 0 101 68q31 56 31 125q0 90 -48 143q-12 13 -65 34q-33 13 -33 49q0 21 30 21q13 0 22 -5q144 -78 144 -242q0 -77 -31 -138q-34 -68 -99 -98 q0 -17 -5 -28l-9 -29h221v490h391v-50zM240 137q0 33 -18 58q-20 29 -51 29t-50 -27.5t-19 -59.5q0 -33 18 -58q20 -29 51 -29t51 29q18 25 18 58zM503 -96h-383q-36 0 -36 -22q0 -36 71 -65q56 -23 102 -23q179 0 246 110z" />
<glyph horiz-adv-x="899" d="M885 -78q0 -102 -102 -151q-73 -35 -192 -35q-127 0 -213 54q-71 45 -71 101q0 62 100 62q59 0 104 -30l-17 -42q-33 24 -78 24q-49 0 -49 -23q0 -51 89 -79q66 -21 129 -21q223 0 223 133q0 49 -42 49q-30 0 -30 -33v-57h-86v126h-274v36q49 64 49 173q0 81 -48 131.5 t-129 50.5q-61 0 -104 -45.5t-52 -107.5l27 21q36 19 70 19q56 0 93.5 -40.5t37.5 -97.5q0 -60 -36 -102.5t-95 -42.5q-73 0 -116 63q-37 54 -37 132q0 107 63 181q67 78 172 78q103 0 171.5 -69.5t68.5 -173.5q0 -95 -39 -155h178v390h86v-449q12 23 52 23q43 0 70 -25 t27 -68zM238 137q0 33 -18 58q-20 29 -51 29t-50 -27.5t-19 -59.5q0 -34 17 -59q20 -28 52 -28q31 0 51 29q18 25 18 58z" />
<glyph horiz-adv-x="971" d="M935 189q0 -88 -56 -138.5t-145 -50.5h-82v-38q31 14 69 14q99 0 99 -70q0 -60 -83 -109q-104 -61 -287 -61q-179 0 -299.5 116t-120.5 295q0 84 37 171q47 108 120 108q36 0 60 -30q21 -28 21 -65q0 -49 -27 -83q-29 -37 -77 -37q-44 0 -68 42q-15 -45 -15 -106 q0 -157 106 -258.5t263 -101.5q143 0 232 45q66 33 66 70q0 29 -45 29q-51 0 -51 -33v-25h-86v127h-253v441h87v-390h166v271q0 122 129 122q97 0 170 -79q70 -78 70 -176zM884 190q0 72 -53 134q-55 66 -125 66q-54 0 -54 -60v-279h67q165 0 165 139zM211 326q0 39 -35 39 q-21 0 -36 -19.5t-15 -40.5q0 -33 28 -40l10 -1q21 0 34.5 20t13.5 42z" />
<glyph horiz-adv-x="1178" d="M1143 115q0 -144 -125 -250q-152 -129 -432 -129q-225 0 -380 119q-170 131 -170 350q0 77 28 140q36 81 105 81q36 0 60 -30q21 -28 21 -65q0 -49 -27 -83q-30 -37 -77 -37q-41 0 -57 29v-17l-1 -18q-4 -79 33 -162q34 -75 106 -137q138 -119 359 -119q240 0 370 115 q102 90 102 213q0 111 -61 111q-20 0 -40 -18q-14 -19 -14 -43v-165h-86v391h-128v-391h-86v198q0 193 -164 193q-59 0 -104 -46.5t-51 -106.5q36 40 96 40q54 0 92.5 -40.5t38.5 -95.5q0 -64 -33 -104q-35 -43 -98 -43q-61 0 -103 45q-49 52 -49 162q0 91 60 165 q66 82 171 82q121 0 182 -79v71h355v-50h-93v-139q26 29 66 29q70 0 104 -50q30 -43 30 -116zM470 137q0 33 -18 58q-20 29 -51 29t-50 -27.5t-19 -59.5q0 -33 18 -58q20 -29 51 -29t51 29q18 25 18 58zM191 310l-3 20q-5 32 -36 32q-32 0 -43 -51q-3 -16 6 -38l7 -9 q5 -4 21 -7q19 0 33.5 17t14.5 36z" />
<glyph horiz-adv-x="1061" d="M1113 391h-120v-391h-87v391l-144 2l3 -489h-223q-90 -153 -323 -153q-76 0 -148 41q-82 47 -82 113q0 46 48 46h448q33 90 33 238q0 203 -106 203q-69 0 -69 -110v-282h-86v287q0 105 -70 105q-67 0 -67 -105v-287h-51v294q0 64 29 104q32 45 93 45q102 0 120 -79 q29 78 114 78q179 0 179 -252q0 -142 -38 -239l151 1v489h396v-50zM462 -96h-382q-35 0 -35 -22q0 -36 71 -64q60 -24 102 -24q177 0 244 110z" />
<glyph horiz-adv-x="1383" d="M1343 391h-120v-391h-87v391h-134v-487h-225q-140 -153 -442 -153q-132 0 -214 50q-75 46 -75 104q0 46 48 46h635q64 94 64 229v14q0 84 -50.5 140t-134.5 56q-42 0 -78 -23q79 -74 79 -182q0 -70 -25 -120q-32 -64 -95 -64q-86 0 -112 119q-7 31 -7 65q0 95 66 173 q-60 39 -138 39q-76 0 -131.5 -43t-74.5 -117q36 41 97 41q57 0 94 -41t37 -98q0 -60 -36 -102t-95 -42q-79 0 -119 63q-34 53 -34 137q0 116 86 188q81 68 200 68q90 0 164 -50q65 45 136 45q115 0 185.5 -71t70.5 -186v-9q0 -132 -64 -229h138v490h391v-50zM526 185 q0 77 -51 139q-53 -53 -53 -139q0 -38 9 -71q13 -49 44 -49q16 0 34 27q17 34 17 93zM238 137q0 33 -18 58q-20 29 -51 29t-50 -27.5t-19 -59.5q0 -34 17 -59q20 -28 52 -28q31 0 51 29q18 25 18 58zM689 -96h-559q-28 0 -28 -16q-1 -24 50 -55q65 -39 182 -39 q239 0 355 110z" />
<glyph horiz-adv-x="1265" d="M1229 0h-152l-76 -187h-77l76 187h-296v49q36 26 36 90q0 51 -34 85.5t-85 34.5q-21 0 -42 -9q84 -30 84 -120q0 -54 -24 -90q-28 -40 -80 -40q-47 0 -74 43q-23 36 -23 86q0 44 21 86h-100v-63q0 -57 -42 -101q-49 -51 -151 -51q-64 0 -109 36q-48 39 -48 101 q0 99 91 124v180h389v-50h-130v-125h119q16 0 22 -2q46 40 106 40q69 0 121.5 -46.5t52.5 -115.5q0 -53 -24 -91h241l23 56q-8 -3 -20 -3q-55 0 -104 37q-61 46 -61 125q0 81 54 134q42 41 99 41q81 0 131 -45q43 -39 43 -95q0 -40 -35 -122l78 50v-229zM1106 289 q0 91 -107 91q-62 0 -81 -66q-5 -18 -5 -42q0 -55 38 -89q33 -29 77 -29q22 0 38 8l33 87q7 18 7 40zM1176 51v92l-50 -23l-28 -69h78zM597 133q0 27 -18.5 49.5t-45.5 28.5q-23 -31 -23 -82q0 -74 43 -74q17 0 34 27q10 30 10 51zM297 266v125h-123v-125h123zM297 167v48 h-131q-82 0 -82 -80q0 -36 29 -59t66 -23q52 0 85 31t33 83z" />
<glyph horiz-adv-x="1265" d="M674 597q0 -24 -18 -42.5t-42 -18.5q-20 0 -43 18q-17 19 -17 43q0 25 17.5 42.5t42.5 17.5t42.5 -17.5t17.5 -42.5zM1229 0h-152l-76 -187h-77l76 187h-296v49q36 26 36 90q0 51 -34 85.5t-85 34.5q-21 0 -42 -9q84 -30 84 -120q0 -54 -24 -90q-28 -40 -80 -40 q-47 0 -74 43q-23 36 -23 86q0 44 21 86h-100v-63q0 -57 -42 -101q-49 -51 -151 -51q-64 0 -109 36q-48 39 -48 101q0 99 91 124v180h389v-50h-130v-125h119q16 0 22 -2q46 40 106 40q69 0 121.5 -46.5t52.5 -115.5q0 -53 -24 -91h241l23 56q-8 -3 -20 -3q-55 0 -104 37 q-61 46 -61 125q0 81 54 134q42 41 99 41q81 0 131 -45q43 -39 43 -95q0 -40 -35 -122l78 50v-229zM1106 289q0 91 -107 91q-62 0 -81 -66q-5 -18 -5 -42q0 -55 38 -89q33 -29 77 -29q22 0 38 8l33 87q7 18 7 40zM1176 51v92l-50 -23l-28 -69h78zM597 133q0 27 -18.5 49.5 t-45.5 28.5q-23 -31 -23 -82q0 -74 43 -74q17 0 34 27q10 30 10 51zM297 266v125h-123v-125h123zM297 167v48h-131q-82 0 -82 -80q0 -36 29 -59t66 -23q52 0 85 31t33 83z" />
<glyph horiz-adv-x="1362" d="M1318 0h-50v529q0 68 -39.5 113t-106.5 45q-59 0 -94.5 -37t-35.5 -96q0 -75 43 -114q62 -5 104 -41q47 -39 47 -98q0 -40 -35 -122l78 50v-229h-152l-76 -187h-77l76 187h-296v49q36 26 36 90q0 51 -34 85.5t-85 34.5q-21 0 -42 -9q84 -30 84 -120q0 -54 -24 -90 q-28 -40 -80 -40q-47 0 -74 43q-23 36 -23 86q0 44 21 86h-100v-63q0 -57 -42 -101q-49 -51 -151 -51q-64 0 -109 36q-48 39 -48 101q0 99 91 124v180h389v-50h-130v-125h119q16 0 22 -2q46 40 106 40q69 0 121.5 -46.5t52.5 -115.5q0 -53 -24 -91h241l23 56q-8 -3 -20 -3 q-55 0 -104 37q-61 46 -61 125q0 81 54 134q28 28 64 37q-40 50 -40 138q0 82 53 137t135 55q92 0 145 -70q48 -63 48 -158v-539zM1106 289q0 91 -107 91q-62 0 -81 -66q-5 -18 -5 -42q0 -55 38 -89q33 -29 77 -29q22 0 38 8l33 87q7 18 7 40zM1176 51v92l-50 -23l-28 -69 h78zM597 133q0 27 -18.5 49.5t-45.5 28.5q-23 -31 -23 -82q0 -74 43 -74q17 0 34 27q10 30 10 51zM297 266v125h-123v-125h123zM297 167v48h-131q-82 0 -82 -80q0 -36 29 -59t66 -23q52 0 85 31t33 83z" />
<glyph horiz-adv-x="1265" d="M1270 648q0 -43 -29.5 -68.5t-72.5 -25.5q-41 0 -70 20q-33 23 -33 62q0 26 10 35q-37 -6 -58 -43q-17 -32 -17 -73q0 -40 30 -78.5t68 -47.5h-11q32 -11 56 -33q43 -39 43 -95q0 -40 -35 -122l78 50v-229h-152l-76 -187h-77l76 187h-296v49q36 26 36 90q0 51 -34 85.5 t-85 34.5q-21 0 -42 -9q84 -30 84 -120q0 -54 -24 -90q-28 -40 -80 -40q-47 0 -74 43q-23 36 -23 86q0 44 21 86h-100v-63q0 -57 -42 -101q-49 -51 -151 -51q-64 0 -109 36q-48 39 -48 101q0 99 91 124v180h389v-50h-130v-125h119q16 0 22 -2q46 40 106 40q69 0 121.5 -46.5 t52.5 -115.5q0 -53 -24 -91h241l23 56q-8 -3 -20 -3q-55 0 -104 37q-61 46 -61 125q0 81 54 134q37 36 86 40q-53 47 -53 124q0 85 50.5 139t134.5 54q56 0 94 -26q45 -30 45 -83zM1208 636q0 11 -15 28q-15 12 -34 12q-16 0 -32.5 -12t-16.5 -28q-1 -17 15.5 -28t33.5 -11 q22 0 36 11q8 10 13 28zM1106 289q0 91 -107 91q-62 0 -81 -66q-5 -18 -5 -42q0 -55 38 -89q33 -29 77 -29q22 0 38 8l33 87q7 18 7 40zM1176 51v92l-50 -23l-28 -69h78zM597 133q0 27 -18.5 49.5t-45.5 28.5q-23 -31 -23 -82q0 -74 43 -74q17 0 34 27q10 30 10 51zM297 266 v125h-123v-125h123zM297 167v48h-131q-82 0 -82 -80q0 -36 29 -59t66 -23q52 0 85 31t33 83z" />
<glyph horiz-adv-x="879" d="M860 658q0 -43 -29.5 -68.5t-72.5 -25.5q-42 0 -71 19q-32 23 -32 63q0 26 10 35q-38 -8 -58 -44q-17 -30 -17 -72q0 -44 31 -79q28 -31 72 -45h153v-50h-85v-353q0 -81 -7 -109q-48 -193 -427 -193q-129 0 -217 54q-72 44 -72 101q0 62 100 62q59 0 104 -30l-16 -42 q-38 24 -78 24q-49 0 -49 -23q0 -56 91 -86q63 -21 136 -21q218 0 299 72q51 45 51 152v392h-82q-84 0 -84 -101v-290h-86v320q0 71 -63 71q-39 0 -52 -26q-7 -23 -7 -55v-310h-252v441h86v-390h116v285q0 50 34 79q31 27 82 27q84 0 109 -73q29 72 107 72h18 q-66 47 -66 133q0 85 50.5 139t134.5 54q56 0 94 -26q45 -30 45 -83zM798 646q0 11 -15 28q-15 12 -34 12q-15 0 -35 -12q-9 -8 -14 -28q0 -17 16 -28t33 -11q41 0 49 39z" />
<glyph horiz-adv-x="763" d="M697 -139h-56v281h56v-281z" />
<glyph horiz-adv-x="984" d="M928 -25q1 -131 -163 -200q-114 -48 -316 -48q-179 0 -297 34q-144 42 -144 116q0 66 72 66h315v-54h-327q0 -49 113 -83q91 -27 268 -27q314 0 397 124q21 32 21 72v28l-5 21q0 11 -15 30q-21 33 -56 33q-42 0 -94 -52v-174h-56v137l2 144h54v-46q42 42 94 43 q60 1 100 -53q37 -49 37 -111z" />
<glyph horiz-adv-x="320" d="M294 428h-103v-563h-61v563h-200l-1 54h365v-54z" />
<glyph horiz-adv-x="125" d="M78 4h-55v508q0 83 -31 140q-38 72 -114 73q-47 1 -97 -45q-40 -44 -41 -108q-1 -71 46 -95l27 -14l-27 -41q-34 0 -73 54q-27 52 -28 96q-1 84 58.5 144.5t140.5 60.5q95 0 149 -89q45 -75 45 -176v-508z" />
<glyph horiz-adv-x="125" d="M80 -2h-55l-1 566q-1 22 -4 33q-4 30 -18 58q-31 61 -122 62q-65 1 -108 -37t-44 -102q-1 -45 35 -89t80 -44h49v-54h-49q-60 0 -116 67q-53 64 -54 126q-1 79 65 134q62 52 142 53q125 1 171 -86q29 -55 29 -167v-520z" />
<glyph horiz-adv-x="17" d="M-10 633q1 -35 -30 -76q-30 -31 -75 -32q-34 -1 -71 33q-28 34 -29 80q-1 38 22 73q-61 0 -100 -46q-33 -39 -33 -99q0 -43 27 -83q30 -44 71 -44h46v-54h-46q-64 0 -110 63q-43 58 -43 124q0 96 69 150q62 48 162 49q56 1 97.5 -40.5t42.5 -97.5zM-68 628q1 25 -13.5 43 t-39.5 18q-48 0 -48 -54q0 -57 54 -57q46 0 47 50z" />
</font>
</defs>
</svg>
